<svg width="52" height="52" viewBox="0 0 52 52" fill="none" xmlns="http://www.w3.org/2000/svg">
<rect width="52" height="52" rx="3" fill="#8A0002"/>
<g clip-path="url(#clip0_156_1298)">
<path d="M33.15 24.7001C29.9167 24.7001 27.3 27.3168 27.3 30.5501C27.3 33.7834 29.9167 36.4001 33.15 36.4001C36.3833 36.4001 39 33.7834 39 30.5501C39 27.3168 36.3833 24.7001 33.15 24.7001ZM35.75 30.8056C35.75 31.0226 35.5725 31.2001 35.3555 31.2001H32.8949C32.6779 31.2001 32.5004 31.0226 32.5004 30.8056V27.695C32.5004 27.478 32.6779 27.3005 32.8949 27.3005H33.4055C33.6225 27.3005 33.8 27.478 33.8 27.695V29.9001H35.3555C35.5725 29.9001 35.75 30.0776 35.75 30.2946V30.8056ZM33.15 23.4001C33.3694 23.4001 33.5855 23.4135 33.8 23.433V21.4501C33.8 20.4101 32.89 19.5001 31.85 19.5001H28.6V17.5501C28.6 16.5101 27.69 15.6001 26.65 15.6001H20.15C19.11 15.6001 18.2 16.5101 18.2 17.5501V19.5001H14.95C13.91 19.5001 13 20.4101 13 21.4501V24.7001H29.0517C30.2136 23.8839 31.6253 23.4001 33.15 23.4001ZM26 19.5001H20.8V18.2001H26V19.5001ZM26.2771 28.6001H21.45C21.0909 28.6001 20.8 28.3092 20.8 27.9501V26.0001H13V31.8501C13 32.8901 13.91 33.8001 14.95 33.8001H26.7893C26.2884 32.8235 26 31.7209 26 30.5501C26 29.8733 26.1007 29.2208 26.2771 28.6001Z" fill="#E04047"/>
</g>
<defs>
<clipPath id="clip0_156_1298">
<rect width="26" height="26" fill="white" transform="translate(13 13)"/>
</clipPath>
</defs>
</svg>
