<svg width="41" height="48" viewBox="0 0 41 48" fill="none" xmlns="http://www.w3.org/2000/svg">
<g clip-path="url(#clip0_8_145)">
<g clip-path="url(#clip1_8_145)">
<g clip-path="url(#clip2_8_145)">
<path d="M33 0.580078H8C3.58172 0.580078 0 4.1618 0 8.58008V33.5801C0 37.9984 3.58172 41.5801 8 41.5801H33C37.4183 41.5801 41 37.9984 41 33.5801V8.58008C41 4.1618 37.4183 0.580078 33 0.580078Z" fill="#8A0002"/>
<path fill-rule="evenodd" clip-rule="evenodd" d="M11.1276 12.7065C10.6622 12.8684 10.3294 13.159 10.1393 13.5696C10.0093 13.8504 10.0016 14.1725 10.0001 19.3867C9.9987 23.8526 10.0175 24.9522 10.0986 25.1457C10.2543 25.5171 10.5604 25.8362 10.926 26.008C11.2436 26.1573 11.3739 26.165 13.5645 26.165H15.8689V26.8338V27.5026H15.4602C15.1505 27.5026 15.0154 27.5387 14.9028 27.6512C14.7026 27.8515 14.7065 28.2538 14.9106 28.4385C15.0599 28.5736 15.2304 28.5801 18.6183 28.5801C22.0062 28.5801 22.1768 28.5736 22.326 28.4385C22.5301 28.2538 22.534 27.8515 22.3338 27.6512C22.2212 27.5387 22.0861 27.5026 21.7765 27.5026H21.3678V26.8338V26.165H21.9994H22.631V25.5348V24.9045L17.0518 24.8846C11.6269 24.8652 11.4697 24.8606 11.3671 24.7204C11.2785 24.599 11.2617 23.7511 11.2617 19.3887C11.2617 14.3003 11.2645 14.1984 11.4103 14.0526C11.5568 13.9061 11.658 13.904 18.6183 13.904C25.5786 13.904 25.6798 13.9061 25.8263 14.0526C25.9651 14.1914 25.9749 14.3003 25.9749 15.6874V17.1736H26.6066H27.2382L27.2366 15.5202C27.2352 14.0696 27.2181 13.8304 27.0973 13.5696C26.9284 13.2048 26.6276 12.9146 26.235 12.7376C25.9561 12.6118 25.4946 12.6025 18.7298 12.5865C11.8913 12.5703 11.5016 12.5765 11.1276 12.7065ZM23.9686 18.5112C23.823 18.6568 23.82 18.7589 23.82 23.4362C23.82 27.639 23.8339 28.2325 23.9357 28.3778L24.0513 28.5429H27.0823C29.9243 28.5429 30.1209 28.5345 30.2362 28.407C30.348 28.2835 30.3592 27.8306 30.3592 23.4325V18.5939L30.194 18.4783C30.0513 18.3782 29.6281 18.3626 27.073 18.3626C24.2163 18.3626 24.1122 18.3675 23.9686 18.5112ZM29.5418 23.1184V26.6852H27.0896H24.6374V23.1184V19.5515H27.0896H29.5418V23.1184ZM27.554 27.2882C27.8355 27.6272 27.636 28.13 27.1854 28.217C26.9858 28.2556 26.9101 28.2262 26.721 28.0372C26.5968 27.9129 26.4951 27.7393 26.4951 27.6512C26.4951 27.5632 26.5968 27.3895 26.721 27.2653C26.9101 27.0762 26.9858 27.0469 27.1854 27.0854C27.3167 27.1108 27.4825 27.202 27.554 27.2882Z" fill="#E04047"/>
</g>
</g>
</g>
<defs>
<clipPath id="clip0_8_145">
<rect width="41" height="41" fill="white" transform="translate(0 0.580078)"/>
</clipPath>
<clipPath id="clip1_8_145">
<rect width="41" height="41" fill="white" transform="translate(0 0.580078)"/>
</clipPath>
<clipPath id="clip2_8_145">
<rect width="41" height="41" fill="white" transform="translate(0 0.580078)"/>
</clipPath>
</defs>
</svg>
