<svg width="53" height="53" viewBox="0 0 53 53" fill="none" xmlns="http://www.w3.org/2000/svg">
<rect x="0.972656" y="0.7146" width="52" height="52" rx="4" fill="#8A0002"/>
<g clip-path="url(#clip0_159_1370)">
<path d="M23.8206 34.3041C23.6874 34.0369 23.4554 34.0098 23.3615 34.0098C23.2677 34.0098 23.0356 34.0365 22.9093 34.2892L22.563 34.9817C22.2755 35.5586 21.4332 35.4949 21.2323 34.8873L20.4727 32.6092L19.9937 34.0482C19.7279 34.8454 18.9835 35.3812 18.143 35.3812H17.5838C17.1847 35.3812 16.8615 35.058 16.8615 34.6589C16.8615 34.2599 17.1847 33.9367 17.5838 33.9367H18.143C18.3611 33.9367 18.5543 33.7977 18.6233 33.5909L19.4444 31.1246C19.5934 30.6817 20.0059 30.3838 20.4727 30.3838C20.9394 30.3838 21.352 30.6813 21.5005 31.1246L22.127 33.0041C23.0185 32.2733 24.5672 32.5663 25.1062 33.6433C25.1915 33.8139 25.354 33.9119 25.5287 33.9259V30.2191L31.3064 24.4824V22.3812H25.1671C24.5713 22.3812 24.0838 21.8937 24.0838 21.2978V15.1589H15.056C14.4556 15.1589 13.9727 15.6419 13.9727 16.2423V37.1867C13.9727 37.7871 14.4556 38.27 15.056 38.27H30.2227C30.823 38.27 31.306 37.7871 31.306 37.1867V35.3812L25.5282 35.3762C24.8006 35.3622 24.1479 34.9573 23.8206 34.3041ZM31.306 20.6614C31.306 20.377 31.1931 20.1016 30.99 19.8985L26.5709 15.4749C26.3678 15.2718 26.0924 15.1589 25.8036 15.1589H25.5282V20.9367H31.306V20.6614ZM26.9727 30.8203V33.9367H30.0868L37.3848 26.589L34.3208 23.525L26.9727 30.8203ZM39.6359 22.712L38.1973 21.2734C37.7487 20.8248 37.0206 20.8248 36.5719 21.2734L35.3419 22.5035L38.4059 25.5675L39.6359 24.3375C40.0851 23.8888 40.0851 23.1607 39.6359 22.712Z" fill="#E04047"/>
</g>
<defs>
<clipPath id="clip0_159_1370">
<rect width="26" height="26" fill="white" transform="translate(13.9727 13.7146)"/>
</clipPath>
</defs>
</svg>
