<svg width="18" height="14" viewBox="0 0 18 14" fill="none" xmlns="http://www.w3.org/2000/svg">
<path d="M15.667 0.333008H2.33299C1.41699 0.333008 0.674992 1.08301 0.674992 2.00001L0.666992 12C0.666992 12.917 1.41699 13.667 2.33299 13.667H15.667C16.583 13.667 17.333 12.917 17.333 12V2.00001C17.333 1.08301 16.583 0.333008 15.667 0.333008ZM15.333 3.87501L9.44199 7.55901C9.30909 7.64084 9.15607 7.68417 8.99999 7.68417C8.84391 7.68417 8.6909 7.64084 8.55799 7.55901L2.66699 3.87501C2.5846 3.82751 2.51261 3.76391 2.45534 3.68798C2.39807 3.61206 2.35668 3.52537 2.33364 3.4331C2.3106 3.34083 2.30639 3.24486 2.32126 3.15093C2.33613 3.057 2.36977 2.96702 2.42017 2.88637C2.47058 2.80572 2.53671 2.73606 2.61464 2.68153C2.69256 2.627 2.78066 2.58874 2.8737 2.56901C2.96673 2.54928 3.06279 2.5485 3.15613 2.56671C3.24948 2.58492 3.3382 2.62176 3.41699 2.67501L8.99999 6.16701L14.583 2.67501C14.6618 2.62176 14.7505 2.58492 14.8439 2.56671C14.9372 2.5485 15.0333 2.54928 15.1263 2.56901C15.2193 2.58874 15.3074 2.627 15.3853 2.68153C15.4633 2.73606 15.5294 2.80572 15.5798 2.88637C15.6302 2.96702 15.6639 3.057 15.6787 3.15093C15.6936 3.24486 15.6894 3.34083 15.6663 3.4331C15.6433 3.52537 15.6019 3.61206 15.5446 3.68798C15.4874 3.76391 15.4154 3.82751 15.333 3.87501V3.87501Z" fill="#8A0002"/>
</svg>
