<svg width="52" height="52" viewBox="0 0 52 52" fill="none" xmlns="http://www.w3.org/2000/svg">
<rect width="52" height="52" rx="3" fill="#8A0002"/>
<g clip-path="url(#clip0_156_1290)">
<path d="M22.848 33.5895C22.7148 33.3223 22.4828 33.2952 22.3889 33.2952C22.295 33.2952 22.063 33.3219 21.9366 33.5746L21.5904 34.2671C21.3028 34.844 20.4606 34.7803 20.2597 34.1727L19.5 31.8946L19.0211 33.3336C18.7552 34.1308 18.0109 34.6666 17.1704 34.6666H16.6111C16.2121 34.6666 15.8889 34.3434 15.8889 33.9443C15.8889 33.5453 16.2121 33.2221 16.6111 33.2221H17.1704C17.3884 33.2221 17.5816 33.0831 17.6507 32.8763L18.4717 30.41C18.6207 29.9671 19.0333 29.6692 19.5 29.6692C19.9667 29.6692 20.3793 29.9667 20.5278 30.41L21.1543 32.2895C22.0458 31.5587 23.5945 31.8517 24.1335 32.9287C24.2188 33.0993 24.3813 33.1973 24.556 33.2113V29.5045L30.3338 23.7678V21.6666H24.1944C23.5986 21.6666 23.1111 21.1791 23.1111 20.5832V14.4443H14.0833C13.483 14.4443 13 14.9273 13 15.5277V36.4721C13 37.0725 13.483 37.5554 14.0833 37.5554H29.25C29.8503 37.5554 30.3333 37.0725 30.3333 36.4721V34.6666L24.5556 34.6616C23.8279 34.6476 23.1752 34.2427 22.848 33.5895ZM30.3333 19.9468C30.3333 19.6624 30.2205 19.387 30.0174 19.1839L25.5983 14.7603C25.3951 14.5572 25.1198 14.4443 24.8309 14.4443H24.5556V20.2221H30.3333V19.9468ZM26 30.1057V33.2221H29.1141L36.4122 25.8744L33.3482 22.8104L26 30.1057ZM38.6633 21.9974L37.2247 20.5588C36.776 20.1102 36.0479 20.1102 35.5992 20.5588L34.3692 21.7889L37.4332 24.8529L38.6633 23.6229C39.1124 23.1742 39.1124 22.4461 38.6633 21.9974Z" fill="#E04047"/>
</g>
<defs>
<clipPath id="clip0_156_1290">
<rect width="26" height="26" fill="white" transform="translate(13 13)"/>
</clipPath>
</defs>
</svg>
