<svg width="41" height="42" viewBox="0 0 41 42" fill="none" xmlns="http://www.w3.org/2000/svg">
<g clip-path="url(#clip0_8_37)">
<g clip-path="url(#clip1_8_37)">
<g clip-path="url(#clip2_8_37)">
<path d="M33 0.77002H8C3.58172 0.77002 0 4.35174 0 8.77002V33.77C0 38.1883 3.58172 41.77 8 41.77H33C37.4183 41.77 41 38.1883 41 33.77V8.77002C41 4.35174 37.4183 0.77002 33 0.77002Z" fill="#8A0002"/>
<path d="M11.8612 13.093C12.995 11.8177 14.5158 11.0718 16.1183 11.0049C17.7208 10.9381 19.2866 11.5552 20.5013 12.7325C21.715 11.5571 23.2787 10.9407 24.8793 11.0066C26.4799 11.0724 27.9993 11.8158 29.1333 13.0877C30.2674 14.3596 30.9323 16.0663 30.9951 17.8661C31.0579 19.6659 30.5138 21.4259 29.4718 22.7938L21.8824 31.3559C21.5337 31.7481 21.066 31.9777 20.5732 31.9985C20.0803 32.0192 19.5987 31.8298 19.2248 31.468L19.1173 31.357L11.5288 22.7938C10.4874 21.427 9.9431 19.6687 10.0047 17.8701C10.0663 16.0716 10.7293 14.3655 11.8612 13.093ZM13.2432 14.6471C12.4439 15.5462 11.9832 16.7568 11.9566 18.0277C11.93 19.2987 12.3397 20.5323 13.1005 21.4726L13.2432 21.6419L20.5003 29.8028L25.6835 23.9731L22.2284 20.0877L21.1923 21.2528C20.9201 21.5591 20.5969 21.8021 20.2411 21.9679C19.8854 22.1337 19.5041 22.2191 19.119 22.2192C18.3413 22.2194 17.5953 21.8722 17.0453 21.2539C16.4952 20.6356 16.1861 19.7969 16.1859 18.9224C16.1857 18.0478 16.4945 17.2089 17.0443 16.5904L19.0988 14.2789C18.2811 13.5451 17.2578 13.163 16.2122 13.201C15.1667 13.2391 14.1674 13.6949 13.3937 14.4866L13.2432 14.6471ZM21.5374 17.7554C21.7206 17.5494 21.9692 17.4336 22.2284 17.4336C22.4875 17.4336 22.7361 17.5494 22.9194 17.7554L27.0655 22.4179L27.7575 21.6419C28.5702 20.7287 29.0328 19.4941 29.0465 18.2023C29.0602 16.9104 28.6239 15.6638 27.8308 14.7291C27.0378 13.7943 25.9509 13.2456 24.8028 13.2003C23.6546 13.155 22.5363 13.6167 21.6869 14.4866L21.5374 14.6471L18.4273 18.1445C18.2579 18.3349 18.1565 18.5886 18.1425 18.8575C18.1284 19.1263 18.2026 19.3916 18.3511 19.603L18.4273 19.6987C18.5966 19.8892 18.8222 20.0031 19.0613 20.0189C19.3004 20.0347 19.5363 19.9513 19.7243 19.7844L19.8093 19.6987L21.5374 17.7554Z" fill="#E04047"/>
</g>
</g>
</g>
<defs>
<clipPath id="clip0_8_37">
<rect width="41" height="41" fill="white" transform="translate(0 0.77002)"/>
</clipPath>
<clipPath id="clip1_8_37">
<rect width="41" height="41" fill="white" transform="translate(0 0.77002)"/>
</clipPath>
<clipPath id="clip2_8_37">
<rect width="41" height="41" fill="white" transform="translate(0 0.77002)"/>
</clipPath>
</defs>
</svg>
