<svg width="53" height="52" viewBox="0 0 53 52" fill="none" xmlns="http://www.w3.org/2000/svg">
<rect x="0.924927" width="52" height="52" rx="3" fill="#8A0002"/>
<g clip-path="url(#clip0_156_1282)">
<path d="M39.5695 35.4809L34.5066 30.418C34.2781 30.1895 33.9683 30.0625 33.6433 30.0625H32.8156C34.2171 28.2699 35.0499 26.0152 35.0499 23.5625C35.0499 17.7277 30.3222 13 24.4874 13C18.6527 13 13.9249 17.7277 13.9249 23.5625C13.9249 29.3973 18.6527 34.125 24.4874 34.125C26.9402 34.125 29.1948 33.2922 30.9874 31.8906V32.7184C30.9874 33.0434 31.1144 33.3531 31.3429 33.5816L36.4058 38.6445C36.8831 39.1219 37.655 39.1219 38.1273 38.6445L39.5644 37.2074C40.0417 36.7301 40.0417 35.9582 39.5695 35.4809ZM24.4874 30.0625C20.8972 30.0625 17.9874 27.1578 17.9874 23.5625C17.9874 19.9723 20.8921 17.0625 24.4874 17.0625C28.0777 17.0625 30.9874 19.9672 30.9874 23.5625C30.9874 27.1527 28.0827 30.0625 24.4874 30.0625Z" fill="#E04047"/>
</g>
<defs>
<clipPath id="clip0_156_1282">
<rect width="26" height="26" fill="white" transform="translate(13.9249 13)"/>
</clipPath>
</defs>
</svg>
