<svg width="41" height="42" viewBox="0 0 41 42" fill="none" xmlns="http://www.w3.org/2000/svg">
<g clip-path="url(#clip0_8_31)">
<g clip-path="url(#clip1_8_31)">
<g clip-path="url(#clip2_8_31)">
<path d="M33 0.77002H8C3.58172 0.77002 0 4.35174 0 8.77002V33.77C0 38.1883 3.58172 41.77 8 41.77H33C37.4183 41.77 41 38.1883 41 33.77V8.77002C41 4.35174 37.4183 0.77002 33 0.77002Z" fill="#8A0002"/>
<path d="M14 31.5V26.5C14 24.2909 15.7909 22.5001 18 22.5L24 22.5C26.2091 22.5 28 24.2909 28 26.5V31.5M25 14.5C25 16.7091 23.2091 18.5 21 18.5C18.7909 18.5 17 16.7091 17 14.5C17 12.2909 18.7909 10.5 21 10.5C23.2091 10.5 25 12.2909 25 14.5Z" stroke="#E04047" stroke-width="3" stroke-linecap="round" stroke-linejoin="round"/>
</g>
</g>
</g>
<defs>
<clipPath id="clip0_8_31">
<rect width="41" height="41" fill="white" transform="translate(0 0.77002)"/>
</clipPath>
<clipPath id="clip1_8_31">
<rect width="41" height="41" fill="white" transform="translate(0 0.77002)"/>
</clipPath>
<clipPath id="clip2_8_31">
<rect width="41" height="41" fill="white" transform="translate(0 0.77002)"/>
</clipPath>
</defs>
</svg>
