<svg width="52" height="52" viewBox="0 0 52 52" fill="none" xmlns="http://www.w3.org/2000/svg">
<rect width="52" height="52" rx="4" fill="#8A0002"/>
<g clip-path="url(#clip0_159_1355)">
<path d="M23.3606 26.2296C23.6145 26.4835 24.026 26.4835 24.2799 26.2296L24.7394 25.7702C24.9933 25.5163 24.9933 25.1047 24.7394 24.8508L23.2883 23.4001L24.739 21.949C24.9929 21.6951 24.9929 21.2835 24.739 21.0296L24.2795 20.5702C24.0256 20.3163 23.6141 20.3163 23.3602 20.5702L20.9901 22.9402C20.7362 23.1941 20.7362 23.6057 20.9901 23.8596L23.3606 26.2296ZM27.261 25.7706L27.7205 26.23C27.9744 26.4839 28.3859 26.4839 28.6398 26.23L31.0099 23.86C31.2638 23.6061 31.2638 23.1945 31.0099 22.9406L28.6398 20.5706C28.3859 20.3167 27.9744 20.3167 27.7205 20.5706L27.261 21.03C27.0071 21.2839 27.0071 21.6955 27.261 21.9494L28.7117 23.4001L27.261 24.8512C27.0071 25.1051 27.0071 25.5167 27.261 25.7706ZM38.35 32.5001H28.5001C28.47 33.3049 27.9025 33.8001 27.17 33.8001H24.7C23.9407 33.8001 23.3586 33.0904 23.3687 32.5001H13.65C13.2925 32.5001 13 32.7926 13 33.1501V33.8001C13 35.2301 14.17 36.4001 15.6 36.4001H36.4C37.83 36.4001 39 35.2301 39 33.8001V33.1501C39 32.7926 38.7075 32.5001 38.35 32.5001ZM36.4 17.5501C36.4 16.4776 35.5225 15.6001 34.45 15.6001H17.55C16.4775 15.6001 15.6 16.4776 15.6 17.5501V31.2001H36.4V17.5501ZM33.8 28.6001H18.2V18.2001H33.8V28.6001Z" fill="#E04047"/>
</g>
<defs>
<clipPath id="clip0_159_1355">
<rect width="26" height="26" fill="white" transform="translate(13 13)"/>
</clipPath>
</defs>
</svg>
