<svg width="53" height="52" viewBox="0 0 53 52" fill="none" xmlns="http://www.w3.org/2000/svg">
<rect x="0.972656" width="52" height="52" rx="4" fill="#8A0002"/>
<path d="M28.5977 19.9062V13H18.4414C17.766 13 17.2227 13.5434 17.2227 14.2188V37.7812C17.2227 38.4566 17.766 39 18.4414 39H35.5039C36.1793 39 36.7227 38.4566 36.7227 37.7812V21.125H29.8164C29.1461 21.125 28.5977 20.5766 28.5977 19.9062ZM20.4727 16.6562C20.4727 16.4318 20.6545 16.25 20.8789 16.25H24.9414C25.1659 16.25 25.3477 16.4318 25.3477 16.6562V17.4688C25.3477 17.6932 25.1659 17.875 24.9414 17.875H20.8789C20.6545 17.875 20.4727 17.6932 20.4727 17.4688V16.6562ZM20.4727 19.9062C20.4727 19.6818 20.6545 19.5 20.8789 19.5H24.9414C25.1659 19.5 25.3477 19.6818 25.3477 19.9062V20.7188C25.3477 20.9432 25.1659 21.125 24.9414 21.125H20.8789C20.6545 21.125 20.4727 20.9432 20.4727 20.7188V19.9062ZM30.2638 32.5H32.6602C33.1091 32.5 33.4727 32.8636 33.4727 33.3125C33.4727 33.7614 33.1091 34.125 32.6602 34.125H30.2638C29.4284 34.125 28.6759 33.6609 28.3016 32.9134C28.1518 32.6127 27.8908 32.5823 27.7852 32.5823C27.6795 32.5823 27.4185 32.6122 27.2763 32.8966L26.8868 33.6756C26.8194 33.8105 26.7157 33.924 26.5873 34.0033C26.459 34.0826 26.311 34.1246 26.1602 34.1245C26.1409 34.1245 26.1221 34.1235 26.1023 34.122C25.7747 34.0991 25.4929 33.8807 25.3898 33.5689L24.5352 31.0065L23.9964 32.6254C23.6973 33.5222 22.8599 34.125 21.9143 34.125H21.2852C20.8363 34.125 20.4727 33.7614 20.4727 33.3125C20.4727 32.8636 20.8363 32.5 21.2852 32.5H21.9143C22.1596 32.5 22.377 32.3436 22.4546 32.111L23.3784 29.3363C23.5459 28.8382 24.0101 28.503 24.5352 28.503C25.0602 28.503 25.5244 28.8377 25.6914 29.3363L26.3963 31.4509C27.4002 30.6287 29.141 30.9583 29.7479 32.1699C29.8504 32.3761 30.0505 32.5 30.2638 32.5ZM36.3672 18.332L31.3957 13.3555C31.1672 13.127 30.8574 13 30.5324 13H30.2227V19.5H36.7227V19.1902C36.7227 18.8703 36.5957 18.5605 36.3672 18.332Z" fill="#E04047"/>
</svg>
