<svg width="52" height="53" viewBox="0 0 52 53" fill="none" xmlns="http://www.w3.org/2000/svg">
<rect y="0.7146" width="52" height="52" rx="4" fill="#8A0002"/>
<g clip-path="url(#clip0_159_1362)">
<path d="M26 14.1208C19.0446 14.1208 13.4062 19.7592 13.4062 26.7146C13.4062 33.67 19.0446 39.3083 26 39.3083C32.9554 39.3083 38.5938 33.67 38.5938 26.7146C38.5938 19.7592 32.9554 14.1208 26 14.1208ZM31.9482 31.7294C31.8674 31.8242 29.9283 34.0517 26.3698 34.0517C22.0691 34.0517 19.0328 30.8393 19.0328 26.6596C19.0328 22.5309 22.1814 19.3775 26.3332 19.3775C29.7333 19.3775 31.5111 21.2724 31.5851 21.3531C31.6762 21.4525 31.7319 21.5793 31.7433 21.7137C31.7546 21.848 31.7211 21.9824 31.6479 22.0957L30.5115 23.8555C30.3058 24.1738 29.8628 24.2288 29.5855 23.9721C29.5737 23.9612 28.2383 22.7594 26.4432 22.7594C24.1013 22.7594 22.6896 24.4644 22.6896 26.6229C22.6896 28.634 23.9853 30.6698 26.4615 30.6698C28.4266 30.6698 29.7765 29.2308 29.7899 29.2162C30.0505 28.9336 30.5038 28.9606 30.7298 29.2697L31.9763 30.9745C32.0572 31.0851 32.0984 31.2198 32.0933 31.3568C32.0882 31.4938 32.0371 31.6251 31.9482 31.7294Z" fill="#E04047"/>
</g>
<defs>
<clipPath id="clip0_159_1362">
<rect width="26" height="26" fill="white" transform="translate(13 13.7146)"/>
</clipPath>
</defs>
</svg>
