<svg width="41" height="41" viewBox="0 0 41 41" fill="none" xmlns="http://www.w3.org/2000/svg">
<g clip-path="url(#clip0_8_155)">
<g clip-path="url(#clip1_8_155)">
<g clip-path="url(#clip2_8_155)">
<path d="M33 0H8C3.58172 0 0 3.58172 0 8V33C0 37.4183 3.58172 41 8 41H33C37.4183 41 41 37.4183 41 33V8C41 3.58172 37.4183 0 33 0Z" fill="#8A0002"/>
<path d="M28.0515 23.1025C28.6718 21.5611 28.8146 19.855 28.4598 18.2243C28.105 16.5935 27.2704 15.1201 26.0733 14.0111C24.8763 12.9021 23.377 12.2134 21.7862 12.0417C20.1955 11.87 18.5933 12.2241 17.2049 13.054L16.2565 11.3173C17.7074 10.45 19.3505 9.99582 21.0217 10C22.6929 10.0042 24.3339 10.4667 25.7808 11.3413C30.0736 13.9329 31.718 19.4821 29.717 24.1094L31 24.8833L27.018 27.097L26.8602 22.3837L28.0515 23.1025V23.1025ZM13.9495 16.8975C13.3291 18.4389 13.1863 20.145 13.5412 21.7757C13.896 23.4065 14.7306 24.8799 15.9276 25.9889C17.1247 27.0979 18.624 27.7866 20.2147 27.9583C21.8055 28.13 23.4077 27.7759 24.7961 26.946L25.7445 28.6827C24.2935 29.55 22.6505 30.0042 20.9793 30C19.308 29.9958 17.6671 29.5333 16.2201 28.6587C11.9274 26.0671 10.2829 20.5179 12.284 15.8906L11 15.1177L14.982 12.904L15.1398 17.6173L13.9485 16.8985L13.9495 16.8975ZM17.6542 21.9997H22.9126C23.0394 21.9997 23.161 21.947 23.2506 21.8533C23.3403 21.7595 23.3907 21.6324 23.3907 21.4998C23.3907 21.3672 23.3403 21.24 23.2506 21.1463C23.161 21.0525 23.0394 20.9999 22.9126 20.9999H19.0883C18.4544 20.9999 17.8465 20.7365 17.3982 20.2677C16.95 19.799 16.6982 19.1632 16.6982 18.5002C16.6982 17.8373 16.95 17.2015 17.3982 16.7327C17.8465 16.2639 18.4544 16.0006 19.0883 16.0006H20.0444V15.0007H21.9565V16.0006H24.3467V18.0003H19.0883C18.9616 18.0003 18.84 18.053 18.7503 18.1467C18.6607 18.2405 18.6103 18.3676 18.6103 18.5002C18.6103 18.6328 18.6607 18.76 18.7503 18.8537C18.84 18.9475 18.9616 19.0001 19.0883 19.0001H22.9126C23.5465 19.0001 24.1545 19.2635 24.6027 19.7323C25.051 20.201 25.3028 20.8368 25.3028 21.4998C25.3028 22.1627 25.051 22.7985 24.6027 23.2673C24.1545 23.7361 23.5465 23.9994 22.9126 23.9994H21.9565V24.9993H20.0444V23.9994H17.6542V21.9997Z" fill="#E04047"/>
</g>
</g>
</g>
<defs>
<clipPath id="clip0_8_155">
<rect width="41" height="41" fill="white"/>
</clipPath>
<clipPath id="clip1_8_155">
<rect width="41" height="41" fill="white"/>
</clipPath>
<clipPath id="clip2_8_155">
<rect width="41" height="41" fill="white"/>
</clipPath>
</defs>
</svg>
