<svg width="41" height="41" viewBox="0 0 41 41" fill="none" xmlns="http://www.w3.org/2000/svg">
<g clip-path="url(#clip0_8_155)">
<g clip-path="url(#clip1_8_155)">
<g clip-path="url(#clip2_8_155)">
<path d="M33 0H8C3.58172 0 0 3.58172 0 8V33C0 37.4183 3.58172 41 8 41H33C37.4183 41 41 37.4183 41 33V8C41 3.58172 37.4183 0 33 0Z" fill="#8A0002"/>
<path d="M19.5833 10C14.3125 10 10 14.3125 10 19.5833C10 24.8542 14.3125 29.1667 19.5833 29.1667C24.8542 29.1667 29.1667 24.8542 29.1667 19.5833C29.1667 14.3125 24.8542 10 19.5833 10ZM19.5833 27.25C15.3571 27.25 11.9167 23.8096 11.9167 19.5833C11.9167 15.3571 15.3571 11.9167 19.5833 11.9167C23.8096 11.9167 27.25 15.3571 27.25 19.5833C27.25 23.8096 23.8096 27.25 19.5833 27.25ZM20.0625 14.7917H18.625V20.5417L23.6083 23.6083L24.375 22.3625L20.0625 19.775V14.7917Z" fill="#E04047"/>
</g>
</g>
</g>
<defs>
<clipPath id="clip0_8_155">
<rect width="41" height="41" fill="white"/>
</clipPath>
<clipPath id="clip1_8_155">
<rect width="41" height="41" fill="white"/>
</clipPath>
<clipPath id="clip2_8_155">
<rect width="41" height="41" fill="white"/>
</clipPath>
</defs>
</svg>
