<svg width="279" height="278" viewBox="0 0 279 278" fill="none" xmlns="http://www.w3.org/2000/svg">
<g filter="url(#filter0_b_253_198)">
<circle cx="139.567" cy="139.153" r="79.1859" transform="rotate(-11.4348 139.567 139.153)" fill="#FAFAFA" fill-opacity="0.05"/>
<circle cx="139.567" cy="139.153" r="78.7589" transform="rotate(-11.4348 139.567 139.153)" stroke="#FAFAFA" stroke-width="0.854066"/>
</g>
<path d="M136.137 90.0612L136.634 80.6363L141.054 80.8205C142.409 80.877 143.05 81.5836 142.979 82.9404L142.9 84.4293C142.837 85.6222 142.275 86.2604 141.213 86.3439L142.873 90.1092L142.738 90.3363L141.988 90.305L140.229 86.344L137.255 86.22L137.05 90.0993L136.137 90.0612ZM137.299 85.4005L140.859 85.5489C141.568 85.5784 141.942 85.2335 141.98 84.5141L142.072 82.7658C142.109 82.0555 141.773 81.6856 141.064 81.656L137.504 81.5076L137.299 85.4005Z" fill="url(#paint0_linear_253_198)"/>
<path d="M150.894 92.0974L157.159 84.5798L158.619 85.1176L158.311 94.8288L158.105 94.9862L157.4 94.7267L157.515 92.0866L153.326 90.544L151.649 92.6086L150.957 92.3538L150.894 92.0974ZM153.9 89.8807L157.538 91.2205L157.759 85.6899L157.426 85.5672L153.9 89.8807Z" fill="url(#paint1_linear_253_198)"/>
<path d="M162.975 95.2034L166.612 88.7592L167.413 89.2015L163.708 95.7648C163.359 96.3842 163.499 96.8677 164.128 97.2153L166.781 98.6806C167.402 99.0239 167.888 98.8858 168.238 98.2664L171.942 91.7031L172.743 92.1453L169.105 98.5895C168.438 99.7727 167.51 100.037 166.323 99.3808L163.754 97.9617C162.567 97.3061 162.307 96.3866 162.975 95.2034Z" fill="url(#paint2_linear_253_198)"/>
<path d="M175.83 95.2792L176.402 94.672L181.775 99.6832L181.203 100.29L178.846 98.0922L172.949 104.353L172.29 103.738L178.187 97.4774L175.83 95.2792Z" fill="url(#paint3_linear_253_198)"/>
<path d="M177.841 108.724L185.649 103.436L186.162 104.194L182.813 106.462L185.716 110.75L189.066 108.481L189.579 109.239L181.77 114.528L181.257 113.77L185.037 111.21L182.134 106.922L178.354 109.482L177.841 108.724Z" fill="url(#paint4_linear_253_198)"/>
<path d="M184.606 119.157L193.376 115.701L195.572 121.359L194.797 121.664L192.932 116.861L189.945 118.038L191.661 122.459L190.899 122.76L189.182 118.338L185.712 119.705L187.577 124.509L186.802 124.815L184.606 119.157Z" fill="url(#paint5_linear_253_198)"/>
<path d="M188.314 129.752L197.466 127.507L197.703 128.505L191.091 135.603L198.93 133.68L199.139 134.558L189.986 136.803L189.753 135.818L196.364 128.721L188.525 130.643L188.314 129.752Z" fill="url(#paint6_linear_253_198)"/>
<path d="M199.099 141.37L199.925 141.477L198.898 148.764L198.072 148.657L198.522 145.461L190.007 144.36L190.133 143.466L198.648 144.567L199.099 141.37Z" fill="url(#paint7_linear_253_198)"/>
<path d="M188.51 153.276L197.626 155.646L197.385 156.53L188.269 154.16L188.51 153.276Z" fill="url(#paint8_linear_253_198)"/>
<g filter="url(#filter1_b_253_198)">
<circle cx="139.108" cy="139.98" r="39.3236" transform="rotate(-80.9153 139.108 139.98)" fill="#F5E3E3"/>
</g>
<path d="M107.248 139.669C115.307 137.551 115.335 137.544 116.704 136.455C117.437 135.869 118.399 134.797 118.807 134.093C121.173 130.12 119.188 121.604 114.291 114.596C113.516 113.532 112.887 112.574 112.859 112.467C112.831 112.359 115.301 111.651 118.344 110.884L123.906 109.482L125.545 110.357C127.765 111.543 128.997 113.121 129.847 115.855C130.456 117.762 130.491 118.126 130.138 119.502C129.695 121.331 129.965 123.753 130.822 125.025C131.798 126.525 134.177 127.643 138.092 128.43C140.513 128.908 141.544 129.249 141.329 129.446C141.17 129.629 139.047 130.193 136.612 130.693C131.583 131.76 131.908 131.42 133.347 134.263C134.703 137.012 136.19 138.212 138.742 138.627C140.07 138.865 140.658 138.745 152.362 135.795L164.619 132.705L163.423 128.055L162.233 123.433L159.542 122.823C156.326 122.117 152.778 120.35 151.159 118.64C150.433 117.878 149.824 116.887 149.444 115.867C148.676 113.685 148.98 112.577 150.772 111.067C152.086 109.991 152.328 109.902 156.285 108.904L160.435 107.858L161.21 109.38C163.672 114.14 164.883 116.096 166.557 118.021C168.562 120.32 170.319 121.537 172.194 121.952C173.218 122.152 174.276 122.143 174.214 121.901C174.124 121.551 171.551 117.735 170.409 116.277C169.123 114.598 168.86 114.378 167.795 114.246C165.699 114.001 163.569 112.134 162.026 109.232C161.487 108.166 161.009 107.799 158.402 106.367C155.524 104.803 150.329 102.821 149.61 103.003C148.974 103.163 147.957 104.593 147.583 105.889C146.988 107.928 147.092 110.392 147.922 113.617C148.856 117.245 150.135 120.043 152.349 123.377C153.296 124.77 154.016 126.076 153.96 126.205C153.85 126.576 144.235 129.057 143.266 128.958C142.056 128.834 140.008 127.518 138.819 126.101C137.885 124.991 137.601 124.347 137.089 122.472C136.578 120.484 136.543 120.006 136.903 118.656C137.394 116.901 136.972 114.574 135.948 113.229C134.904 111.919 131.874 110.564 128.603 109.987C126.97 109.711 125.621 109.393 125.594 109.285C125.559 109.151 127.613 108.547 130.131 107.913L134.724 106.755L134.199 105.514C133.936 104.836 133.438 103.816 133.113 103.24C132.601 102.282 132.428 102.182 131.529 102.237C130.166 102.323 125.047 103.957 122.654 105.075C119.52 106.523 116.255 108.491 114.09 110.268C111.773 112.14 108.314 115.416 108.384 115.684C108.411 115.792 109.214 116.162 110.182 116.49C113.751 117.766 116.241 119.771 117.459 122.326C118.226 123.936 118.206 125.115 117.382 126.381C116.366 127.925 114.74 128.707 110.375 129.722L106.509 130.611L105.983 129.598C104.385 126.366 103.112 124.168 102.891 124.224C102.753 124.259 102.58 124.617 102.504 125.009C102.379 125.555 102.524 125.891 103.223 126.659C104.171 127.708 105.748 130.516 105.561 130.821C105.499 130.922 104.247 131.324 102.753 131.7L100.013 132.391L99.7504 133.545C99.4253 134.915 98.9271 140.764 99.0861 141.383C99.183 141.759 100.103 141.556 107.248 139.669Z" fill="url(#paint9_linear_253_198)"/>
<path d="M107.248 139.669C115.307 137.551 115.335 137.544 116.704 136.455C117.437 135.869 118.399 134.797 118.807 134.093C121.173 130.12 119.188 121.604 114.291 114.596C113.516 113.532 112.887 112.574 112.859 112.467C112.831 112.359 115.301 111.651 118.344 110.884L123.906 109.482L125.545 110.357C127.765 111.543 128.997 113.121 129.847 115.855C130.456 117.762 130.491 118.126 130.138 119.502C129.695 121.331 129.965 123.753 130.822 125.025C131.798 126.525 134.177 127.643 138.092 128.43C140.513 128.908 141.544 129.249 141.329 129.446C141.17 129.629 139.047 130.193 136.612 130.693C131.583 131.76 131.908 131.42 133.347 134.263C134.703 137.012 136.19 138.212 138.742 138.627C140.07 138.865 140.658 138.745 152.362 135.795L164.619 132.705L163.423 128.055L162.233 123.433L159.542 122.823C156.326 122.117 152.778 120.35 151.159 118.64C150.433 117.878 149.824 116.887 149.444 115.867C148.676 113.685 148.98 112.577 150.772 111.067C152.086 109.991 152.328 109.902 156.285 108.904L160.435 107.858L161.21 109.38C163.672 114.14 164.883 116.096 166.557 118.021C168.562 120.32 170.319 121.537 172.194 121.952C173.218 122.152 174.276 122.143 174.214 121.901C174.124 121.551 171.551 117.735 170.409 116.277C169.123 114.598 168.86 114.378 167.795 114.246C165.699 114.001 163.569 112.134 162.026 109.232C161.487 108.166 161.009 107.799 158.402 106.367C155.524 104.803 150.329 102.821 149.61 103.003C148.974 103.163 147.957 104.593 147.583 105.889C146.988 107.928 147.092 110.392 147.922 113.617C148.856 117.245 150.135 120.043 152.349 123.377C153.296 124.77 154.016 126.076 153.96 126.205C153.85 126.576 144.235 129.057 143.266 128.958C142.056 128.834 140.008 127.518 138.819 126.101C137.885 124.991 137.601 124.347 137.089 122.472C136.578 120.484 136.543 120.006 136.903 118.656C137.394 116.901 136.972 114.574 135.948 113.229C134.904 111.919 131.874 110.564 128.603 109.987C126.97 109.711 125.621 109.393 125.594 109.285C125.559 109.151 127.613 108.547 130.131 107.913L134.724 106.755L134.199 105.514C133.936 104.836 133.438 103.816 133.113 103.24C132.601 102.282 132.428 102.182 131.529 102.237C130.166 102.323 125.047 103.957 122.654 105.075C119.52 106.523 116.255 108.491 114.09 110.268C111.773 112.14 108.314 115.416 108.384 115.684C108.411 115.792 109.214 116.162 110.182 116.49C113.751 117.766 116.241 119.771 117.459 122.326C118.226 123.936 118.206 125.115 117.382 126.381C116.366 127.925 114.74 128.707 110.375 129.722L106.509 130.611L105.983 129.598C104.385 126.366 103.112 124.168 102.891 124.224C102.753 124.259 102.58 124.617 102.504 125.009C102.379 125.555 102.524 125.891 103.223 126.659C104.171 127.708 105.748 130.516 105.561 130.821C105.499 130.922 104.247 131.324 102.753 131.7L100.013 132.391L99.7504 133.545C99.4253 134.915 98.9271 140.764 99.0861 141.383C99.183 141.759 100.103 141.556 107.248 139.669Z" fill="url(#paint10_linear_253_198)"/>
<path d="M104.598 160.285C105.428 161.564 106.963 163.639 107.994 164.896C108.693 165.779 109.232 166.158 109.806 166.213C111.964 166.356 114.683 168.676 115.789 171.259C116.191 172.246 116.626 172.565 119.296 174.01C123.239 176.165 128.026 177.82 128.648 177.262C129.437 176.549 130.474 174.169 130.592 172.794C130.945 168.212 128.407 160.866 124.838 156.157C124.215 155.34 123.689 154.557 123.655 154.423C123.627 154.315 126.062 153.587 129.078 152.827L134.584 151.439L135.919 151.932C137.918 152.716 139.841 155.036 140.664 157.662C141.224 159.496 141.238 159.893 140.857 161.62C140.173 164.798 140.968 166.859 143.541 168.5C144.918 169.383 146.017 169.764 148.909 170.352L152.547 171.095L147.781 172.382C142.379 173.83 142.725 173.457 144.094 176.145C145.353 178.633 145.263 178.627 149.586 177.337C157.119 175.123 162.93 171.597 168.27 166.015L169.619 164.616L167.682 163.96C163.649 162.601 160.744 160.013 159.997 157.11C159.562 155.417 160.025 154.127 161.485 152.929C162.529 152.065 163.089 151.838 166.942 150.78L171.203 149.592L172.649 152.462C173.417 154.071 174.261 155.633 174.489 155.947L174.869 156.51L175.25 155.698L175.63 154.887L174.357 153.376C173.673 152.547 172.856 151.322 172.594 150.644L172.075 149.429L174.98 148.697L177.885 147.965L178.238 145.786C178.674 143.015 178.833 139.512 178.557 139.123C178.28 138.735 167.835 141.196 164.307 142.486C160.24 143.97 158.455 145.965 157.992 149.545C157.826 150.846 157.957 151.929 158.586 154.833C159.541 159 160.952 162.193 163.386 165.701C164.168 166.792 164.804 167.776 164.839 167.911C164.867 168.018 162.376 168.76 159.305 169.535L153.716 170.943L151.904 169.855C150.444 168.992 149.856 168.425 149.047 167.112C147.546 164.714 147.194 163.114 147.699 160.726C148.051 159.006 148.017 158.528 147.54 157.017C147.104 155.667 146.737 155.044 145.976 154.377C144.794 153.33 141.446 152.113 138.513 151.708C137.378 151.536 136.41 151.322 136.375 151.187C136.348 151.08 138.402 150.476 140.92 149.841L145.541 148.677L145.008 147.408C143.957 144.811 142.988 143.567 141.273 142.626C140.312 142.095 139.115 141.682 138.43 141.654C137.566 141.614 133.754 142.489 125.149 144.658L113.086 147.699L114.289 152.376L115.499 157.079L117.159 157.348C122.928 158.355 127.611 161.554 128.593 165.141C129.084 166.935 128.704 167.975 127.03 169.37C125.916 170.309 125.57 170.454 121.558 171.465L117.27 172.546L116.211 170.38C112.193 162.321 108.478 158.534 104.397 158.361C103.858 158.325 103.761 158.407 103.927 158.938C104.017 159.287 104.314 159.87 104.598 160.285Z" fill="url(#paint11_linear_253_198)"/>
<path d="M104.598 160.285C105.428 161.564 106.963 163.639 107.994 164.896C108.693 165.779 109.232 166.158 109.806 166.213C111.964 166.356 114.683 168.676 115.789 171.259C116.191 172.246 116.626 172.565 119.296 174.01C123.239 176.165 128.026 177.82 128.648 177.262C129.437 176.549 130.474 174.169 130.592 172.794C130.945 168.212 128.407 160.866 124.838 156.157C124.215 155.34 123.689 154.557 123.655 154.423C123.627 154.315 126.062 153.587 129.078 152.827L134.584 151.439L135.919 151.932C137.918 152.716 139.841 155.036 140.664 157.662C141.224 159.496 141.238 159.893 140.857 161.62C140.173 164.798 140.968 166.859 143.541 168.5C144.918 169.383 146.017 169.764 148.909 170.352L152.547 171.095L147.781 172.382C142.379 173.83 142.725 173.457 144.094 176.145C145.353 178.633 145.263 178.627 149.586 177.337C157.119 175.123 162.93 171.597 168.27 166.015L169.619 164.616L167.682 163.96C163.649 162.601 160.744 160.013 159.997 157.11C159.562 155.417 160.025 154.127 161.485 152.929C162.529 152.065 163.089 151.838 166.942 150.78L171.203 149.592L172.649 152.462C173.417 154.071 174.261 155.633 174.489 155.947L174.869 156.51L175.25 155.698L175.63 154.887L174.357 153.376C173.673 152.547 172.856 151.322 172.594 150.644L172.075 149.429L174.98 148.697L177.885 147.965L178.238 145.786C178.674 143.015 178.833 139.512 178.557 139.123C178.28 138.735 167.835 141.196 164.307 142.486C160.24 143.97 158.455 145.965 157.992 149.545C157.826 150.846 157.957 151.929 158.586 154.833C159.541 159 160.952 162.193 163.386 165.701C164.168 166.792 164.804 167.776 164.839 167.911C164.867 168.018 162.376 168.76 159.305 169.535L153.716 170.943L151.904 169.855C150.444 168.992 149.856 168.425 149.047 167.112C147.546 164.714 147.194 163.114 147.699 160.726C148.051 159.006 148.017 158.528 147.54 157.017C147.104 155.667 146.737 155.044 145.976 154.377C144.794 153.33 141.446 152.113 138.513 151.708C137.378 151.536 136.41 151.322 136.375 151.187C136.348 151.08 138.402 150.476 140.92 149.841L145.541 148.677L145.008 147.408C143.957 144.811 142.988 143.567 141.273 142.626C140.312 142.095 139.115 141.682 138.43 141.654C137.566 141.614 133.754 142.489 125.149 144.658L113.086 147.699L114.289 152.376L115.499 157.079L117.159 157.348C122.928 158.355 127.611 161.554 128.593 165.141C129.084 166.935 128.704 167.975 127.03 169.37C125.916 170.309 125.57 170.454 121.558 171.465L117.27 172.546L116.211 170.38C112.193 162.321 108.478 158.534 104.397 158.361C103.858 158.325 103.761 158.407 103.927 158.938C104.017 159.287 104.314 159.87 104.598 160.285Z" fill="url(#paint12_linear_253_198)"/>
<path d="M188.102 161.745L192.935 164.043C194.159 164.625 194.474 165.527 193.878 166.748L192.163 170.264L191.559 170.568L191.177 170.386L193.144 166.354C193.46 165.706 193.297 165.23 192.656 164.925L187.577 162.51C186.936 162.205 186.457 162.376 186.141 163.024L184.174 167.056L183.792 166.875L183.656 166.219L185.371 162.703C185.967 161.482 186.877 161.163 188.102 161.745Z" fill="url(#paint13_linear_253_198)"/>
<path d="M179.69 173.096L186.575 179.529L185.946 180.196L179.061 173.762L179.69 173.096Z" fill="url(#paint14_linear_253_198)"/>
<path d="M180.256 185.628L180.718 186.322L174.601 190.401L174.139 189.708L176.822 187.918L172.056 180.767L172.807 180.267L177.573 187.418L180.256 185.628Z" fill="url(#paint15_linear_253_198)"/>
<path d="M165.706 185.105L168.953 193.96L163.269 196.079L162.982 195.296L167.808 193.497L166.702 190.481L162.261 192.137L161.978 191.367L166.42 189.711L165.135 186.207L160.31 188.006L160.022 187.224L165.706 185.105ZM167.169 195.763L166.202 198.166L165.489 197.848L166.561 195.494L167.169 195.763Z" fill="url(#paint16_linear_253_198)"/>
<path d="M151.638 194.376L152.151 196.812L149.816 197.323L149.304 194.887L151.638 194.376Z" fill="url(#paint17_linear_253_198)"/>
<path d="M125.075 91.8909L124.545 89.4596L126.876 88.9313L127.406 91.3626L125.075 91.8909Z" fill="url(#paint18_linear_253_198)"/>
<path d="M139.847 192.383L139.365 201.819L134.95 201.643C133.596 201.589 132.954 200.882 133.024 199.524L133.1 198.033C133.161 196.839 133.721 196.199 134.782 196.114L133.117 192.347L133.252 192.12L134.001 192.15L135.765 196.112L138.736 196.231L138.934 192.347L139.847 192.383ZM138.694 197.051L135.137 196.909C134.428 196.881 134.056 197.226 134.019 197.947L133.93 199.697C133.893 200.408 134.229 200.778 134.938 200.806L138.494 200.948L138.694 197.051Z" fill="url(#paint19_linear_253_198)"/>
<path d="M123.616 191.663L116.822 198.723L115.408 198.081L116.433 188.403L116.65 188.26L117.332 188.57L117.023 191.199L121.08 193.04L122.902 191.098L123.572 191.402L123.616 191.663ZM120.459 193.662L116.936 192.063L116.307 197.571L116.629 197.718L120.459 193.662Z" fill="url(#paint20_linear_253_198)"/>
<path d="M111.807 187.689L107.705 193.865L106.941 193.367L111.118 187.076C111.512 186.482 111.409 185.99 110.808 185.597L108.275 183.945C107.681 183.557 107.187 183.661 106.793 184.254L102.616 190.545L101.851 190.046L105.953 183.87C106.706 182.736 107.649 182.538 108.783 183.278L111.236 184.879C112.37 185.618 112.56 186.555 111.807 187.689Z" fill="url(#paint21_linear_253_198)"/>
<path d="M98.9964 186.689L98.3813 187.254L93.3998 181.87L94.0149 181.305L96.2001 183.667L102.543 177.838L103.154 178.498L96.8112 184.327L98.9964 186.689Z" fill="url(#paint22_linear_253_198)"/>
<path d="M97.9835 173.122L89.8069 177.839L89.3513 177.046L92.859 175.022L90.2819 170.537L86.7743 172.56L86.3187 171.768L94.4952 167.051L94.9508 167.844L90.9929 170.127L93.57 174.612L97.5279 172.329L97.9835 173.122Z" fill="url(#paint23_linear_253_198)"/>
<path d="M91.9995 162.222L83.0021 165.037L81.228 159.234L82.0235 158.985L83.5298 163.913L86.5942 162.954L85.2077 158.419L85.99 158.174L87.3766 162.709L90.9364 161.596L89.43 156.668L90.2254 156.419L91.9995 162.222Z" fill="url(#paint24_linear_253_198)"/>
<path d="M89.0741 151.379L79.7872 152.957L79.6243 151.944L86.7342 145.339L78.7797 146.69L78.6364 145.799L87.9233 144.222L88.084 145.221L80.9742 151.825L88.9286 150.474L89.0741 151.379Z" fill="url(#paint25_linear_253_198)"/>
<path d="M79.1695 139L78.3549 138.834L79.9123 131.629L80.7269 131.795L80.0437 134.956L88.4434 136.67L88.2523 137.554L79.8527 135.839L79.1695 139Z" fill="url(#paint26_linear_253_198)"/>
<path d="M90.5833 127.88L81.6812 124.857L81.9861 123.99L90.8882 127.014L90.5833 127.88Z" fill="url(#paint27_linear_253_198)"/>
<path d="M91.6096 119.454L86.9674 116.813C85.7911 116.144 85.5448 115.22 86.2287 114.043L88.1976 110.654L88.8214 110.394L89.1885 110.603L86.9304 114.49C86.5678 115.114 86.6944 115.601 87.3102 115.951L92.1892 118.727C92.805 119.077 93.2942 118.94 93.6568 118.316L95.9149 114.429L96.282 114.638L96.3688 115.302L94.3998 118.692C93.716 119.869 92.7859 120.123 91.6096 119.454Z" fill="url(#paint28_linear_253_198)"/>
<path d="M100.018 109.313L92.996 103.057L93.6103 102.375L100.632 108.631L100.018 109.313Z" fill="url(#paint29_linear_253_198)"/>
<path d="M97.5111 98.2887L96.9783 97.6498L102.646 92.9438L103.178 93.5826L100.692 95.647L106.187 102.234L105.492 102.812L99.9971 96.2243L97.5111 98.2887Z" fill="url(#paint30_linear_253_198)"/>
<path d="M112.843 96.6435L109.275 87.9195L114.883 85.5958L115.198 86.3671L110.437 88.3401L111.652 91.3113L116.034 89.4953L116.344 90.2539L111.962 92.0699L113.374 95.5216L118.135 93.5485L118.45 94.3198L112.843 96.6435ZM110.994 86.0541L111.874 83.6193L112.598 83.9105L111.612 86.3008L110.994 86.0541Z" fill="url(#paint31_linear_253_198)"/>
<defs>
<filter id="filter0_b_253_198" x="39.8685" y="39.4538" width="199.398" height="199.398" filterUnits="userSpaceOnUse" color-interpolation-filters="sRGB">
<feFlood flood-opacity="0" result="BackgroundImageFix"/>
<feGaussianBlur in="BackgroundImageFix" stdDeviation="10.2488"/>
<feComposite in2="SourceAlpha" operator="in" result="effect1_backgroundBlur_253_198"/>
<feBlend mode="normal" in="SourceGraphic" in2="effect1_backgroundBlur_253_198" result="shape"/>
</filter>
<filter id="filter1_b_253_198" x="79.281" y="80.1532" width="119.654" height="119.654" filterUnits="userSpaceOnUse" color-interpolation-filters="sRGB">
<feFlood flood-opacity="0" result="BackgroundImageFix"/>
<feGaussianBlur in="BackgroundImageFix" stdDeviation="10.2488"/>
<feComposite in2="SourceAlpha" operator="in" result="effect1_backgroundBlur_253_198"/>
<feBlend mode="normal" in="SourceGraphic" in2="effect1_backgroundBlur_253_198" result="shape"/>
</filter>
<linearGradient id="paint0_linear_253_198" x1="140.754" y1="76.2288" x2="139.901" y2="96.6955" gradientUnits="userSpaceOnUse">
<stop stop-color="#8A0002"/>
<stop offset="1" stop-color="#E04047"/>
</linearGradient>
<linearGradient id="paint1_linear_253_198" x1="160.35" y1="80.879" x2="153.246" y2="100.169" gradientUnits="userSpaceOnUse">
<stop stop-color="#8A0002"/>
<stop offset="1" stop-color="#E04047"/>
</linearGradient>
<linearGradient id="paint2_linear_253_198" x1="172.805" y1="86.9531" x2="162.851" y2="104.975" gradientUnits="userSpaceOnUse">
<stop stop-color="#8A0002"/>
<stop offset="1" stop-color="#E04047"/>
</linearGradient>
<linearGradient id="paint3_linear_253_198" x1="183.03" y1="94.5992" x2="168.963" y2="109.682" gradientUnits="userSpaceOnUse">
<stop stop-color="#8A0002"/>
<stop offset="1" stop-color="#E04047"/>
</linearGradient>
<linearGradient id="paint4_linear_253_198" x1="191.907" y1="104.523" x2="174.82" y2="116.094" gradientUnits="userSpaceOnUse">
<stop stop-color="#8A0002"/>
<stop offset="1" stop-color="#E04047"/>
</linearGradient>
<linearGradient id="paint5_linear_253_198" x1="199.019" y1="117.611" x2="179.792" y2="125.075" gradientUnits="userSpaceOnUse">
<stop stop-color="#8A0002"/>
<stop offset="1" stop-color="#E04047"/>
</linearGradient>
<linearGradient id="paint6_linear_253_198" x1="202.923" y1="130.716" x2="182.873" y2="135.472" gradientUnits="userSpaceOnUse">
<stop stop-color="#8A0002"/>
<stop offset="1" stop-color="#E04047"/>
</linearGradient>
<linearGradient id="paint7_linear_253_198" x1="203.784" y1="146.813" x2="183.456" y2="143.949" gradientUnits="userSpaceOnUse">
<stop stop-color="#8A0002"/>
<stop offset="1" stop-color="#E04047"/>
</linearGradient>
<linearGradient id="paint8_linear_253_198" x1="201.873" y1="157.428" x2="182.093" y2="152.043" gradientUnits="userSpaceOnUse">
<stop stop-color="#8A0002"/>
<stop offset="1" stop-color="#E04047"/>
</linearGradient>
<linearGradient id="paint9_linear_253_198" x1="3.22667" y1="102.546" x2="167.7" y2="230.696" gradientUnits="userSpaceOnUse">
<stop stop-color="#E04047"/>
<stop offset="1" stop-color="#8A0002"/>
</linearGradient>
<linearGradient id="paint10_linear_253_198" x1="86.0062" y1="152.522" x2="92.8673" y2="96.197" gradientUnits="userSpaceOnUse">
<stop stop-color="#8A0002"/>
<stop offset="1" stop-color="#E04047"/>
</linearGradient>
<linearGradient id="paint11_linear_253_198" x1="13.7977" y1="140.766" x2="178.357" y2="268.292" gradientUnits="userSpaceOnUse">
<stop stop-color="#E04047"/>
<stop offset="1" stop-color="#8A0002"/>
</linearGradient>
<linearGradient id="paint12_linear_253_198" x1="96.2673" y1="190.856" x2="103.229" y2="134.555" gradientUnits="userSpaceOnUse">
<stop stop-color="#8A0002"/>
<stop offset="1" stop-color="#E04047"/>
</linearGradient>
<linearGradient id="paint13_linear_253_198" x1="197.132" y1="170.493" x2="178.745" y2="161.523" gradientUnits="userSpaceOnUse">
<stop stop-color="#8A0002"/>
<stop offset="1" stop-color="#E04047"/>
</linearGradient>
<linearGradient id="paint14_linear_253_198" x1="189.203" y1="183.4" x2="174.359" y2="169.392" gradientUnits="userSpaceOnUse">
<stop stop-color="#8A0002"/>
<stop offset="1" stop-color="#E04047"/>
</linearGradient>
<linearGradient id="paint15_linear_253_198" x1="179.234" y1="192.805" x2="167.916" y2="175.833" gradientUnits="userSpaceOnUse">
<stop stop-color="#8A0002"/>
<stop offset="1" stop-color="#E04047"/>
</linearGradient>
<linearGradient id="paint16_linear_253_198" x1="166.874" y1="199.615" x2="159.742" y2="180.488" gradientUnits="userSpaceOnUse">
<stop stop-color="#8A0002"/>
<stop offset="1" stop-color="#E04047"/>
</linearGradient>
<linearGradient id="paint17_linear_253_198" x1="152.197" y1="204.829" x2="147.829" y2="184.868" gradientUnits="userSpaceOnUse">
<stop stop-color="#8A0002"/>
<stop offset="1" stop-color="#E04047"/>
</linearGradient>
<linearGradient id="paint18_linear_253_198" x1="124.438" y1="81.4435" x2="128.954" y2="101.37" gradientUnits="userSpaceOnUse">
<stop stop-color="#8A0002"/>
<stop offset="1" stop-color="#E04047"/>
</linearGradient>
<linearGradient id="paint19_linear_253_198" x1="135.251" y1="206.238" x2="136.069" y2="185.771" gradientUnits="userSpaceOnUse">
<stop stop-color="#8A0002"/>
<stop offset="1" stop-color="#E04047"/>
</linearGradient>
<linearGradient id="paint20_linear_253_198" x1="113.365" y1="202.189" x2="121.868" y2="183.456" gradientUnits="userSpaceOnUse">
<stop stop-color="#8A0002"/>
<stop offset="1" stop-color="#E04047"/>
</linearGradient>
<linearGradient id="paint21_linear_253_198" x1="101.397" y1="195.223" x2="112.654" y2="177.969" gradientUnits="userSpaceOnUse">
<stop stop-color="#8A0002"/>
<stop offset="1" stop-color="#E04047"/>
</linearGradient>
<linearGradient id="paint22_linear_253_198" x1="91.7663" y1="186.85" x2="106.91" y2="172.839" gradientUnits="userSpaceOnUse">
<stop stop-color="#8A0002"/>
<stop offset="1" stop-color="#E04047"/>
</linearGradient>
<linearGradient id="paint23_linear_253_198" x1="83.6454" y1="176.301" x2="101.538" y2="166.021" gradientUnits="userSpaceOnUse">
<stop stop-color="#8A0002"/>
<stop offset="1" stop-color="#E04047"/>
</linearGradient>
<linearGradient id="paint24_linear_253_198" x1="77.5153" y1="162.722" x2="97.2301" y2="156.695" gradientUnits="userSpaceOnUse">
<stop stop-color="#8A0002"/>
<stop offset="1" stop-color="#E04047"/>
</linearGradient>
<linearGradient id="paint25_linear_253_198" x1="74.5833" y1="149.357" x2="94.9159" y2="146.089" gradientUnits="userSpaceOnUse">
<stop stop-color="#8A0002"/>
<stop offset="1" stop-color="#E04047"/>
</linearGradient>
<linearGradient id="paint26_linear_253_198" x1="74.9024" y1="133.228" x2="94.9514" y2="137.562" gradientUnits="userSpaceOnUse">
<stop stop-color="#8A0002"/>
<stop offset="1" stop-color="#E04047"/>
</linearGradient>
<linearGradient id="paint27_linear_253_198" x1="77.5831" y1="122.772" x2="96.9037" y2="129.574" gradientUnits="userSpaceOnUse">
<stop stop-color="#8A0002"/>
<stop offset="1" stop-color="#E04047"/>
</linearGradient>
<linearGradient id="paint28_linear_253_198" x1="83.2629" y1="110.076" x2="100.94" y2="120.345" gradientUnits="userSpaceOnUse">
<stop stop-color="#8A0002"/>
<stop offset="1" stop-color="#E04047"/>
</linearGradient>
<linearGradient id="paint29_linear_253_198" x1="90.2817" y1="99.2584" x2="105.45" y2="112.918" gradientUnits="userSpaceOnUse">
<stop stop-color="#8A0002"/>
<stop offset="1" stop-color="#E04047"/>
</linearGradient>
<linearGradient id="paint30_linear_253_198" x1="97.7721" y1="91.061" x2="110.806" y2="106.756" gradientUnits="userSpaceOnUse">
<stop stop-color="#8A0002"/>
<stop offset="1" stop-color="#E04047"/>
</linearGradient>
<linearGradient id="paint31_linear_253_198" x1="111.148" y1="82.1975" x2="118.961" y2="101.052" gradientUnits="userSpaceOnUse">
<stop stop-color="#8A0002"/>
<stop offset="1" stop-color="#E04047"/>
</linearGradient>
</defs>
</svg>
