<svg width="179" height="178" viewBox="0 0 179 178" fill="none" xmlns="http://www.w3.org/2000/svg">
<g filter="url(#filter0_b_152_823)">
<circle cx="89.6654" cy="88.7411" r="62.7739" transform="rotate(43.4014 89.6654 88.7411)" fill="#E8EDDF" fill-opacity="0.05"/>
<circle cx="89.6654" cy="88.7411" r="62.3468" transform="rotate(43.4014 89.6654 88.7411)" stroke="#FBFFF5" stroke-width="0.854066"/>
</g>
<g filter="url(#filter1_b_152_823)">
<circle cx="89.6652" cy="88.7411" r="31.1734" transform="rotate(43.4014 89.6652 88.7411)" fill="#F5E3E3"/>
</g>
<path d="M99.036 77.6665C99.7471 77.3147 100.512 78.0379 100.2 78.7675L98.6506 82.3951C98.4191 82.9371 98.7932 83.5451 99.3813 83.5829L103.318 83.8356C104.11 83.8864 104.41 84.8952 103.776 85.3712L100.62 87.738C100.148 88.0917 100.168 88.8053 100.659 89.132L103.942 91.3192C104.602 91.7591 104.358 92.783 103.57 92.8779L99.6539 93.3498C99.0688 93.4203 98.7292 94.0483 98.9906 94.5765L100.74 98.1121C101.092 98.8231 100.369 99.5879 99.6391 99.2762L96.0115 97.7267C95.4695 97.4952 94.8614 97.8692 94.8237 98.4574L94.5709 102.394C94.5201 103.186 93.5114 103.486 93.0354 102.852L90.6685 99.696C90.3149 99.2245 89.6013 99.2444 89.2745 99.7349L87.0874 103.018C86.6475 103.678 85.6236 103.434 85.5287 102.646L85.0568 98.73C84.9863 98.1448 84.3583 97.8053 83.8301 98.0667L80.2945 99.8161C79.5834 100.168 78.8187 99.4447 79.1303 98.7152L80.6799 95.0875C80.9114 94.5455 80.5373 93.9375 79.9492 93.8997L76.0125 93.647C75.2208 93.5962 74.9201 92.5875 75.5548 92.1114L78.7106 89.7446C79.1821 89.391 79.1621 88.6774 78.6717 88.3506L75.3888 86.1634C74.7286 85.7235 74.9725 84.6996 75.7602 84.6047L79.6766 84.1328C80.2617 84.0623 80.6013 83.4344 80.3399 82.9061L78.5904 79.3706C78.2386 78.6595 78.9618 77.8948 79.6914 78.2064L83.319 79.7559C83.861 79.9874 84.4691 79.6134 84.5068 79.0252L84.7596 75.0886C84.8104 74.2969 85.8191 73.9962 86.2951 74.6309L88.662 77.7866C89.0156 78.2581 89.7292 78.2382 90.056 77.7477L92.2431 74.4649C92.683 73.8046 93.7069 74.0486 93.8018 74.8363L94.2737 78.7526C94.3442 79.3378 94.9722 79.6773 95.5004 79.416L99.036 77.6665Z" fill="url(#paint0_linear_152_823)"/>
<path d="M120.544 119.357L126.32 126.81L125.316 127.588L118.416 124.084L120.098 131.631L119.094 132.41L113.318 124.957L114.042 124.396L119.073 130.887L117.432 123.55L118.155 122.989L124.851 126.409L119.821 119.918L120.544 119.357Z" fill="#8A0002"/>
<path d="M110.665 127.069L111.157 136.801L109.712 137.384L103.327 130.028L103.372 129.774L104.069 129.493L105.783 131.513L109.927 129.842L109.759 127.198L110.444 126.922L110.665 127.069ZM109.955 130.715L106.355 132.166L109.958 136.386L110.287 136.253L109.955 130.715Z" fill="#8A0002"/>
<path d="M102.377 139.174L102.506 139.997L95.2423 141.134L95.1135 140.31L98.2997 139.812L96.9709 131.32L97.8619 131.18L99.1907 139.672L102.377 139.174Z" fill="#8A0002"/>
<path d="M90.8226 132.092L90.2291 141.502L84.1739 141.12L84.2263 140.289L89.3678 140.613L89.57 137.408L84.8376 137.109L84.8892 136.291L89.6216 136.59L89.8564 132.866L84.7149 132.542L84.7673 131.71L90.8226 132.092Z" fill="#8A0002"/>
<path d="M81.493 131.358L78.7933 140.392L74.5512 139.124C73.2506 138.735 72.7947 137.891 73.1833 136.59L73.6098 135.163C73.9515 134.02 74.6469 133.538 75.6959 133.719L74.9717 129.651L75.156 129.464L75.8761 129.679L76.6503 133.961L79.5046 134.814L80.6158 131.096L81.493 131.358ZM79.2698 135.599L75.8526 134.578C75.1718 134.375 74.7283 134.618 74.5222 135.307L74.0214 136.983C73.818 137.664 74.0566 138.106 74.7375 138.31L78.1547 139.331L79.2698 135.599Z" fill="#8A0002"/>
<path d="M71.6932 127.998L67.3901 136.388L66.5755 135.97L70.8786 127.58L71.6932 127.998Z" fill="#8A0002"/>
<path d="M67.6281 126.411L59.4805 131.757L58.2472 130.806L61.3643 121.577L61.606 121.488L62.201 121.947L61.3248 124.447L64.8624 127.177L67.0585 125.695L67.6426 126.146L67.6281 126.411ZM64.1235 127.642L61.0511 125.271L59.2325 130.513L59.5137 130.73L64.1235 127.642Z" fill="#8A0002"/>
<path d="M58.9425 119.086L51.6245 125.032L51.0472 124.321L57.7182 118.901L54.7281 115.221L55.3751 114.695L58.9425 119.086Z" fill="#8A0002"/>
<path d="M50.6293 106.852L41.7248 109.952L40.2689 105.771C39.8225 104.489 40.2403 103.625 41.5222 103.179L42.9288 102.689C44.0559 102.296 44.8534 102.578 45.3213 103.534L48.1945 100.566L48.4544 100.606L48.7015 101.315L45.6836 104.45L46.6632 107.263L50.3282 105.987L50.6293 106.852ZM45.8889 107.533L44.716 104.165C44.4824 103.494 44.0257 103.276 43.346 103.513L41.6942 104.088C41.0231 104.322 40.8044 104.774 41.0381 105.445L42.211 108.814L45.8889 107.533Z" fill="#8A0002"/>
<path d="M47.7451 97.9372L38.3786 99.0205L37.6815 92.9934L38.5096 92.8977L39.1015 98.0153L42.2915 97.6463L41.7467 92.9359L42.5612 92.8417L43.106 97.5521L46.8118 97.1235L46.2199 92.0059L47.048 91.9101L47.7451 97.9372Z" fill="#8A0002"/>
<path d="M44.8245 88.5373L39.4962 87.9862C38.146 87.8465 37.5407 87.1016 37.6804 85.7514L38.1105 81.5921L38.5717 81.1178L38.9931 81.1613L38.5053 85.878C38.4313 86.5938 38.7476 86.9883 39.4545 87.0614L45.0546 87.6406C45.7614 87.7137 46.1518 87.3923 46.2259 86.6764L46.6476 82.5987L42.9368 82.2149L42.6838 84.6616L41.8682 84.5772L42.2155 81.2198L47.5709 81.7737L47.0592 86.7214C46.9196 88.0716 46.1747 88.6769 44.8245 88.5373Z" fill="#8A0002"/>
<path d="M48.0212 79.2921L39.0823 76.2921L39.3736 75.4241L48.3125 78.4241L48.0212 79.2921Z" fill="#8A0002"/>
<path d="M47.0456 74.6722L46.6853 74.4494L48.8986 70.8695C49.2723 70.2651 49.157 69.7761 48.5526 69.4024L47.5762 68.7988C47.0726 68.4874 46.6353 68.5276 46.2645 68.9196L44.1605 71.1532C43.4804 71.8895 42.6638 71.963 41.7107 71.3737L41.1063 71C39.9517 70.2862 39.7314 69.352 40.4452 68.1975L42.213 65.3382L42.8347 65.1121L43.1951 65.3349L41.1326 68.6707C40.7542 69.2829 40.8671 69.7758 41.4715 70.1494L42.2735 70.6453C42.7849 70.9615 43.2261 70.9236 43.5969 70.5317L45.6848 68.272C46.3679 67.5483 47.1821 67.4787 48.1274 68.0631L48.9178 68.5518C50.0724 69.2656 50.2927 70.1998 49.5789 71.3544L47.6746 74.4344L47.0456 74.6722Z" fill="#8A0002"/>
<path d="M44.1842 61.1572L43.6057 60.557L48.8991 55.455L49.4775 56.0552L47.1556 58.2932L53.1205 64.4819L52.4711 65.1078L46.5062 58.9191L44.1842 61.1572Z" fill="#8A0002"/>
<path d="M57.3437 58.0931L52.734 49.8678L56.5963 47.7033C57.7805 47.0397 58.7043 47.3 59.3679 48.4841L60.0961 49.7834C60.6796 50.8245 60.5415 51.659 59.682 52.2869L63.107 54.5969L63.1133 54.8597L62.4576 55.2271L58.8438 52.8037L56.2451 54.26L58.1423 57.6455L57.3437 58.0931ZM55.8442 53.5448L58.9555 51.8012C59.5754 51.4538 59.7094 50.9662 59.3576 50.3383L58.5025 48.8125C58.1551 48.1926 57.6714 48.0564 57.0515 48.4038L53.9402 50.1474L55.8442 53.5448Z" fill="#8A0002"/>
<path d="M66.229 50.3837L63.6102 45.7108C62.9466 44.5267 63.2069 43.6028 64.391 42.9392L67.1924 41.3693C68.3765 40.7057 69.3004 40.9659 69.964 42.1501L72.5828 46.823C73.2464 48.0071 72.9861 48.931 71.802 49.5946L69.0006 51.1645C67.8165 51.8281 66.8926 51.5679 66.229 50.3837ZM67.0945 50.0553C67.4419 50.6752 67.9295 50.8092 68.5574 50.4574L71.4422 48.8407C72.062 48.4933 72.1983 48.0097 71.8509 47.3898L69.0985 42.4784C68.7511 41.8586 68.2675 41.7223 67.6476 42.0697L64.7628 43.6864C64.1349 44.0383 63.9947 44.5241 64.3421 45.144L67.0945 50.0553Z" fill="#8A0002"/>
<path d="M79.0452 44.0678L78.6159 41.6181L80.9714 41.2054L81.4007 43.6551L79.0452 44.0678Z" fill="#8A0002"/>
<path d="M91.0219 46.053L95.5826 37.4411L97.122 37.6803L98.8401 47.2682L98.6715 47.4633L97.9288 47.3478L97.4913 44.7353L93.0759 44.049L91.866 46.4055L91.1369 46.2922L91.0219 46.053ZM93.4988 43.285L97.3337 43.881L96.3998 38.4117L96.0487 38.3571L93.4988 43.285Z" fill="#8A0002"/>
<path d="M102.153 48.2043L105.779 39.5006L109.866 41.2035C111.119 41.7255 111.485 42.6131 110.963 43.866L110.285 45.4932C109.766 46.7378 108.88 47.0991 107.627 46.577L104.386 45.2263L102.998 48.5564L102.153 48.2043ZM104.701 44.4695L107.993 45.8412C108.649 46.1145 109.115 45.919 109.392 45.2546L110.17 43.3878C110.443 42.7318 110.252 42.2672 109.596 41.9939L106.304 40.6222L104.701 44.4695Z" fill="#8A0002"/>
<path d="M111.2 52.1134L116.757 44.4965L120.334 47.1061C121.43 47.9062 121.579 48.8545 120.778 49.951L119.901 51.1543C119.197 52.1183 118.381 52.3405 117.452 51.8206L116.779 55.8966L116.542 56.0117L115.935 55.5687L116.633 51.2738L114.227 49.5179L111.939 52.653L111.2 52.1134ZM114.71 48.8556L117.591 50.9578C118.165 51.3766 118.664 51.2954 119.088 50.714L120.119 49.301C120.538 48.7269 120.461 48.2305 119.887 47.8117L117.005 45.7095L114.71 48.8556Z" fill="#8A0002"/>
<path d="M121.087 57.0398L125.219 53.6301C126.266 52.7661 127.221 52.8575 128.085 53.9044L130.129 56.3812C130.993 57.4281 130.902 58.3835 129.855 59.2475L125.723 62.6572C124.676 63.5212 123.721 63.4298 122.857 62.3829L120.813 59.9062C119.949 58.8593 120.04 57.9038 121.087 57.0398ZM121.565 57.8329C121.017 58.2852 120.972 58.7889 121.43 59.344L123.535 61.8945C123.987 62.4425 124.487 62.4904 125.035 62.0381L129.377 58.4544C129.925 58.0021 129.973 57.502 129.521 56.9539L127.416 54.4034C126.958 53.8483 126.455 53.797 125.907 54.2493L121.565 57.8329Z" fill="#8A0002"/>
<path d="M134.264 62.1153L134.526 62.1574L134.848 62.8364L128.29 69.0646L128.442 69.3856L137.415 68.2437L137.737 68.9227L137.598 69.1399L127.965 70.3232L127.262 68.8417L134.264 62.1153Z" fill="#8A0002"/>
<path d="M130.643 75.383L140.306 76.6478L140.619 78.1738L132.236 83.1331L131.994 83.0433L131.843 82.3071L134.138 80.9845L133.238 76.6075L130.608 76.2971L130.459 75.5743L130.643 75.383ZM134.102 76.7369L134.883 80.5383L139.682 77.7526L139.61 77.4046L134.102 76.7369Z" fill="#8A0002"/>
<path d="M132.537 86.2398L141.958 86.6278L141.805 90.3552C141.715 92.5397 140.573 93.5868 138.379 93.4965L135.539 93.3796C133.346 93.2892 132.294 92.1518 132.384 89.9672L132.537 86.2398ZM133.332 87.1889L133.214 90.0561C133.151 91.5944 133.888 92.3953 135.427 92.4586L138.567 92.5879C140.105 92.6512 140.906 91.9138 140.969 90.3755L141.088 87.5082L133.332 87.1889Z" fill="#8A0002"/>
<path d="M133.879 97.7419L139 99.3136C140.297 99.7119 140.747 100.56 140.349 101.858L139.406 104.927C139.008 106.225 138.16 106.675 136.862 106.277L131.741 104.705C130.444 104.306 129.994 103.458 130.392 102.161L131.335 99.0909C131.733 97.7932 132.581 97.3436 133.879 97.7419ZM133.479 98.577C132.8 98.3685 132.355 98.6083 132.144 99.2963L131.173 102.458C130.965 103.137 131.2 103.581 131.88 103.789L137.262 105.441C137.941 105.65 138.385 105.414 138.593 104.735L139.564 101.574C139.775 100.886 139.541 100.437 138.862 100.229L133.479 98.577Z" fill="#8A0002"/>
<path d="M128.518 114.739L130.516 116.22L129.092 118.141L127.094 116.66L128.518 114.739Z" fill="#8A0002"/>
<defs>
<filter id="filter0_b_152_823" x="6.39377" y="5.46969" width="166.543" height="166.543" filterUnits="userSpaceOnUse" color-interpolation-filters="sRGB">
<feFlood flood-opacity="0" result="BackgroundImageFix"/>
<feGaussianBlur in="BackgroundImageFix" stdDeviation="10.2488"/>
<feComposite in2="SourceAlpha" operator="in" result="effect1_backgroundBlur_152_823"/>
<feBlend mode="normal" in="SourceGraphic" in2="effect1_backgroundBlur_152_823" result="shape"/>
</filter>
<filter id="filter1_b_152_823" x="37.9941" y="37.0698" width="103.342" height="103.342" filterUnits="userSpaceOnUse" color-interpolation-filters="sRGB">
<feFlood flood-opacity="0" result="BackgroundImageFix"/>
<feGaussianBlur in="BackgroundImageFix" stdDeviation="10.2488"/>
<feComposite in2="SourceAlpha" operator="in" result="effect1_backgroundBlur_152_823"/>
<feBlend mode="normal" in="SourceGraphic" in2="effect1_backgroundBlur_152_823" result="shape"/>
</filter>
<linearGradient id="paint0_linear_152_823" x1="111.592" y1="84.4268" x2="67.0329" y2="91.8974" gradientUnits="userSpaceOnUse">
<stop stop-color="#E04047"/>
<stop offset="1" stop-color="#8A0002"/>
</linearGradient>
</defs>
</svg>
