<svg width="178" height="178" viewBox="0 0 178 178" fill="none" xmlns="http://www.w3.org/2000/svg">
<g filter="url(#filter0_b_220_1070)">
<circle cx="88.7408" cy="88.7411" r="31.1734" transform="rotate(43.4014 88.7408 88.7411)" fill="#F5E3E3" fill-opacity="0.7"/>
</g>
<path d="M119.62 119.357L125.396 126.81L124.391 127.588L117.492 124.084L119.174 131.631L118.17 132.41L112.394 124.957L113.118 124.396L118.148 130.887L116.507 123.55L117.231 122.989L123.927 126.409L118.896 119.918L119.62 119.357Z" fill="url(#paint0_linear_220_1070)"/>
<path d="M109.741 127.069L110.232 136.801L108.788 137.384L102.403 130.028L102.448 129.774L103.145 129.493L104.858 131.513L109.002 129.842L108.835 127.198L109.519 126.922L109.741 127.069ZM109.03 130.715L105.431 132.166L109.034 136.386L109.363 136.253L109.03 130.715Z" fill="url(#paint1_linear_220_1070)"/>
<path d="M101.453 139.174L101.581 139.997L94.318 141.134L94.1892 140.31L97.3753 139.812L96.0466 131.32L96.9376 131.18L98.2664 139.672L101.453 139.174Z" fill="url(#paint2_linear_220_1070)"/>
<path d="M89.8983 132.092L89.3048 141.502L83.2495 141.12L83.302 140.289L88.4435 140.613L88.6456 137.408L83.9133 137.109L83.9649 136.291L88.6973 136.59L88.9321 132.866L83.7905 132.542L83.843 131.71L89.8983 132.092Z" fill="url(#paint3_linear_220_1070)"/>
<path d="M80.5687 131.358L77.869 140.392L73.6269 139.124C72.3263 138.735 71.8703 137.891 72.259 136.59L72.6855 135.163C73.0272 134.02 73.7226 133.538 74.7716 133.719L74.0474 129.651L74.2317 129.464L74.9518 129.679L75.726 133.961L78.5803 134.814L79.6915 131.096L80.5687 131.358ZM78.3455 135.599L74.9283 134.578C74.2474 134.375 73.804 134.618 73.5979 135.307L73.0971 136.983C72.8936 137.664 73.1323 138.106 73.8132 138.31L77.2304 139.331L78.3455 135.599Z" fill="url(#paint4_linear_220_1070)"/>
<path d="M70.7689 127.998L66.4658 136.388L65.6512 135.97L69.9542 127.58L70.7689 127.998Z" fill="url(#paint5_linear_220_1070)"/>
<path d="M66.7038 126.411L58.5562 131.757L57.3229 130.806L60.44 121.577L60.6817 121.488L61.2767 121.947L60.4005 124.447L63.9381 127.177L66.1341 125.695L66.7183 126.146L66.7038 126.411ZM63.1992 127.642L60.1268 125.271L58.3081 130.513L58.5894 130.73L63.1992 127.642Z" fill="url(#paint6_linear_220_1070)"/>
<path d="M58.0182 119.086L50.7002 125.032L50.1228 124.321L56.7939 118.901L53.8038 115.221L54.4508 114.695L58.0182 119.086Z" fill="url(#paint7_linear_220_1070)"/>
<path d="M49.705 106.852L40.8005 109.952L39.3446 105.771C38.8982 104.489 39.3159 103.625 40.5978 103.179L42.0045 102.689C43.1315 102.296 43.929 102.578 44.397 103.534L47.2702 100.566L47.5301 100.606L47.7772 101.315L44.7593 104.45L45.7389 107.263L49.4039 105.987L49.705 106.852ZM44.9646 107.533L43.7917 104.165C43.5581 103.494 43.1014 103.276 42.4217 103.513L40.7699 104.088C40.0988 104.322 39.8801 104.774 40.1138 105.445L41.2866 108.814L44.9646 107.533Z" fill="url(#paint8_linear_220_1070)"/>
<path d="M46.8207 97.9372L37.4543 99.0205L36.7572 92.9934L37.5852 92.8977L38.1771 98.0153L41.3672 97.6463L40.8224 92.9359L41.6368 92.8417L42.1816 97.5521L45.8875 97.1235L45.2956 92.0059L46.1237 91.9101L46.8207 97.9372Z" fill="url(#paint9_linear_220_1070)"/>
<path d="M43.9 88.5373L38.5718 87.9862C37.2216 87.8465 36.6163 87.1016 36.7559 85.7514L37.1861 81.5921L37.6473 81.1178L38.0687 81.1613L37.5809 85.878C37.5068 86.5938 37.8232 86.9883 38.53 87.0614L44.1302 87.6406C44.837 87.7137 45.2274 87.3923 45.3014 86.6764L45.7232 82.5987L42.0124 82.2149L41.7594 84.6616L40.9438 84.5772L41.291 81.2198L46.6465 81.7737L46.1348 86.7214C45.9952 88.0716 45.2502 88.6769 43.9 88.5373Z" fill="url(#paint10_linear_220_1070)"/>
<path d="M47.0968 79.2921L38.158 76.2921L38.4493 75.4241L47.3882 78.4241L47.0968 79.2921Z" fill="url(#paint11_linear_220_1070)"/>
<path d="M46.1213 74.6722L45.761 74.4494L47.9743 70.8695C48.348 70.2651 48.2326 69.7761 47.6283 69.4024L46.6519 68.7988C46.1483 68.4874 45.711 68.5276 45.3402 68.9196L43.2362 71.1532C42.5561 71.8895 41.7394 71.963 40.7864 71.3737L40.182 71C39.0274 70.2862 38.8071 69.352 39.5209 68.1975L41.2887 65.3382L41.9104 65.1121L42.2707 65.3349L40.2083 68.6707C39.8299 69.2829 39.9428 69.7758 40.5472 70.1494L41.3492 70.6453C41.8606 70.9615 42.3017 70.9236 42.6726 70.5317L44.7605 68.272C45.4436 67.5483 46.2578 67.4787 47.2031 68.0631L47.9935 68.5518C49.148 69.2656 49.3684 70.1998 48.6546 71.3544L46.7503 74.4344L46.1213 74.6722Z" fill="url(#paint12_linear_220_1070)"/>
<path d="M43.2599 61.1572L42.6814 60.557L47.9747 55.455L48.5532 56.0552L46.2312 58.2932L52.1962 64.4819L51.5468 65.1078L45.5819 58.9191L43.2599 61.1572Z" fill="url(#paint13_linear_220_1070)"/>
<path d="M56.4192 58.0931L51.8096 49.8678L55.6719 47.7033C56.856 47.0397 57.7799 47.3 58.4435 48.4841L59.1717 49.7834C59.7551 50.8245 59.6171 51.659 58.7576 52.2869L62.1826 54.5969L62.1888 54.8597L61.5332 55.2271L57.9193 52.8037L55.3206 54.26L57.2179 57.6455L56.4192 58.0931ZM54.9198 53.5448L58.0311 51.8012C58.651 51.4538 58.785 50.9662 58.4331 50.3383L57.578 48.8125C57.2306 48.1926 56.747 48.0564 56.1271 48.4038L53.0158 50.1474L54.9198 53.5448Z" fill="url(#paint14_linear_220_1070)"/>
<path d="M65.3047 50.3837L62.6859 45.7108C62.0223 44.5267 62.2826 43.6028 63.4667 42.9392L66.2681 41.3693C67.4522 40.7057 68.3761 40.9659 69.0397 42.1501L71.6585 46.823C72.3221 48.0071 72.0618 48.931 70.8777 49.5946L68.0763 51.1645C66.8922 51.8281 65.9683 51.5679 65.3047 50.3837ZM66.1702 50.0553C66.5176 50.6752 67.0052 50.8092 67.633 50.4574L70.5179 48.8407C71.1377 48.4933 71.274 48.0097 70.9266 47.3898L68.1742 42.4784C67.8268 41.8586 67.3431 41.7223 66.7233 42.0697L63.8385 43.6864C63.2106 44.0383 63.0704 44.5241 63.4178 45.144L66.1702 50.0553Z" fill="url(#paint15_linear_220_1070)"/>
<path d="M78.1208 44.0683L77.6916 41.6186L80.0471 41.2058L80.4763 43.6556L78.1208 44.0683Z" fill="url(#paint16_linear_220_1070)"/>
<path d="M90.0976 46.053L94.6583 37.4411L96.1976 37.6803L97.9158 47.2682L97.7472 47.4633L97.0045 47.3478L96.567 44.7353L92.1515 44.049L90.9417 46.4055L90.2125 46.2922L90.0976 46.053ZM92.5745 43.285L96.4094 43.881L95.4755 38.4117L95.1244 38.3571L92.5745 43.285Z" fill="url(#paint17_linear_220_1070)"/>
<path d="M101.229 48.2043L104.855 39.5006L108.942 41.2035C110.195 41.7255 110.56 42.6131 110.038 43.866L109.36 45.4932C108.842 46.7378 107.956 47.0991 106.703 46.577L103.461 45.2263L102.074 48.5564L101.229 48.2043ZM103.777 44.4695L107.069 45.8412C107.725 46.1145 108.191 45.919 108.468 45.2546L109.246 43.3878C109.519 42.7318 109.328 42.2672 108.672 41.9939L105.38 40.6222L103.777 44.4695Z" fill="url(#paint18_linear_220_1070)"/>
<path d="M110.275 52.1134L115.833 44.4965L119.409 47.1061C120.506 47.9062 120.654 48.8545 119.854 49.951L118.976 51.1543C118.273 52.1183 117.457 52.3405 116.528 51.8206L115.854 55.8966L115.618 56.0117L115.011 55.5687L115.709 51.2738L113.302 49.5179L111.015 52.653L110.275 52.1134ZM113.786 48.8556L116.667 50.9578C117.241 51.3766 117.74 51.2954 118.164 50.714L119.195 49.301C119.614 48.7269 119.536 48.2305 118.962 47.8117L116.081 45.7095L113.786 48.8556Z" fill="url(#paint19_linear_220_1070)"/>
<path d="M120.163 57.0398L124.294 53.6301C125.341 52.7661 126.297 52.8575 127.161 53.9044L129.205 56.3812C130.069 57.4281 129.977 58.3835 128.93 59.2475L124.799 62.6572C123.752 63.5212 122.797 63.4298 121.933 62.3829L119.888 59.9062C119.024 58.8593 119.116 57.9038 120.163 57.0398ZM120.64 57.8329C120.092 58.2852 120.047 58.7889 120.505 59.344L122.61 61.8945C123.063 62.4425 123.563 62.4904 124.111 62.0381L128.453 58.4544C129.001 58.0021 129.049 57.502 128.597 56.9539L126.492 54.4034C126.033 53.8483 125.53 53.797 124.982 54.2493L120.64 57.8329Z" fill="url(#paint20_linear_220_1070)"/>
<path d="M133.34 62.1153L133.602 62.1574L133.924 62.8364L127.366 69.0646L127.518 69.3856L136.49 68.2437L136.813 68.9227L136.674 69.1399L127.04 70.3232L126.337 68.8417L133.34 62.1153Z" fill="url(#paint21_linear_220_1070)"/>
<path d="M129.719 75.383L139.381 76.6478L139.695 78.1738L131.311 83.1331L131.07 83.0433L130.918 82.3071L133.213 80.9845L132.314 76.6075L129.683 76.2971L129.535 75.5743L129.719 75.383ZM133.178 76.7369L133.959 80.5383L138.757 77.7526L138.686 77.4046L133.178 76.7369Z" fill="url(#paint22_linear_220_1070)"/>
<path d="M131.613 86.2398L141.034 86.6278L140.88 90.3552C140.79 92.5397 139.649 93.5868 137.455 93.4965L134.615 93.3796C132.421 93.2892 131.369 92.1518 131.459 89.9672L131.613 86.2398ZM132.408 87.1889L132.29 90.0561C132.227 91.5944 132.964 92.3953 134.502 92.4586L137.643 92.5879C139.181 92.6512 139.982 91.9138 140.045 90.3755L140.163 87.5082L132.408 87.1889Z" fill="url(#paint23_linear_220_1070)"/>
<path d="M132.954 97.7419L138.075 99.3136C139.373 99.7119 139.823 100.56 139.424 101.858L138.482 104.927C138.084 106.225 137.236 106.675 135.938 106.277L130.817 104.705C129.52 104.306 129.07 103.458 129.468 102.161L130.41 99.0909C130.809 97.7932 131.657 97.3436 132.954 97.7419ZM132.555 98.577C131.876 98.3685 131.43 98.6083 131.219 99.2963L130.249 102.458C130.04 103.137 130.276 103.581 130.955 103.789L136.337 105.441C137.017 105.65 137.461 105.414 137.669 104.735L138.639 101.574C138.851 100.886 138.617 100.437 137.937 100.229L132.555 98.577Z" fill="url(#paint24_linear_220_1070)"/>
<path d="M127.594 114.739L129.591 116.22L128.167 118.141L126.169 116.66L127.594 114.739Z" fill="url(#paint25_linear_220_1070)"/>
<g filter="url(#filter1_d_220_1070)">
<path d="M93.2669 74.297C93.3099 78.5912 93.3099 78.6059 93.6828 79.4294C93.8836 79.8706 94.2996 80.4882 94.6008 80.7823C96.2933 82.4735 100.811 82.5765 104.942 81.0323C105.573 80.7823 106.133 80.5912 106.19 80.5912C106.247 80.5912 106.29 81.9147 106.29 83.5323L106.29 86.4882L105.645 87.1941C104.77 88.15 103.823 88.5618 102.346 88.6353C101.313 88.6941 101.127 88.6647 100.481 88.3118C99.6208 87.8559 98.373 87.6794 97.6272 87.9441C96.7522 88.2382 95.8917 89.2823 95.0024 91.1353C94.4574 92.2823 94.1562 92.7529 94.0844 92.6206C94.0127 92.5176 93.9984 91.3853 94.0558 90.1059C94.1562 87.4588 94.2852 87.6647 92.6788 88.0176C91.1298 88.3412 90.3409 88.9294 89.8102 90.15C89.5234 90.7823 89.509 91.0912 89.509 97.3118L89.509 103.826L91.9904 103.826L94.4574 103.826L95.1028 102.562C95.863 101.047 97.1969 99.5029 98.2583 98.9147C98.7316 98.65 99.3053 98.4735 99.8647 98.4147C101.055 98.3118 101.571 98.6059 102.102 99.6941C102.475 100.488 102.489 100.621 102.489 102.724L102.489 104.929L101.629 105.121C98.9324 105.738 97.7993 106.091 96.6232 106.679C95.2175 107.385 94.3856 108.106 93.941 108.988C93.7115 109.474 93.5824 110.003 93.7115 110.003C93.898 110.003 96.1355 109.209 97.0104 108.826C98.0144 108.4 98.1578 108.297 98.3587 107.782C98.7459 106.768 99.9507 105.944 101.6 105.547C102.203 105.415 102.446 105.224 103.493 104.106C104.641 102.871 106.29 100.532 106.29 100.15C106.29 99.8118 105.702 99.1206 105.1 98.7676C104.153 98.2088 102.905 97.9441 101.184 97.9441C99.2479 97.9441 97.6845 98.2235 95.7339 98.9C94.9163 99.1941 94.1705 99.3853 94.1131 99.3412C93.941 99.2382 93.9123 94.1206 94.0844 93.65C94.2996 93.0618 95.2175 92.2088 96.0781 91.797C96.7522 91.4735 97.1108 91.4147 98.1148 91.4C99.1762 91.4 99.42 91.4441 100.051 91.797C100.869 92.2676 102.088 92.3559 102.891 92.0176C103.68 91.6647 104.741 90.3265 105.444 88.7676C105.788 87.9882 106.118 87.3559 106.176 87.3559C106.247 87.3559 106.29 88.4588 106.29 89.797L106.29 92.2382L106.979 92.1353C107.352 92.0912 107.925 91.9735 108.255 91.8853C108.8 91.7529 108.872 91.6794 108.958 91.2235C109.087 90.5323 108.915 87.7676 108.657 86.4294C108.327 84.6794 107.753 82.797 107.137 81.4882C106.491 80.0912 105.286 77.9441 105.143 77.9441C105.086 77.9441 104.799 78.297 104.512 78.7382C103.422 80.3559 102.102 81.3412 100.668 81.6206C99.7643 81.797 99.1762 81.6353 98.6455 81.0618C98.0001 80.3559 97.8136 79.4441 97.8566 77.1353L97.8997 75.0912L98.4734 74.9588C100.295 74.5765 101.557 74.2235 101.557 74.1059C101.557 74.0323 101.399 73.9 101.213 73.8118C100.955 73.6794 100.768 73.7088 100.295 73.9588C99.6495 74.297 98.0431 74.7235 97.914 74.5912C97.871 74.547 97.828 73.8706 97.828 73.0765L97.828 71.6206L97.2829 71.3412C96.6375 71.0029 93.7689 70.0029 93.439 70.0029C93.2382 70.0029 93.2239 70.4882 93.2669 74.297Z" fill="url(#paint26_linear_220_1070)"/>
<path d="M93.2669 74.297C93.3099 78.5912 93.3099 78.6059 93.6828 79.4294C93.8836 79.8706 94.2996 80.4882 94.6008 80.7823C96.2933 82.4735 100.811 82.5765 104.942 81.0323C105.573 80.7823 106.133 80.5912 106.19 80.5912C106.247 80.5912 106.29 81.9147 106.29 83.5323L106.29 86.4882L105.645 87.1941C104.77 88.15 103.823 88.5618 102.346 88.6353C101.313 88.6941 101.127 88.6647 100.481 88.3118C99.6208 87.8559 98.373 87.6794 97.6272 87.9441C96.7522 88.2382 95.8917 89.2823 95.0024 91.1353C94.4574 92.2823 94.1562 92.7529 94.0844 92.6206C94.0127 92.5176 93.9984 91.3853 94.0558 90.1059C94.1562 87.4588 94.2852 87.6647 92.6788 88.0176C91.1298 88.3412 90.3409 88.9294 89.8102 90.15C89.5234 90.7823 89.509 91.0912 89.509 97.3118L89.509 103.826L91.9904 103.826L94.4574 103.826L95.1028 102.562C95.863 101.047 97.1969 99.5029 98.2583 98.9147C98.7316 98.65 99.3053 98.4735 99.8647 98.4147C101.055 98.3118 101.571 98.6059 102.102 99.6941C102.475 100.488 102.489 100.621 102.489 102.724L102.489 104.929L101.629 105.121C98.9324 105.738 97.7993 106.091 96.6232 106.679C95.2175 107.385 94.3856 108.106 93.941 108.988C93.7115 109.474 93.5824 110.003 93.7115 110.003C93.898 110.003 96.1355 109.209 97.0104 108.826C98.0144 108.4 98.1578 108.297 98.3587 107.782C98.7459 106.768 99.9507 105.944 101.6 105.547C102.203 105.415 102.446 105.224 103.493 104.106C104.641 102.871 106.29 100.532 106.29 100.15C106.29 99.8118 105.702 99.1206 105.1 98.7676C104.153 98.2088 102.905 97.9441 101.184 97.9441C99.2479 97.9441 97.6845 98.2235 95.7339 98.9C94.9163 99.1941 94.1705 99.3853 94.1131 99.3412C93.941 99.2382 93.9123 94.1206 94.0844 93.65C94.2996 93.0618 95.2175 92.2088 96.0781 91.797C96.7522 91.4735 97.1108 91.4147 98.1148 91.4C99.1762 91.4 99.42 91.4441 100.051 91.797C100.869 92.2676 102.088 92.3559 102.891 92.0176C103.68 91.6647 104.741 90.3265 105.444 88.7676C105.788 87.9882 106.118 87.3559 106.176 87.3559C106.247 87.3559 106.29 88.4588 106.29 89.797L106.29 92.2382L106.979 92.1353C107.352 92.0912 107.925 91.9735 108.255 91.8853C108.8 91.7529 108.872 91.6794 108.958 91.2235C109.087 90.5323 108.915 87.7676 108.657 86.4294C108.327 84.6794 107.753 82.797 107.137 81.4882C106.491 80.0912 105.286 77.9441 105.143 77.9441C105.086 77.9441 104.799 78.297 104.512 78.7382C103.422 80.3559 102.102 81.3412 100.668 81.6206C99.7643 81.797 99.1762 81.6353 98.6455 81.0618C98.0001 80.3559 97.8136 79.4441 97.8566 77.1353L97.8997 75.0912L98.4734 74.9588C100.295 74.5765 101.557 74.2235 101.557 74.1059C101.557 74.0323 101.399 73.9 101.213 73.8118C100.955 73.6794 100.768 73.7088 100.295 73.9588C99.6495 74.297 98.0431 74.7235 97.914 74.5912C97.871 74.547 97.828 73.8706 97.828 73.0765L97.828 71.6206L97.2829 71.3412C96.6375 71.0029 93.7689 70.0029 93.439 70.0029C93.2382 70.0029 93.2239 70.4882 93.2669 74.297Z" fill="url(#paint27_linear_220_1070)"/>
<path d="M83.2698 70.3262C82.5239 70.5762 81.2904 71.0762 80.5303 71.4292C79.9996 71.6645 79.7414 71.8851 79.641 72.1645C79.2968 73.2233 77.7907 74.2821 76.3564 74.5027C75.8114 74.5762 75.5963 74.7527 74.5349 75.8998C72.9572 77.5909 71.5229 79.7674 71.7237 80.1498C71.9818 80.6351 73.0432 81.4586 73.7173 81.6939C75.9692 82.4586 79.9709 82.1351 82.7821 80.9586C83.2698 80.7527 83.7287 80.5909 83.8005 80.5909C83.8578 80.5909 83.9152 81.8998 83.9152 83.5027L83.9152 86.4292L83.4993 87.0321C82.8538 87.9292 81.4482 88.5909 80.0283 88.6645C79.0386 88.7086 78.8378 88.6645 78.0202 88.2527C76.5142 87.5027 75.3811 87.6351 74.2337 88.7086C73.6169 89.2821 73.2871 89.7821 72.6273 91.1498L71.7954 92.8704L71.7524 90.3262C71.7093 87.4439 71.8528 87.6645 70.3324 88.0027C68.9268 88.3115 68.9411 88.2674 69.0415 90.5909C69.1993 94.6351 70.232 97.988 72.3548 101.37L72.8854 102.223L73.4592 101.341C74.6496 99.5027 76.3134 98.3851 77.8625 98.3851C78.7661 98.3851 79.3541 98.7821 79.7701 99.6645C80.0713 100.297 80.1143 100.606 80.1573 102.664L80.2147 104.944L78.594 105.297C77.6903 105.473 76.8011 105.694 76.6146 105.767L76.2847 105.885L76.6433 106.179L77.0019 106.473L77.9198 106.032C78.4218 105.797 79.139 105.547 79.5119 105.503L80.186 105.4L80.186 106.944L80.186 108.488L81.2331 108.944C82.567 109.517 84.3025 110.047 84.5319 109.959C84.7614 109.87 84.8475 104.341 84.6467 102.414C84.4172 100.194 83.6427 99.0468 81.9072 98.3556C81.2761 98.1056 80.7167 98.0321 79.182 97.9733C76.9732 97.9145 75.1947 98.2086 73.1293 98.9733C72.4838 99.2233 71.9101 99.4145 71.8384 99.4145C71.781 99.4145 71.7237 98.0762 71.7237 96.4439L71.7237 93.4733L72.4982 92.7086C73.1149 92.0909 73.4735 91.8704 74.2337 91.6351C75.625 91.1939 76.4712 91.2233 77.6043 91.7821C78.4218 92.1792 78.6657 92.2233 79.4832 92.1792C80.2147 92.1351 80.5733 92.0321 81.0036 91.738C81.6777 91.2821 82.7104 89.7674 83.2841 88.3556C83.5136 87.8115 83.7431 87.3556 83.8148 87.3556C83.8722 87.3556 83.9152 88.4586 83.9152 89.7968L83.9152 92.2527L84.618 92.1498C86.0523 91.9586 86.7981 91.6351 87.4866 90.8998C87.8739 90.488 88.2324 89.9439 88.3328 89.6056C88.4619 89.1792 88.505 87.1645 88.505 82.5909L88.505 76.1792L86.0093 76.1792L83.4993 76.1792L83.155 76.9733C81.9215 79.7233 79.727 81.6498 77.8051 81.6792C76.8441 81.6939 76.3708 81.3704 75.8831 80.3556C75.5532 79.6792 75.5246 79.488 75.5246 77.3556L75.5246 75.0762L76.7437 74.8262C81.2904 73.8556 83.657 72.488 84.2594 70.4733C84.3455 70.2086 84.3168 70.1498 84.0299 70.1645C83.8435 70.1645 83.5136 70.238 83.2698 70.3262Z" fill="url(#paint28_linear_220_1070)"/>
<path d="M83.2698 70.3262C82.5239 70.5762 81.2904 71.0762 80.5303 71.4292C79.9996 71.6645 79.7414 71.8851 79.641 72.1645C79.2968 73.2233 77.7907 74.2821 76.3564 74.5027C75.8114 74.5762 75.5963 74.7527 74.5349 75.8998C72.9572 77.5909 71.5229 79.7674 71.7237 80.1498C71.9818 80.6351 73.0432 81.4586 73.7173 81.6939C75.9692 82.4586 79.9709 82.1351 82.7821 80.9586C83.2698 80.7527 83.7287 80.5909 83.8005 80.5909C83.8578 80.5909 83.9152 81.8998 83.9152 83.5027L83.9152 86.4292L83.4993 87.0321C82.8538 87.9292 81.4482 88.5909 80.0283 88.6645C79.0386 88.7086 78.8378 88.6645 78.0202 88.2527C76.5142 87.5027 75.3811 87.6351 74.2337 88.7086C73.6169 89.2821 73.2871 89.7821 72.6273 91.1498L71.7954 92.8704L71.7524 90.3262C71.7093 87.4439 71.8528 87.6645 70.3324 88.0027C68.9268 88.3115 68.9411 88.2674 69.0415 90.5909C69.1993 94.6351 70.232 97.988 72.3548 101.37L72.8854 102.223L73.4592 101.341C74.6496 99.5027 76.3134 98.3851 77.8625 98.3851C78.7661 98.3851 79.3541 98.7821 79.7701 99.6645C80.0713 100.297 80.1143 100.606 80.1573 102.664L80.2147 104.944L78.594 105.297C77.6903 105.473 76.8011 105.694 76.6146 105.767L76.2847 105.885L76.6433 106.179L77.0019 106.473L77.9198 106.032C78.4218 105.797 79.139 105.547 79.5119 105.503L80.186 105.4L80.186 106.944L80.186 108.488L81.2331 108.944C82.567 109.517 84.3025 110.047 84.5319 109.959C84.7614 109.87 84.8475 104.341 84.6467 102.414C84.4172 100.194 83.6427 99.0468 81.9072 98.3556C81.2761 98.1056 80.7167 98.0321 79.182 97.9733C76.9732 97.9145 75.1947 98.2086 73.1293 98.9733C72.4838 99.2233 71.9101 99.4145 71.8384 99.4145C71.781 99.4145 71.7237 98.0762 71.7237 96.4439L71.7237 93.4733L72.4982 92.7086C73.1149 92.0909 73.4735 91.8704 74.2337 91.6351C75.625 91.1939 76.4712 91.2233 77.6043 91.7821C78.4218 92.1792 78.6657 92.2233 79.4832 92.1792C80.2147 92.1351 80.5733 92.0321 81.0036 91.738C81.6777 91.2821 82.7104 89.7674 83.2841 88.3556C83.5136 87.8115 83.7431 87.3556 83.8148 87.3556C83.8722 87.3556 83.9152 88.4586 83.9152 89.7968L83.9152 92.2527L84.618 92.1498C86.0523 91.9586 86.7981 91.6351 87.4866 90.8998C87.8739 90.488 88.2324 89.9439 88.3328 89.6056C88.4619 89.1792 88.505 87.1645 88.505 82.5909L88.505 76.1792L86.0093 76.1792L83.4993 76.1792L83.155 76.9733C81.9215 79.7233 79.727 81.6498 77.8051 81.6792C76.8441 81.6939 76.3708 81.3704 75.8831 80.3556C75.5532 79.6792 75.5246 79.488 75.5246 77.3556L75.5246 75.0762L76.7437 74.8262C81.2904 73.8556 83.657 72.488 84.2594 70.4733C84.3455 70.2086 84.3168 70.1498 84.0299 70.1645C83.8435 70.1645 83.5136 70.238 83.2698 70.3262Z" fill="url(#paint29_linear_220_1070)"/>
</g>
<circle cx="88.502" cy="88.5029" r="31" stroke="url(#paint30_linear_220_1070)"/>
<defs>
<filter id="filter0_b_220_1070" x="37.0697" y="37.0698" width="103.342" height="103.342" filterUnits="userSpaceOnUse" color-interpolation-filters="sRGB">
<feFlood flood-opacity="0" result="BackgroundImageFix"/>
<feGaussianBlur in="BackgroundImageFix" stdDeviation="10.2488"/>
<feComposite in2="SourceAlpha" operator="in" result="effect1_backgroundBlur_220_1070"/>
<feBlend mode="normal" in="SourceGraphic" in2="effect1_backgroundBlur_220_1070" result="shape"/>
</filter>
<filter id="filter1_d_220_1070" x="65.002" y="66.0029" width="48" height="48" filterUnits="userSpaceOnUse" color-interpolation-filters="sRGB">
<feFlood flood-opacity="0" result="BackgroundImageFix"/>
<feColorMatrix in="SourceAlpha" type="matrix" values="0 0 0 0 0 0 0 0 0 0 0 0 0 0 0 0 0 0 127 0" result="hardAlpha"/>
<feOffset/>
<feGaussianBlur stdDeviation="2"/>
<feComposite in2="hardAlpha" operator="out"/>
<feColorMatrix type="matrix" values="0 0 0 0 0 0 0 0 0 0 0 0 0 0 0 0 0 0 0.25 0"/>
<feBlend mode="normal" in2="BackgroundImageFix" result="effect1_dropShadow_220_1070"/>
<feBlend mode="normal" in="SourceGraphic" in2="effect1_dropShadow_220_1070" result="shape"/>
</filter>
<linearGradient id="paint0_linear_220_1070" x1="123.834" y1="132.538" x2="112.808" y2="118.31" gradientUnits="userSpaceOnUse">
<stop stop-color="#8A0002"/>
<stop offset="1" stop-color="#E04047"/>
</linearGradient>
<linearGradient id="paint1_linear_220_1070" x1="110.601" y1="140.503" x2="103.869" y2="123.81" gradientUnits="userSpaceOnUse">
<stop stop-color="#8A0002"/>
<stop offset="1" stop-color="#E04047"/>
</linearGradient>
<linearGradient id="paint2_linear_220_1070" x1="98.0116" y1="144.17" x2="95.229" y2="126.387" gradientUnits="userSpaceOnUse">
<stop stop-color="#8A0002"/>
<stop offset="1" stop-color="#E04047"/>
</linearGradient>
<linearGradient id="paint3_linear_220_1070" x1="85.8436" y1="144.862" x2="86.9766" y2="126.898" gradientUnits="userSpaceOnUse">
<stop stop-color="#8A0002"/>
<stop offset="1" stop-color="#E04047"/>
</linearGradient>
<linearGradient id="paint4_linear_220_1070" x1="73.7394" y1="142.885" x2="78.8933" y2="125.638" gradientUnits="userSpaceOnUse">
<stop stop-color="#8A0002"/>
<stop offset="1" stop-color="#E04047"/>
</linearGradient>
<linearGradient id="paint5_linear_220_1070" x1="64.1751" y1="139.226" x2="72.3898" y2="123.21" gradientUnits="userSpaceOnUse">
<stop stop-color="#8A0002"/>
<stop offset="1" stop-color="#E04047"/>
</linearGradient>
<linearGradient id="paint6_linear_220_1070" x1="55.5489" y1="133.948" x2="66.5459" y2="119.697" gradientUnits="userSpaceOnUse">
<stop stop-color="#8A0002"/>
<stop offset="1" stop-color="#E04047"/>
</linearGradient>
<linearGradient id="paint7_linear_220_1070" x1="46.199" y1="125.155" x2="60.1692" y2="113.804" gradientUnits="userSpaceOnUse">
<stop stop-color="#8A0002"/>
<stop offset="1" stop-color="#E04047"/>
</linearGradient>
<linearGradient id="paint8_linear_220_1070" x1="36.3616" y1="108.064" x2="53.3605" y2="102.145" gradientUnits="userSpaceOnUse">
<stop stop-color="#8A0002"/>
<stop offset="1" stop-color="#E04047"/>
</linearGradient>
<linearGradient id="paint9_linear_220_1070" x1="33.5343" y1="96.2095" x2="51.4151" y2="94.1414" gradientUnits="userSpaceOnUse">
<stop stop-color="#8A0002"/>
<stop offset="1" stop-color="#E04047"/>
</linearGradient>
<linearGradient id="paint10_linear_220_1070" x1="33.3934" y1="83.5505" x2="51.2979" y2="85.4022" gradientUnits="userSpaceOnUse">
<stop stop-color="#8A0002"/>
<stop offset="1" stop-color="#E04047"/>
</linearGradient>
<linearGradient id="paint11_linear_220_1070" x1="35.0088" y1="74.4516" x2="52.0734" y2="80.1788" gradientUnits="userSpaceOnUse">
<stop stop-color="#8A0002"/>
<stop offset="1" stop-color="#E04047"/>
</linearGradient>
<linearGradient id="paint12_linear_220_1070" x1="37.0707" y1="65.3697" x2="52.3808" y2="74.8355" gradientUnits="userSpaceOnUse">
<stop stop-color="#8A0002"/>
<stop offset="1" stop-color="#E04047"/>
</linearGradient>
<linearGradient id="paint13_linear_220_1070" x1="43.207" y1="55.0905" x2="55.6986" y2="68.0505" gradientUnits="userSpaceOnUse">
<stop stop-color="#8A0002"/>
<stop offset="1" stop-color="#E04047"/>
</linearGradient>
<linearGradient id="paint14_linear_220_1070" x1="52.8926" y1="45.1672" x2="61.6925" y2="60.8695" gradientUnits="userSpaceOnUse">
<stop stop-color="#8A0002"/>
<stop offset="1" stop-color="#E04047"/>
</linearGradient>
<linearGradient id="paint15_linear_220_1070" x1="63.3289" y1="38.9228" x2="72.1288" y2="54.6251" gradientUnits="userSpaceOnUse">
<stop stop-color="#8A0002"/>
<stop offset="1" stop-color="#E04047"/>
</linearGradient>
<linearGradient id="paint16_linear_220_1070" x1="77.7358" y1="34.6696" x2="80.8423" y2="52.3995" gradientUnits="userSpaceOnUse">
<stop stop-color="#8A0002"/>
<stop offset="1" stop-color="#E04047"/>
</linearGradient>
<linearGradient id="paint17_linear_220_1070" x1="96.2371" y1="34.0725" x2="93.4726" y2="51.8589" gradientUnits="userSpaceOnUse">
<stop stop-color="#8A0002"/>
<stop offset="1" stop-color="#E04047"/>
</linearGradient>
<linearGradient id="paint18_linear_220_1070" x1="109.222" y1="37.4514" x2="102.299" y2="54.0669" gradientUnits="userSpaceOnUse">
<stop stop-color="#8A0002"/>
<stop offset="1" stop-color="#E04047"/>
</linearGradient>
<linearGradient id="paint19_linear_220_1070" x1="120.557" y1="43.523" x2="109.948" y2="58.0639" gradientUnits="userSpaceOnUse">
<stop stop-color="#8A0002"/>
<stop offset="1" stop-color="#E04047"/>
</linearGradient>
<linearGradient id="paint20_linear_220_1070" x1="131.088" y1="53.0531" x2="117.206" y2="64.5105" gradientUnits="userSpaceOnUse">
<stop stop-color="#8A0002"/>
<stop offset="1" stop-color="#E04047"/>
</linearGradient>
<linearGradient id="paint21_linear_220_1070" x1="138.576" y1="64.3091" x2="122.314" y2="72.0262" gradientUnits="userSpaceOnUse">
<stop stop-color="#8A0002"/>
<stop offset="1" stop-color="#E04047"/>
</linearGradient>
<linearGradient id="paint22_linear_220_1070" x1="143.089" y1="76.9504" x2="125.458" y2="80.5737" gradientUnits="userSpaceOnUse">
<stop stop-color="#8A0002"/>
<stop offset="1" stop-color="#E04047"/>
</linearGradient>
<linearGradient id="paint23_linear_220_1070" x1="144.448" y1="90.5143" x2="126.463" y2="89.7738" gradientUnits="userSpaceOnUse">
<stop stop-color="#8A0002"/>
<stop offset="1" stop-color="#E04047"/>
</linearGradient>
<linearGradient id="paint24_linear_220_1070" x1="142.297" y1="104.668" x2="125.09" y2="99.386" gradientUnits="userSpaceOnUse">
<stop stop-color="#8A0002"/>
<stop offset="1" stop-color="#E04047"/>
</linearGradient>
<linearGradient id="paint25_linear_220_1070" x1="134.343" y1="121.291" x2="119.884" y2="110.57" gradientUnits="userSpaceOnUse">
<stop stop-color="#8A0002"/>
<stop offset="1" stop-color="#E04047"/>
</linearGradient>
<linearGradient id="paint26_linear_220_1070" x1="125.011" y1="27.1456" x2="40.2713" y2="93.1106" gradientUnits="userSpaceOnUse">
<stop stop-color="#E04047"/>
<stop offset="1" stop-color="#8A0002"/>
</linearGradient>
<linearGradient id="paint27_linear_220_1070" x1="89.509" y1="62.0437" x2="116.888" y2="72.6543" gradientUnits="userSpaceOnUse">
<stop stop-color="#8A0002"/>
<stop offset="1" stop-color="#E04047"/>
</linearGradient>
<linearGradient id="paint28_linear_220_1070" x1="104.522" y1="27.513" x2="20.0835" y2="93.5982" gradientUnits="userSpaceOnUse">
<stop stop-color="#E04047"/>
<stop offset="1" stop-color="#8A0002"/>
</linearGradient>
<linearGradient id="paint29_linear_220_1070" x1="69.002" y1="62.2418" x2="96.356" y2="72.9" gradientUnits="userSpaceOnUse">
<stop stop-color="#8A0002"/>
<stop offset="1" stop-color="#E04047"/>
</linearGradient>
<linearGradient id="paint30_linear_220_1070" x1="88.502" y1="57.0029" x2="88.502" y2="120.003" gradientUnits="userSpaceOnUse">
<stop stop-color="#8A0002"/>
<stop offset="1" stop-color="#E04047"/>
</linearGradient>
</defs>
</svg>
