<svg width="32" height="32" viewBox="0 0 32 32" fill="none" xmlns="http://www.w3.org/2000/svg">
<path d="M23.6784 18.3877C23.616 18.3577 21.2831 17.209 20.8686 17.0598C20.6993 16.999 20.518 16.9397 20.3252 16.9397C20.0102 16.9397 19.7456 17.0967 19.5394 17.405C19.3064 17.7514 18.601 18.576 18.383 18.8224C18.3545 18.8549 18.3157 18.8937 18.2924 18.8937C18.2715 18.8937 17.9105 18.7451 17.8012 18.6976C15.2986 17.6105 13.3991 14.9964 13.1386 14.5556C13.1014 14.4922 13.0999 14.4634 13.0996 14.4634C13.1087 14.4298 13.1929 14.3455 13.2363 14.302C13.3633 14.1762 13.501 14.0105 13.6342 13.8502C13.6973 13.7743 13.7604 13.6982 13.8225 13.6265C14.0157 13.4017 14.1017 13.2271 14.2015 13.025L14.2537 12.9199C14.4973 12.4361 14.2893 12.0278 14.222 11.8959C14.1669 11.7856 13.1818 9.40824 13.0771 9.15847C12.8253 8.55577 12.4925 8.27515 12.03 8.27515C11.9871 8.27515 12.03 8.27515 11.8501 8.28273C11.631 8.29198 10.4377 8.44907 9.91015 8.78164C9.35067 9.13437 8.40417 10.2587 8.40417 12.2361C8.40417 14.0157 9.53353 15.696 10.0184 16.3351C10.0305 16.3512 10.0526 16.3839 10.0847 16.4309C11.9416 19.1428 14.2565 21.1525 16.6032 22.09C18.8625 22.9924 19.9323 23.0968 20.5405 23.0968H20.5406C20.7962 23.0968 21.0007 23.0767 21.1812 23.0589L21.2957 23.048C22.0762 22.9788 23.7913 22.0901 24.1814 21.006C24.4887 20.152 24.5698 19.219 24.3653 18.8804C24.2253 18.6502 23.9839 18.5344 23.6784 18.3877Z" fill="url(#paint0_linear_265_18)"/>
<path d="M16.284 0C7.61743 0 0.566625 6.99782 0.566625 15.5993C0.566625 18.3813 1.31114 21.1045 2.72153 23.4879L0.0220019 31.451C-0.0282839 31.5995 0.00911872 31.7636 0.118937 31.8754C0.19821 31.9564 0.305742 32 0.41556 32C0.457638 32 0.500028 31.9937 0.541378 31.9805L8.84476 29.3419C11.117 30.5559 13.6851 31.1968 16.2841 31.1968C24.9499 31.1969 32 24.1998 32 15.5993C32 6.99782 24.9499 0 16.284 0ZM16.284 27.9474C13.8384 27.9474 11.4697 27.2412 9.43353 25.9051C9.36507 25.8602 9.28559 25.8371 9.20559 25.8371C9.1633 25.8371 9.12091 25.8435 9.07966 25.8566L4.92018 27.1788L6.26294 23.2174C6.30637 23.0891 6.28465 22.9477 6.20465 22.8384C4.65411 20.7198 3.83447 18.2166 3.83447 15.5993C3.83447 8.78961 9.4193 3.24945 16.2839 3.24945C23.1477 3.24945 28.7319 8.78961 28.7319 15.5993C28.732 22.4081 23.1479 27.9474 16.284 27.9474Z" fill="url(#paint1_linear_265_18)"/>
<defs>
<linearGradient id="paint0_linear_265_18" x1="16.4411" y1="8.27515" x2="16.4411" y2="23.0968" gradientUnits="userSpaceOnUse">
<stop stop-color="#8A0002"/>
<stop offset="1" stop-color="#E04047"/>
</linearGradient>
<linearGradient id="paint1_linear_265_18" x1="16" y1="0" x2="16" y2="32" gradientUnits="userSpaceOnUse">
<stop stop-color="#8A0002"/>
<stop offset="1" stop-color="#E04047"/>
</linearGradient>
</defs>
</svg>
