<svg width="827" height="776" viewBox="0 0 827 776" fill="none" xmlns="http://www.w3.org/2000/svg">
<path d="M495.887 83.1777C496.463 154.105 497.04 168.546 499.537 175.676C511.257 207.666 534.504 226.86 571.584 235.269C594.254 240.205 649.97 239.839 679.75 234.355C704.726 229.603 727.781 223.387 748.53 215.527C756.215 212.602 762.939 210.225 763.324 210.225C763.9 210.225 764.284 234.355 764.284 263.969V317.713L757.368 326.671C748.914 337.456 745.456 340.198 730.663 348.241C715.101 356.65 696.272 360.672 676.868 359.758C663.996 359.027 659 357.93 647.089 352.446C615.388 337.821 591.565 339.101 568.126 356.65C556.79 365.242 545.455 380.78 531.43 407.286L518.365 432.148V386.995C518.365 334.531 521.824 339.65 490.892 345.682C455.733 352.263 435.176 365.607 423.456 389.372L417.5 401.254V528.302V655.349L471.487 655.898L525.666 656.263L534.312 639.263C549.49 609.649 569.855 584.605 591.757 568.518C605.013 558.83 630.182 550.238 645.552 550.238C655.926 550.238 667.262 556.819 674.562 567.239C686.09 583.142 687.627 591.734 687.05 635.241L686.474 673.447L673.025 676.006C606.935 687.888 562.938 703.061 535.272 723.352C522.208 732.858 516.444 739.804 509.912 753.149C503.764 766.128 501.843 773.257 504.725 773.257C505.877 773.257 506.838 771.429 506.838 769.052C506.838 763.02 517.021 744.191 524.898 735.417C545.071 713.298 595.215 693.372 663.419 680.393L690.317 675.092L690.124 635.058C690.124 603.251 689.356 593.014 686.858 584.788C682.632 571.443 674.562 560.109 664.188 553.528C656.311 548.41 654.774 548.044 641.325 548.958C615.196 550.421 595.599 559.744 572.352 581.68C555.638 597.401 534.504 628.477 526.243 649.5L524.129 654.435L472.832 654.07L421.343 653.521L420.382 533.786C419.806 467.977 419.998 410.394 420.958 405.824C424.417 386.264 441.132 365.425 459.96 357.016C470.334 352.629 512.217 343.306 515.099 344.951C516.06 345.499 516.06 369.081 515.484 397.415C514.139 448.965 514.715 454.449 520.287 437.814C525.09 423.921 539.691 395.953 550.258 380.963C567.549 356.102 584.264 345.682 606.743 345.499C621.536 345.499 635.177 348.79 647.089 355.188C676.484 370.909 724.899 362.134 751.988 336.359C768.703 320.455 768.127 322.832 768.127 260.13V204.741L761.018 207.666C708.76 229.42 644.015 240.753 598.289 236.183C542.381 230.516 513.37 211.322 501.843 172.385C499.153 163.611 498.577 148.255 497.808 81.3497C497.424 37.1115 496.463 0.551017 496.079 0.00260957C495.503 -0.362995 495.311 36.9287 495.887 83.1777Z" fill="#8A0002"/>
<path d="M314.712 11.3374C301.071 54.8444 248.237 81.5335 139.494 99.4482L132.194 100.728V137.837C132.194 179.698 133.923 190.849 142.761 206.022C156.978 230.518 180.801 234.722 215.768 219.184C242.473 207.302 270.331 177.87 288.391 142.224L298.381 122.664L350.255 123.03L402.128 123.395V249.529V375.663L397.133 385.717C389.832 400.341 377.921 412.04 364.088 418.621C353.521 423.374 320.475 431.417 310.677 431.417C307.219 431.417 307.027 429.224 307.027 379.684L306.835 328.134L301.263 341.844C297.997 349.339 291.08 363.598 285.893 373.469C255.153 430.686 224.605 443.482 173.885 420.449C143.337 406.556 100.685 414.051 73.0195 437.815C55.152 453.171 55.3441 452.257 55.3441 515.507C55.3441 545.669 55.7283 570.347 56.1126 570.347C56.4968 570.347 65.3345 567.057 75.7092 563.218C117.4 547.314 170.619 538.174 211.925 539.819C264.567 542.013 296.652 556.271 312.406 584.606C323.165 603.8 323.165 603.617 324.318 692.825L325.471 776L325.855 694.653C326.047 647.124 325.279 610.198 324.318 605.628C318.554 582.047 300.495 560.11 278.784 550.605C261.493 543.11 246.7 539.454 223.068 537.443C180.225 533.421 120.474 543.292 69.5613 562.67C63.9897 564.863 58.9944 565.96 58.4181 565.412C57.8417 564.68 57.2653 541.099 57.2653 512.764V461.397L62.6448 453.171C73.9801 436.536 95.498 423.008 118.361 418.438C124.125 417.342 136.228 416.793 145.45 417.159C159.283 417.524 164.086 418.621 174.461 423.374C191.368 431.235 199.821 433.245 215.96 433.245C227.295 433.245 231.522 432.331 240.936 427.761C260.533 418.438 278.016 397.599 293.77 364.329C298.381 355.006 302.8 347.328 303.761 347.328C304.913 347.328 305.298 363.415 304.721 390.47C303.953 421.546 304.337 433.794 305.874 434.342C310.293 435.987 355.058 425.933 364.856 421.363C384.837 411.675 400.975 390.652 404.626 370.179C405.394 365.06 405.779 306.746 405.202 240.389C404.049 127.051 403.857 119.739 400.783 119.922C398.862 119.922 374.654 120.288 346.989 120.47L296.46 120.836L286.469 140.396C268.602 175.311 241.512 204.377 215.576 216.442C189.639 228.507 166.776 228.324 153.904 216.076C138.342 201.452 133.731 181.709 134.499 135.46L135.076 103.47L160.052 98.5342C212.117 88.2972 234.212 81.5335 263.222 67.2749C284.356 56.8552 299.918 44.4246 308.564 31.6285C314.52 22.6711 321.436 3.6597 318.746 3.6597C317.978 3.6597 316.057 7.13294 314.712 11.3374Z" fill="#8A0002"/>
<path d="M591.755 62.5213L592.331 92.3181L599.055 91.7697C610.775 90.4901 638.056 82.264 648.623 76.4143C662.84 68.7366 660.151 68.1882 644.012 75.8659C632.677 81.1672 604.051 89.5761 597.326 89.5761C595.981 89.5761 595.213 80.436 595.213 61.2417C595.213 43.1443 594.444 32.9073 593.292 32.9073C591.947 32.9073 591.37 43.1443 591.755 62.5213Z" fill="#8A0002"/>
<path d="M214.039 48.2622C205.009 65.9941 185.412 78.6074 156.402 85.7367C148.14 87.5647 141.032 89.7584 140.263 90.3068C138.342 92.3176 143.145 91.4036 159.86 86.8335C190.792 78.2418 206.93 67.6393 215.96 50.0902C218.842 44.6062 220.571 39.6705 220.187 39.1221C219.61 38.7565 216.921 42.7781 214.039 48.2622Z" fill="#8A0002"/>
<path d="M664.38 86.1027C657.463 88.1135 639.019 92.1352 623.073 95.06C607.319 98.1676 593.678 101.275 592.718 102.189C591.565 103.286 591.373 121.018 591.949 143.868C592.718 178.784 593.294 185.182 596.944 195.053C601.939 208.032 614.043 222.29 623.457 225.947C644.207 234.173 679.75 222.29 706.839 197.795C720.288 185.73 743.151 155.933 743.151 150.266C743.151 148.621 740.077 152.277 736.234 158.31C719.904 184.085 696.849 206.569 677.06 215.71C660.922 223.387 639.596 227.409 629.605 224.85C618.846 222.108 609.624 213.516 602.516 199.623L596.176 187.558L595.599 145.331L594.831 103.103L613.467 99.8129C633.256 96.3396 676.099 86.4683 677.636 85.0059C679.942 82.6294 675.715 82.995 664.38 86.1027Z" fill="#8A0002"/>
<path d="M52.847 201.269C58.0343 209.86 71.6751 220.463 84.9317 226.495C130.081 246.604 216.537 242.399 284.933 216.807C294.347 213.151 302.801 210.226 303.569 210.226C304.53 210.226 305.106 233.99 305.106 262.873V315.52L299.727 323.746C283.972 347.145 249.966 361.769 215.384 359.758C203.088 359.027 198.093 357.748 186.95 352.446C148.909 333.8 116.632 341.295 91.0797 374.383C84.5475 382.974 64.7587 418.986 62.0689 427.395C61.4926 429.589 59.9556 431.051 58.9949 430.503C58.0343 429.772 57.6501 412.954 58.4186 387.727C59.1871 364.694 59.3792 344.769 58.6107 343.123C57.6501 340.747 54.7682 340.93 35.1715 344.951C12.5009 349.339 -1.90842 353.726 0.20495 355.737C0.781323 356.285 3.08681 355.92 5.20018 354.823C7.31354 353.726 17.4961 351.167 27.8708 349.156C38.2455 347.145 48.6202 345.134 51.1179 344.586L55.3446 343.672V396.136L55.5367 448.783L64.5666 428.675C85.1238 382.792 101.454 361.404 122.972 351.167C132.194 346.597 137.189 345.5 146.411 345.5C159.86 345.5 179.457 349.887 184.068 353.726C195.211 363.232 230.946 365.791 253.232 358.479C276.287 350.801 299.919 333.618 305.106 320.639C306.259 318.079 307.027 292.122 307.027 260.497V205.108L291.273 211.323C242.858 230.883 177.92 241.12 135.268 236.001C96.0749 231.248 69.7539 219.915 57.0737 202C51.31 194.139 48.0439 193.408 52.847 201.269Z" fill="#8A0002"/>
<path d="M762.361 338.553C759.864 344.951 752.371 360.672 745.454 373.651C730.084 402.351 715.867 418.072 698 426.298C679.172 434.707 663.994 433.427 634.599 420.814C622.687 415.695 615.963 414.233 604.819 413.502C578.498 412.039 549.488 422.276 531.236 439.277C514.329 455.181 514.521 454.267 514.521 516.42C514.521 567.421 514.713 570.712 517.979 569.798C519.708 569.249 529.507 565.776 539.497 561.937C580.804 546.765 631.909 538.173 671.102 539.818C719.71 541.829 749.297 552.98 766.204 575.465C770.431 580.949 773.889 584.239 773.889 582.777C773.889 577.841 759.479 562.12 749.297 555.905C728.163 543.109 700.689 537.076 662.457 537.076C631.525 537.076 609.815 539.818 575.04 548.41C556.02 552.98 546.606 556.088 520.861 566.142C518.94 566.873 518.364 555.539 518.364 513.312V459.568L523.935 451.342C530.66 440.922 540.65 433.244 555.636 426.298C571.966 418.62 585.799 416.244 605.972 417.158C620.766 417.889 624.992 418.986 638.249 425.018C651.121 431.051 655.924 432.148 669.181 432.879C691.66 433.976 701.65 430.502 717.981 415.878C731.814 403.448 743.725 385.899 756.405 359.209L764.283 342.757V388.823C764.283 414.233 765.051 435.072 766.012 435.072C766.78 435.072 778.115 433.062 790.796 430.502C814.043 426.115 830.565 420.814 826.339 419.169C825.186 418.803 821.536 419.717 818.462 421.179C813.082 423.922 776.963 431.416 769.662 431.416C766.012 431.416 766.012 430.32 767.357 379.318C768.125 350.618 768.317 327.219 767.741 327.219C767.164 327.219 764.667 332.338 762.361 338.553Z" fill="#8A0002"/>
<path d="M160.82 551.883C132.193 560.658 104.143 584.057 84.7388 615.499C77.0538 627.929 80.7042 626.65 88.9655 614.036C103.951 590.82 127.006 569.25 147.179 559.561C159.283 553.711 180.609 549.507 190.983 551.152C202.895 552.797 216.344 565.228 222.684 580.583C226.911 590.638 227.103 593.745 227.103 632.316L227.295 673.081L201.358 678.2C164.662 685.329 147.563 689.534 147.563 691.544C147.563 692.276 149.1 692.641 151.022 692.093C162.933 688.62 195.018 681.673 211.157 678.931L230.177 675.823V637.801C230.177 616.595 229.216 595.573 228.063 590.089C223.837 571.626 211.733 554.991 198.861 550.421C190.791 547.496 172.924 548.227 160.82 551.883Z" fill="#8A0002"/>
<path d="M208.083 688.256C187.717 693.192 181.569 695.386 172.924 700.504C162.549 706.537 167.352 706.354 180.225 700.139C191.56 694.655 217.112 687.342 224.605 687.342C227.871 687.342 228.256 689.719 228.832 715.128L229.408 743.097L229.793 713.3C229.985 690.633 229.6 683.686 227.871 683.686C226.526 683.869 217.689 685.88 208.083 688.256Z" fill="#8A0002"/>
<path d="M667.067 688.071C630.564 697.211 609.43 712.749 601.937 736.148C599.44 744.557 604.051 739.987 607.317 731.029C611.544 719.878 623.647 707.631 636.904 701.415C647.279 696.48 667.452 689.899 678.403 688.071C682.245 687.522 686.088 686.243 686.664 685.329C688.009 683.135 687.048 683.318 667.067 688.071Z" fill="#8A0002"/>
</svg>
