<svg width="130" height="64" viewBox="0 0 130 64" fill="none" xmlns="http://www.w3.org/2000/svg">
<path d="M105.487 35.559C100.512 34.6309 97.2994 34.1566 96.9845 34.9196C96.6696 35.6827 99.3149 37.4356 104.102 39.3948C106.925 40.523 109.813 41.4871 112.752 42.282C114.431 42.7357 116.195 43.1688 118.042 43.5606L120.919 44.1174C121.807 44.3559 122.738 44.4038 123.647 44.2579C124.557 44.112 125.423 43.7757 126.189 43.2719C126.885 42.738 127.416 42.0238 127.721 41.2096C127.868 40.7999 127.98 40.3792 128.057 39.9516L128.204 39.003C128.33 38.1368 128.477 37.2913 128.603 36.4663C128.813 34.8165 129.023 33.2079 129.212 31.6819C129.59 28.6091 129.821 25.8456 129.926 23.4327C130.136 18.7513 129.926 15.8023 128.981 15.6786C128.036 15.5548 126.881 18.2977 125.517 22.8141C124.845 25.0826 124.152 27.7841 123.417 30.7951C123.123 32.218 122.808 33.7235 122.472 35.2702C121.297 32.5426 119.833 29.9437 118.105 27.5161C116.011 24.546 113.627 21.7833 110.988 19.2669C107.31 15.622 103.201 12.4233 98.748 9.73918C86.1415 2.2569 71.4232 -1.05384 56.7581 0.293941C48.7163 1.01051 40.8497 3.02416 33.4746 6.25393C26.507 9.2954 20.1172 13.4797 14.5792 18.6276C13.29 19.8379 12.0637 21.1113 10.905 22.4428C10.3382 23.1028 9.7713 23.7215 9.22543 24.5051C8.67956 25.2888 8.15469 25.9075 7.71379 26.5674C6.00937 29.2225 4.60156 32.0504 3.51479 35.0021C1.59437 39.8692 0.433551 44.9934 0.0716174 50.2012C-0.411267 58.9658 1.68823 64.1216 2.17112 63.9978C2.654 63.8741 1.81421 58.6977 3.17888 50.4692C3.95509 45.6626 5.36668 40.976 7.37788 36.5282C8.56624 33.902 10.0223 31.4008 11.7238 29.0628C12.1558 28.4628 12.6182 27.8846 13.1095 27.3305C13.6134 26.7736 14.2012 26.2168 14.7471 25.6394C15.8179 24.4639 17.0776 23.4121 18.2953 22.2985C23.6041 17.8014 29.6249 14.1861 36.12 11.5952C42.872 8.90658 50.0147 7.2848 57.283 6.79012C70.2793 5.9273 83.2295 9.03184 94.3601 15.6786C101.198 19.726 107.225 24.968 112.143 31.1457C114.242 33.9091 115.796 36.0951 116.888 37.7243L114.137 37.25L105.445 35.6208" fill="url(#paint0_linear_156_1309)"/>
<defs>
<linearGradient id="paint0_linear_156_1309" x1="130" y1="32" x2="0" y2="32" gradientUnits="userSpaceOnUse">
<stop stop-color="#8A0002"/>
<stop offset="1" stop-color="#E04047"/>
</linearGradient>
</defs>
</svg>
