<svg width="128" height="67" viewBox="0 0 128 67" fill="none" xmlns="http://www.w3.org/2000/svg">
<path d="M103.865 29.7742C98.9653 30.7457 95.8025 31.2423 95.4924 30.4435C95.1823 29.6447 97.787 27.8096 102.5 25.7586C105.28 24.5774 108.124 23.5682 111.017 22.736C112.671 22.2611 114.407 21.8077 116.226 21.3975L119.058 20.8146C119.934 20.5649 120.85 20.5148 121.745 20.6675C122.64 20.8202 123.494 21.1723 124.247 21.6997C124.933 22.2587 125.455 23.0064 125.756 23.8587C125.9 24.2876 126.011 24.728 126.087 25.1757L126.232 26.1688C126.356 27.0755 126.5 27.9607 126.624 28.8243C126.831 30.5515 127.038 32.2354 127.224 33.8331C127.596 37.0499 127.823 39.9429 127.927 42.4689C128.133 47.3697 127.927 50.457 126.996 50.5865C126.066 50.716 124.929 47.8446 123.586 43.1165C122.924 40.7417 122.242 37.9135 121.518 34.7614C121.229 33.2717 120.919 31.6957 120.588 30.0765C119.431 32.9319 117.989 35.6527 116.288 38.1941C114.226 41.3034 111.879 44.1956 109.281 46.8299C105.659 50.6457 101.613 53.9944 97.2288 56.8043C84.8163 64.6373 70.3244 68.1032 55.8849 66.6923C47.9668 65.9421 40.2212 63.8341 32.9597 60.4529C26.0992 57.2689 19.8077 52.8884 14.3549 47.4992C13.0855 46.2322 11.8781 44.8992 10.7373 43.5051C10.1791 42.8143 9.62097 42.1666 9.0835 41.3462C8.54603 40.5258 8.02923 39.8781 7.59512 39.1872C5.91692 36.4077 4.53077 33.4472 3.46072 30.3571C1.56985 25.2619 0.426881 19.8975 0.0705156 14.4457C-0.40494 5.27013 1.66226 -0.127256 2.13771 0.00228119C2.61317 0.131818 1.7863 5.5508 3.12998 14.165C3.89424 19.197 5.28411 24.1033 7.26437 28.7595C8.43445 31.5088 9.86813 34.1273 11.5435 36.5749C11.9688 37.203 12.4241 37.8083 12.9078 38.3884C13.4039 38.9713 13.9828 39.5543 14.5202 40.1588C15.5745 41.3894 16.8148 42.4904 18.0138 43.6563C23.241 48.3641 29.1691 52.1489 35.5643 54.8612C42.2124 57.6759 49.2452 59.3737 56.4017 59.8916C69.1981 60.7949 81.9491 57.5448 92.9084 50.5865C99.6414 46.3494 105.575 40.8617 110.418 34.3944C112.485 31.5014 114.014 29.2129 115.089 27.5073L112.381 28.0039L103.823 29.7095" fill="url(#paint0_linear_156_1308)"/>
<defs>
<linearGradient id="paint0_linear_156_1308" x1="64" y1="0" x2="64" y2="67" gradientUnits="userSpaceOnUse">
<stop stop-color="#E04047"/>
<stop offset="1" stop-color="#8A0002"/>
</linearGradient>
</defs>
</svg>
