<svg width="81" height="85" viewBox="0 0 81 85" fill="none" xmlns="http://www.w3.org/2000/svg">
<path d="M49 21V36" stroke="url(#paint0_linear_192_8)" stroke-width="1.07316" stroke-linecap="round" stroke-dasharray="0.36 3.58"/>
<path d="M1 1V44" stroke="url(#paint1_linear_192_8)" stroke-width="1.07316" stroke-linecap="round" stroke-dasharray="1.43 3.58"/>
<rect width="32.51" height="21.7721" rx="5.72351" transform="matrix(1 0 -0.277818 0.960634 9.63867 33.0361)" fill="url(#paint2_linear_192_8)"/>
<rect width="24.0946" height="16.1362" rx="5.72351" transform="matrix(1 0 -0.277818 0.960634 36.1313 53.9771)" fill="url(#paint3_linear_192_8)"/>
<rect width="24.0946" height="16.1362" rx="5.72351" transform="matrix(1 0 -0.277818 0.960634 7.22852 69.499)" fill="url(#paint4_linear_192_8)"/>
<rect width="24.0946" height="16.1362" rx="5.72351" transform="matrix(1 0 -0.277818 0.960634 56.2695 69.1646)" fill="url(#paint5_linear_192_8)"/>
<defs>
<linearGradient id="paint0_linear_192_8" x1="49.5" y1="21" x2="49.5" y2="36" gradientUnits="userSpaceOnUse">
<stop stop-color="#E04047"/>
<stop offset="1" stop-color="#8A0002"/>
</linearGradient>
<linearGradient id="paint1_linear_192_8" x1="1.5" y1="1" x2="1.5" y2="44" gradientUnits="userSpaceOnUse">
<stop stop-color="#E04047"/>
<stop offset="1" stop-color="#8A0002"/>
</linearGradient>
<linearGradient id="paint2_linear_192_8" x1="16.255" y1="0" x2="16.255" y2="21.7721" gradientUnits="userSpaceOnUse">
<stop stop-color="#E04047"/>
<stop offset="0.995" stop-color="#8A0002"/>
</linearGradient>
<linearGradient id="paint3_linear_192_8" x1="12.0473" y1="0" x2="12.0473" y2="16.1362" gradientUnits="userSpaceOnUse">
<stop stop-color="#E04047"/>
<stop offset="0.995" stop-color="#8A0002"/>
</linearGradient>
<linearGradient id="paint4_linear_192_8" x1="12.0473" y1="0" x2="12.0473" y2="16.1362" gradientUnits="userSpaceOnUse">
<stop stop-color="#E04047"/>
<stop offset="0.995" stop-color="#8A0002"/>
</linearGradient>
<linearGradient id="paint5_linear_192_8" x1="12.0473" y1="0" x2="12.0473" y2="16.1362" gradientUnits="userSpaceOnUse">
<stop stop-color="#E04047"/>
<stop offset="0.995" stop-color="#8A0002"/>
</linearGradient>
</defs>
</svg>
