<svg width="778" height="776" viewBox="0 0 778 776" fill="none" xmlns="http://www.w3.org/2000/svg">
<path d="M466.841 83.1777C467.383 154.105 467.925 168.546 470.272 175.676C481.285 207.666 503.131 226.86 537.977 235.269C559.281 240.205 611.639 239.839 639.624 234.355C663.095 229.603 684.76 223.387 704.259 215.527C711.481 212.602 717.8 210.225 718.161 210.225C718.703 210.225 719.064 234.355 719.064 263.969V317.713L712.564 326.671C704.62 337.456 701.371 340.198 687.468 348.241C672.844 356.65 655.151 360.672 636.916 359.758C624.819 359.027 620.125 357.93 608.931 352.446C579.141 337.821 556.753 339.101 534.727 356.65C524.074 365.242 513.422 380.78 500.242 407.286L487.965 432.148V386.995C487.965 334.531 491.215 339.65 462.147 345.682C429.107 352.263 409.789 365.607 398.776 389.372L393.179 401.254V528.302V655.349L443.912 655.898L494.826 656.263L502.951 639.263C517.214 609.649 536.352 584.605 556.934 568.518C569.391 558.83 593.043 550.238 607.487 550.238C617.236 550.238 627.888 556.819 634.749 567.239C645.582 583.142 647.026 591.734 646.485 635.241L645.943 673.447L633.305 676.006C571.197 687.888 529.852 703.061 503.853 723.352C491.576 732.858 486.16 739.804 480.021 753.149C474.244 766.128 472.438 773.257 475.147 773.257C476.23 773.257 477.133 771.429 477.133 769.052C477.133 763.02 486.701 744.191 494.104 735.417C513.061 713.298 560.184 693.372 624.277 680.393L649.554 675.092L649.373 635.058C649.373 603.251 648.651 593.014 646.304 584.788C642.332 571.443 634.749 560.109 625 553.528C617.597 548.41 616.153 548.044 603.515 548.958C578.96 550.421 560.545 559.744 538.699 581.68C522.991 597.401 503.131 628.477 495.368 649.5L493.382 654.435L445.176 654.07L396.79 653.521L395.887 533.786C395.345 467.977 395.526 410.394 396.429 405.824C399.678 386.264 415.386 365.425 433.079 357.016C442.829 352.629 482.188 343.306 484.896 344.951C485.799 345.499 485.799 369.081 485.257 397.415C483.993 448.965 484.535 454.449 489.771 437.814C494.284 423.921 508.006 395.953 517.936 380.963C534.185 356.102 549.893 345.682 571.016 345.499C584.918 345.499 597.737 348.79 608.931 355.188C636.555 370.909 682.052 362.134 707.509 336.359C723.217 320.455 722.675 322.832 722.675 260.13V204.741L715.995 207.666C666.886 229.42 606.042 240.753 563.072 236.183C510.534 230.516 483.271 211.322 472.438 172.385C469.911 163.611 469.369 148.255 468.647 81.3497C468.286 37.1115 467.383 0.551017 467.022 0.00260957C466.48 -0.362995 466.3 36.9287 466.841 83.1777Z" fill="#8A0002"/>
<path d="M296.585 11.3374C283.766 54.8444 234.116 81.5335 131.927 99.4482L125.066 100.728V137.837C125.066 179.698 126.691 190.849 134.996 206.022C148.357 230.518 170.744 234.722 203.604 219.184C228.699 207.302 254.879 177.87 271.85 142.224L281.238 122.664L329.986 123.03L378.733 123.395V249.529V375.663L374.039 385.717C367.178 400.341 355.984 412.04 342.985 418.621C333.055 423.374 302.001 431.417 292.793 431.417C289.543 431.417 289.363 429.224 289.363 379.684L289.182 328.134L283.946 341.844C280.877 349.339 274.378 363.598 269.503 373.469C240.615 430.686 211.909 443.482 164.245 420.449C135.538 406.556 95.4566 414.051 69.458 437.815C52.6672 453.171 52.8477 452.257 52.8477 515.507C52.8477 545.669 53.2088 570.347 53.5699 570.347C53.931 570.347 62.2361 567.057 71.9856 563.218C111.164 547.314 161.175 538.174 199.993 539.819C249.462 542.013 279.613 556.271 294.418 584.606C304.529 603.8 304.529 603.617 305.612 692.825L306.695 776L307.056 694.653C307.237 647.124 306.515 610.198 305.612 605.628C300.196 582.047 283.224 560.11 262.823 550.605C246.573 543.11 232.671 539.454 210.464 537.443C170.203 533.421 114.053 543.292 66.2081 562.67C60.9723 564.863 56.2781 565.96 55.7365 565.412C55.1948 564.68 54.6532 541.099 54.6532 512.764V461.397L59.7085 453.171C70.3607 436.536 90.5818 423.008 112.067 418.438C117.483 417.342 128.858 416.793 137.524 417.159C150.523 417.524 155.037 418.621 164.786 423.374C180.674 431.235 188.618 433.245 203.784 433.245C214.436 433.245 218.408 432.331 227.255 427.761C245.671 418.438 262.1 397.599 276.905 364.329C281.238 355.006 285.391 347.328 286.294 347.328C287.377 347.328 287.738 363.415 287.196 390.47C286.474 421.546 286.835 433.794 288.28 434.342C292.432 435.987 334.499 425.933 343.707 421.363C362.484 411.675 377.65 390.652 381.08 370.179C381.802 365.06 382.163 306.746 381.622 240.389C380.538 127.051 380.358 119.739 377.469 119.922C375.664 119.922 352.915 120.288 326.916 120.47L279.433 120.836L270.044 140.396C253.254 175.311 227.797 204.377 203.423 216.442C179.049 228.507 157.564 228.324 145.468 216.076C130.844 201.452 126.51 181.709 127.233 135.46L127.774 103.47L151.245 98.5342C200.173 88.2972 220.936 81.5335 248.198 67.2749C268.058 56.8552 282.683 44.4246 290.807 31.6285C296.404 22.6711 302.904 3.6597 300.376 3.6597C299.654 3.6597 297.848 7.13294 296.585 11.3374Z" fill="#8A0002"/>
<path d="M556.931 62.5213L557.473 92.3181L563.792 91.7697C574.805 90.4901 600.443 82.264 610.373 76.4143C623.733 68.7366 621.206 68.1882 606.04 75.8659C595.388 81.1672 568.486 89.5761 562.167 89.5761C560.903 89.5761 560.181 80.436 560.181 61.2417C560.181 43.1443 559.459 32.9073 558.376 32.9073C557.112 32.9073 556.57 43.1443 556.931 62.5213Z" fill="#8A0002"/>
<path d="M201.979 48.2622C193.493 65.9941 175.077 78.6074 147.815 85.7367C140.052 87.5647 133.371 89.7584 132.649 90.3068C130.844 92.3176 135.357 91.4036 151.065 86.8335C180.133 78.2418 195.299 67.6393 203.784 50.0902C206.492 44.6062 208.117 39.6705 207.756 39.1221C207.215 38.7565 204.687 42.7781 201.979 48.2622Z" fill="#8A0002"/>
<path d="M625.18 86.1027C618.68 88.1135 601.348 92.1352 586.363 95.06C571.558 98.1676 558.739 101.275 557.836 102.189C556.753 103.286 556.572 121.018 557.114 143.868C557.836 178.784 558.378 185.182 561.808 195.053C566.503 208.032 577.877 222.29 586.724 225.947C606.223 234.173 639.624 222.29 665.081 197.795C677.719 185.73 699.204 155.933 699.204 150.266C699.204 148.621 696.315 152.277 692.704 158.31C677.358 184.085 655.692 206.569 637.096 215.71C621.93 223.387 601.889 227.409 592.501 224.85C582.391 222.108 573.724 213.516 567.044 199.623L561.086 187.558L560.544 145.331L559.822 103.103L577.335 99.8129C595.931 96.3396 636.193 86.4683 637.638 85.0059C639.804 82.6294 635.832 82.995 625.18 86.1027Z" fill="#8A0002"/>
<path d="M50.501 201.269C55.3758 209.86 68.1945 220.463 80.6522 226.495C123.08 246.604 204.326 242.399 268.6 216.807C277.447 213.151 285.391 210.226 286.113 210.226C287.016 210.226 287.558 233.99 287.558 262.873V315.52L282.502 323.746C267.698 347.145 235.741 361.769 203.243 359.758C191.688 359.027 186.994 357.748 176.522 352.446C140.774 333.8 110.442 341.295 86.4297 374.383C80.2911 382.974 61.6949 418.986 59.1672 427.395C58.6256 429.589 57.1812 431.051 56.2785 430.503C55.3758 429.772 55.0147 412.954 55.7369 387.727C56.459 364.694 56.6396 344.769 55.9174 343.123C55.0147 340.747 52.3065 340.93 33.8908 344.951C12.5864 349.339 -0.954538 353.726 1.03147 355.737C1.5731 356.285 3.73965 355.92 5.72566 354.823C7.71166 353.726 17.2806 351.167 27.0301 349.156C36.7795 347.145 46.529 345.134 48.8761 344.586L52.8481 343.672V396.136L53.0287 448.783L61.5143 428.675C80.8327 382.792 96.1791 361.404 116.4 351.167C125.066 346.597 129.761 345.5 138.427 345.5C151.065 345.5 169.481 349.887 173.814 353.726C184.286 363.232 217.867 365.791 238.81 358.479C260.476 350.801 282.683 333.618 287.558 320.639C288.641 318.079 289.363 292.122 289.363 260.497V205.108L274.558 211.323C229.061 230.883 168.036 241.12 127.955 236.001C91.1239 231.248 66.3891 219.915 54.473 202C49.0567 194.139 45.9874 193.408 50.501 201.269Z" fill="#8A0002"/>
<path d="M717.257 338.553C714.91 344.951 707.868 360.672 701.369 373.651C686.925 402.351 673.565 418.072 656.774 426.298C639.08 434.707 624.817 433.427 597.194 420.814C586 415.695 579.681 414.233 569.209 413.502C544.474 412.039 517.212 422.276 500.06 439.277C484.172 455.181 484.353 454.267 484.353 516.42C484.353 567.421 484.533 570.712 487.602 569.798C489.227 569.249 498.435 565.776 507.824 561.937C546.641 546.765 594.666 538.173 631.498 539.818C677.176 541.829 704.98 552.98 720.868 575.465C724.84 580.949 728.09 584.239 728.09 582.777C728.09 577.841 714.549 562.12 704.98 555.905C685.12 543.109 659.302 537.076 623.373 537.076C594.305 537.076 573.903 539.818 541.225 548.41C523.351 552.98 514.504 556.088 490.311 566.142C488.505 566.873 487.964 555.539 487.964 513.312V459.568L493.199 451.342C499.518 440.922 508.907 433.244 522.989 426.298C538.336 418.62 551.335 416.244 570.292 417.158C584.194 417.889 588.167 418.986 600.624 425.018C612.721 431.051 617.234 432.148 629.692 432.879C650.816 433.976 660.204 430.502 675.551 415.878C688.55 403.448 699.744 385.899 711.66 359.209L719.062 342.757V388.823C719.062 414.233 719.784 435.072 720.687 435.072C721.409 435.072 732.062 433.062 743.978 430.502C765.824 426.115 781.351 420.814 777.379 419.169C776.295 418.803 772.865 419.717 769.976 421.179C764.921 423.922 730.978 431.416 724.118 431.416C720.687 431.416 720.687 430.32 721.951 379.318C722.673 350.618 722.854 327.219 722.312 327.219C721.77 327.219 719.423 332.338 717.257 338.553Z" fill="#8A0002"/>
<path d="M151.967 551.883C125.066 560.658 98.706 584.057 80.4708 615.499C73.249 627.929 76.6794 626.65 84.4429 614.036C98.5254 590.82 120.191 569.25 139.148 559.561C150.523 553.711 170.563 549.507 180.313 551.152C191.507 552.797 204.145 565.228 210.103 580.583C214.075 590.638 214.255 593.745 214.255 632.316L214.436 673.081L190.062 678.2C155.578 685.329 139.509 689.534 139.509 691.544C139.509 692.276 140.954 692.641 142.759 692.093C153.953 688.62 184.104 681.673 199.27 678.931L217.144 675.823V637.801C217.144 616.595 216.241 595.573 215.158 590.089C211.186 571.626 199.812 554.991 187.715 550.421C180.132 547.496 163.341 548.227 151.967 551.883Z" fill="#8A0002"/>
<path d="M196.381 688.256C177.244 693.192 171.466 695.386 163.342 700.504C153.592 706.537 158.106 706.354 170.202 700.139C180.854 694.655 204.867 687.342 211.908 687.342C214.978 687.342 215.339 689.719 215.88 715.128L216.422 743.097L216.783 713.3C216.964 690.633 216.603 683.686 214.978 683.686C213.714 683.869 205.409 685.88 196.381 688.256Z" fill="#8A0002"/>
<path d="M627.706 688.071C593.402 697.211 573.542 712.749 566.501 736.148C564.153 744.557 568.487 739.987 571.556 731.029C575.528 719.878 586.902 707.631 599.36 701.415C609.109 696.48 628.067 689.899 638.358 688.071C641.969 687.522 645.58 686.243 646.121 685.329C647.385 683.135 646.482 683.318 627.706 688.071Z" fill="#8A0002"/>
</svg>
