<svg width="108" height="76" viewBox="0 0 108 76" fill="none" xmlns="http://www.w3.org/2000/svg">
<path d="M52.7292 2.9589C50.3887 2.9589 49.1977 3.20893 48.1015 3.79479C47.1872 4.27584 46.4403 5.02277 45.9592 5.93704C45.3734 7.03184 45.1233 8.22427 45.1233 10.5633V19.0228C45.1233 21.3633 45.3734 22.5542 45.9592 23.6505C46.4578 24.5826 47.1694 25.2942 48.1015 25.7928C49.1963 26.3786 50.3887 26.6287 52.7292 26.6287H55.2709C57.6114 26.6287 58.8023 26.3786 59.8986 25.7928C60.8129 25.3117 61.5598 24.5648 62.0409 23.6505C62.6267 22.5557 62.8768 21.3633 62.8768 19.0228V10.5633C62.8768 8.22279 62.6267 7.03184 62.0409 5.93556C61.5598 5.02129 60.8129 4.27436 59.8986 3.79332C58.8038 3.20893 57.6114 2.9589 55.2724 2.9589H52.7277H52.7292ZM52.7292 0H55.2709C58.2505 0 59.8483 0.411288 61.2952 1.18504C62.7248 1.94176 63.8939 3.11083 64.6506 4.54044C65.4244 5.98734 65.8357 7.58515 65.8357 10.5648V19.0243C65.8357 22.0039 65.4244 23.6017 64.6506 25.0486C63.8939 26.4782 62.7248 27.6473 61.2952 28.404C59.8483 29.1778 58.2505 29.589 55.2709 29.589H52.7277C49.7481 29.589 48.1503 29.1778 46.7034 28.404C45.2738 27.6473 44.1047 26.4782 43.348 25.0486C42.5757 23.6017 42.1644 22.0039 42.1644 19.0243V10.5633C42.1644 7.58367 42.5757 5.98586 43.3495 4.53896C44.1068 3.10969 45.2764 1.94113 46.7063 1.18504C48.1518 0.411288 49.7496 0 52.7292 0ZM52.5206 5.91781H55.4795V13.3151H52.5206V5.91781Z" fill="url(#paint0_linear_152_862)"/>
<path d="M22.2129 60.5891L18.0049 48.9091H19.9409L23.3489 58.8291H23.3809L26.7889 48.9091H28.7249L24.5169 60.5891H22.2129ZM32.7763 60.7491C31.3363 60.7491 30.2269 60.3758 29.4483 59.6291C28.6696 58.8824 28.2803 57.8158 28.2803 56.4291C28.2803 55.0851 28.6376 54.0291 29.3523 53.2611C30.0776 52.4931 31.0696 52.1091 32.3283 52.1091C33.5443 52.1091 34.4776 52.4718 35.1283 53.1971C35.7896 53.9224 36.1203 54.9518 36.1203 56.2851C36.1203 56.4238 36.1149 56.5784 36.1042 56.7491C36.1042 56.9198 36.0989 57.0531 36.0883 57.1491H29.2403V55.7891H34.7763L34.5043 56.2051C34.5043 55.2984 34.3229 54.6264 33.9603 54.1891C33.5976 53.7411 33.0536 53.5171 32.3283 53.5171C31.5603 53.5171 30.9736 53.7518 30.5683 54.2211C30.1736 54.6904 29.9763 55.3731 29.9763 56.2691V56.7491C29.9763 57.6131 30.2003 58.2584 30.6483 58.6851C31.1069 59.1011 31.7949 59.3091 32.7123 59.3091C33.1603 59.3091 33.6349 59.2664 34.1363 59.1811C34.6483 59.0851 35.1016 58.9624 35.4963 58.8131L35.7203 60.2051C35.3149 60.3758 34.8509 60.5091 34.3283 60.6051C33.8163 60.7011 33.2989 60.7491 32.7763 60.7491ZM35.3587 62.6051C36.0201 62.5411 36.5587 62.4504 36.9748 62.3331C37.4014 62.2264 37.7268 62.0664 37.9508 61.8531C38.1854 61.6504 38.3454 61.3784 38.4308 61.0371C38.5161 60.6958 38.5588 60.2638 38.5588 59.7411V52.2691H40.3188V59.7411C40.3188 60.5091 40.2441 61.1544 40.0948 61.6771C39.9454 62.1998 39.6948 62.6211 39.3428 62.9411C38.9908 63.2718 38.5108 63.5278 37.9028 63.7091C37.2948 63.8904 36.5321 64.0238 35.6147 64.1091L35.3587 62.6051ZM38.5588 50.6691V48.9091H40.3188V50.6691H38.5588ZM44.8559 60.7491C44.0239 60.7491 43.3679 60.5251 42.8879 60.0771C42.4079 59.6184 42.1679 58.9998 42.1679 58.2211C42.1679 57.2504 42.5519 56.5038 43.3199 55.9811C44.0879 55.4478 45.1812 55.1811 46.5999 55.1811H47.7999C47.7999 54.7544 47.7465 54.4238 47.6399 54.1891C47.5332 53.9544 47.3465 53.7891 47.0799 53.6931C46.8239 53.5971 46.4665 53.5491 46.0079 53.5491C45.4639 53.5491 44.9092 53.6024 44.3439 53.7091C43.7892 53.8158 43.2612 53.9758 42.7599 54.1891L42.5199 52.7651C43.0532 52.5624 43.6399 52.4024 44.2799 52.2851C44.9305 52.1678 45.5812 52.1091 46.2319 52.1091C47.0639 52.1091 47.7145 52.2104 48.1839 52.4131C48.6639 52.6158 49.0052 52.9571 49.2079 53.4371C49.4212 53.9171 49.5279 54.5518 49.5279 55.3411V60.5891H47.8799L47.8639 59.6291H47.8319C47.5439 59.9598 47.1172 60.2318 46.5519 60.4451C45.9972 60.6478 45.4319 60.7491 44.8559 60.7491ZM45.4639 59.3411C45.8905 59.3411 46.2799 59.2611 46.6319 59.1011C46.9945 58.9411 47.2772 58.7278 47.4799 58.4611C47.6932 58.1944 47.7999 57.8958 47.7999 57.5651V56.4931H46.8399C45.8585 56.4931 45.1225 56.6211 44.6319 56.8771C44.1412 57.1331 43.8959 57.5224 43.8959 58.0451C43.8959 58.4504 44.0292 58.7704 44.2959 59.0051C44.5732 59.2291 44.9625 59.3411 45.4639 59.3411ZM56.232 60.5891V52.2691H57.848L57.864 53.2611H57.896C58.1947 52.8984 58.5573 52.6158 58.984 52.4131C59.4107 52.2104 59.9067 52.1091 60.472 52.1091C61.0267 52.1091 61.496 52.2104 61.88 52.4131C62.264 52.6051 62.536 52.8878 62.696 53.2611H62.728C63.0373 52.8664 63.4 52.5784 63.816 52.3971C64.2427 52.2051 64.7387 52.1091 65.304 52.1091C66.2107 52.1091 66.872 52.3491 67.288 52.8291C67.704 53.2984 67.912 54.0451 67.912 55.0691V60.5891H66.216V55.4691C66.216 54.8078 66.104 54.3224 65.88 54.0131C65.656 53.7038 65.2987 53.5491 64.808 53.5491C64.232 53.5491 63.7733 53.7411 63.432 54.1251C63.0907 54.4984 62.92 54.9998 62.92 55.6291V60.5891H61.224V55.3091C61.224 54.7438 61.1013 54.3118 60.856 54.0131C60.6107 53.7038 60.264 53.5491 59.816 53.5491C59.464 53.5491 59.144 53.6398 58.856 53.8211C58.568 54.0024 58.3387 54.2531 58.168 54.5731C58.008 54.8824 57.928 55.2344 57.928 55.6291V60.5891H56.232ZM72.0903 60.7491C71.2583 60.7491 70.6023 60.5251 70.1223 60.0771C69.6423 59.6184 69.4023 58.9998 69.4023 58.2211C69.4023 57.2504 69.7863 56.5038 70.5543 55.9811C71.3223 55.4478 72.4156 55.1811 73.8343 55.1811H75.0343C75.0343 54.7544 74.9809 54.4238 74.8743 54.1891C74.7676 53.9544 74.5809 53.7891 74.3143 53.6931C74.0583 53.5971 73.7009 53.5491 73.2423 53.5491C72.6983 53.5491 72.1436 53.6024 71.5783 53.7091C71.0236 53.8158 70.4956 53.9758 69.9943 54.1891L69.7543 52.7651C70.2876 52.5624 70.8743 52.4024 71.5143 52.2851C72.1649 52.1678 72.8156 52.1091 73.4663 52.1091C74.2983 52.1091 74.9489 52.2104 75.4183 52.4131C75.8983 52.6158 76.2396 52.9571 76.4423 53.4371C76.6556 53.9171 76.7623 54.5518 76.7623 55.3411V60.5891H75.1143L75.0983 59.6291H75.0663C74.7783 59.9598 74.3516 60.2318 73.7863 60.4451C73.2316 60.6478 72.6663 60.7491 72.0903 60.7491ZM72.6983 59.3411C73.1249 59.3411 73.5143 59.2611 73.8663 59.1011C74.2289 58.9411 74.5116 58.7278 74.7143 58.4611C74.9276 58.1944 75.0343 57.8958 75.0343 57.5651V56.4931H74.0743C73.0929 56.4931 72.3569 56.6211 71.8663 56.8771C71.3756 57.1331 71.1303 57.5224 71.1303 58.0451C71.1303 58.4504 71.2636 58.7704 71.5303 59.0051C71.8076 59.2291 72.1969 59.3411 72.6983 59.3411ZM79.11 50.6691V48.9091H80.87V50.6691H79.11ZM79.11 60.5891V52.2691H80.87V60.5891H79.11ZM86.1704 60.7491C85.797 60.7491 85.4077 60.7224 85.0024 60.6691C84.6077 60.6264 84.229 60.5624 83.8664 60.4771C83.5037 60.3811 83.1837 60.2744 82.9064 60.1571L83.1464 58.7491C83.6157 58.9198 84.0904 59.0584 84.5704 59.1651C85.0504 59.2611 85.525 59.3091 85.9944 59.3091C86.613 59.3091 87.0717 59.2238 87.3704 59.0531C87.6797 58.8718 87.8344 58.6051 87.8344 58.2531C87.8344 58.0504 87.781 57.8851 87.6744 57.7571C87.5677 57.6184 87.381 57.4958 87.1144 57.3891C86.8477 57.2718 86.4797 57.1598 86.0104 57.0531C85.3704 56.8931 84.8104 56.7064 84.3304 56.4931C83.861 56.2798 83.4984 56.0078 83.2424 55.6771C82.9864 55.3464 82.8584 54.9304 82.8584 54.4291C82.8584 53.6718 83.1464 53.0958 83.7224 52.7011C84.309 52.3064 85.1517 52.1091 86.2504 52.1091C86.7624 52.1091 87.285 52.1518 87.8184 52.2371C88.3624 52.3224 88.8584 52.4451 89.3064 52.6051L89.0504 54.0131C88.6237 53.8531 88.1917 53.7358 87.7544 53.6611C87.3277 53.5864 86.8957 53.5491 86.4584 53.5491C85.829 53.5491 85.3597 53.6291 85.0504 53.7891C84.7517 53.9384 84.6024 54.1678 84.6024 54.4771C84.6024 54.6584 84.6504 54.8131 84.7464 54.9411C84.853 55.0691 85.0344 55.1864 85.2904 55.2931C85.5464 55.3998 85.9037 55.5064 86.3624 55.6131C86.8317 55.7198 87.2584 55.8478 87.6424 55.9971C88.037 56.1464 88.3784 56.3278 88.6664 56.5411C88.9544 56.7438 89.1784 56.9891 89.3384 57.2771C89.4984 57.5651 89.5784 57.9064 89.5784 58.3011C89.5784 58.8131 89.4397 59.2504 89.1624 59.6131C88.8957 59.9758 88.5064 60.2584 87.9944 60.4611C87.493 60.6531 86.885 60.7491 86.1704 60.7491Z" fill="#8A0002" fill-opacity="0.8"/>
<defs>
<linearGradient id="paint0_linear_152_862" x1="63.2149" y1="-1.37378" x2="38.101" y2="25.2097" gradientUnits="userSpaceOnUse">
<stop stop-color="#E04047"/>
<stop offset="1" stop-color="#8A0002"/>
</linearGradient>
</defs>
</svg>
