<svg width="180" height="179" viewBox="0 0 180 179" fill="none" xmlns="http://www.w3.org/2000/svg">
<g filter="url(#filter0_b_220_1070)">
<circle cx="88.7016" cy="90.7095" r="31.1734" transform="rotate(-104.678 88.7016 90.7095)" fill="#F5E3E3" fill-opacity="0.7"/>
</g>
<path d="M134.594 99.9206L143.611 102.677L142.317 106.911C141.92 108.209 141.072 108.66 139.774 108.263L138.35 107.827C137.209 107.479 136.731 106.78 136.918 105.732L132.847 106.431L132.66 106.246L132.88 105.527L137.167 104.779L138.037 101.931L134.326 100.796L134.594 99.9206ZM138.821 102.17L137.779 105.581C137.571 106.261 137.812 106.706 138.5 106.916L140.173 107.427C140.852 107.635 141.296 107.399 141.503 106.719L142.546 103.309L138.821 102.17Z" fill="url(#paint0_linear_220_1070)"/>
<path d="M129.707 111.668L135.45 119.541L134.561 120.82L125.189 118.163L125.088 117.926L125.517 117.309L128.057 118.061L130.609 114.392L129.02 112.272L129.442 111.666L129.707 111.668ZM131.11 115.107L128.894 118.293L134.22 119.85L134.423 119.558L131.11 115.107Z" fill="url(#paint1_linear_220_1070)"/>
<path d="M124.53 121.379L129.895 126.465L129.266 127.129L123.801 121.949C123.285 121.46 122.78 121.477 122.285 121.999L120.198 124.201C119.709 124.717 119.722 125.219 120.238 125.708L125.703 130.888L125.073 131.552L119.707 126.466C118.722 125.533 118.697 124.573 119.631 123.588L121.652 121.456C122.586 120.471 123.545 120.445 124.53 121.379Z" fill="url(#paint2_linear_220_1070)"/>
<path d="M122.222 132.778L122.671 133.481L116.475 137.438L116.026 136.735L118.744 134.999L114.118 127.755L114.878 127.27L119.504 134.514L122.222 132.778Z" fill="url(#paint3_linear_220_1070)"/>
<path d="M109.766 130.649L112.962 139.52L112.101 139.83L110.73 136.025L105.857 137.78L107.228 141.586L106.367 141.896L103.171 133.025L104.032 132.715L105.579 137.009L110.452 135.253L108.905 130.959L109.766 130.649Z" fill="url(#paint4_linear_220_1070)"/>
<path d="M99.5346 134.093L100.695 143.45L94.6742 144.197L94.5716 143.37L99.6841 142.736L99.2888 139.549L94.5831 140.133L94.4821 139.319L99.1879 138.735L98.7286 135.033L93.6161 135.667L93.5135 134.84L99.5346 134.093Z" fill="url(#paint5_linear_220_1070)"/>
<path d="M89.7823 134.965L89.6625 144.393L88.6377 144.38L83.425 136.237L83.3225 144.312L82.4206 144.301L82.5404 134.873L83.5515 134.885L88.7642 143.028L88.8668 134.953L89.7823 134.965Z" fill="url(#paint6_linear_220_1070)"/>
<path d="M77.4696 142.703L77.1576 143.476L70.3403 140.724L70.6523 139.952L73.6428 141.159L76.8602 133.188L77.6965 133.526L74.4791 141.496L77.4696 142.703Z" fill="url(#paint7_linear_220_1070)"/>
<path d="M70.0267 130.208L65.4279 138.44L64.6287 137.993L69.2274 129.762L70.0267 130.208Z" fill="url(#paint8_linear_220_1070)"/>
<path d="M62.8559 128.335L59.412 132.438C58.5393 133.478 57.5831 133.561 56.5434 132.688L53.55 130.176L53.4054 129.519L53.6777 129.195L57.1107 132.076C57.662 132.539 58.166 132.498 58.6229 131.954L62.2425 127.642C62.6993 127.098 62.6521 126.594 62.1009 126.131L58.6679 123.25L58.9402 122.925L59.612 122.954L62.6054 125.467C63.6451 126.339 63.7286 127.295 62.8559 128.335Z" fill="url(#paint9_linear_220_1070)"/>
<path d="M55.319 118.74L47.3676 123.808L46.8756 123.036L54.827 117.968L55.319 118.74Z" fill="url(#paint10_linear_220_1070)"/>
<path d="M43.6738 117.129L42.8876 117.406L40.4456 110.471L41.2318 110.195L42.303 113.236L50.4103 110.381L50.7099 111.232L42.6026 114.087L43.6738 117.129Z" fill="url(#paint11_linear_220_1070)"/>
<path d="M48.3188 104.604L38.9416 105.59L38.3072 99.5557L39.1362 99.4685L39.6748 104.592L42.8685 104.256L42.3728 99.5405L43.1882 99.4547L43.6839 104.171L47.3941 103.78L46.8554 98.657L47.6844 98.5698L48.3188 104.604ZM37.6415 103.418L35.5574 101.892L36.0425 101.278L38.0536 102.894L37.6415 103.418Z" fill="url(#paint12_linear_220_1070)"/>
<path d="M43.1122 90.793L40.627 90.6985L40.7179 88.3088L43.2031 88.4034L43.1122 90.793Z" fill="url(#paint13_linear_220_1070)"/>
<path d="M135.948 90.3642L138.434 90.4401L138.361 92.8304L135.875 92.7545L135.948 90.3642Z" fill="url(#paint14_linear_220_1070)"/>
<path d="M46.1709 80.1958L37.149 77.4552L38.4359 73.2189C38.8305 71.9201 39.6771 71.4679 40.9759 71.8625L42.4011 72.2954C43.543 72.6423 44.0214 73.3398 43.8363 74.388L47.9067 73.6822L48.0932 73.8674L47.8748 74.5866L43.5895 75.3414L42.7236 78.1917L46.437 79.3198L46.1709 80.1958ZM41.9391 77.9534L42.9758 74.5408C43.1823 73.8609 42.9413 73.4164 42.2527 73.2072L40.5791 72.6988C39.8992 72.4923 39.4559 72.7289 39.2494 73.4088L38.2127 76.8214L41.9391 77.9534Z" fill="url(#paint15_linear_220_1070)"/>
<path d="M50.2327 66.9604L45.0782 58.6901L46.0584 57.4794L55.2115 60.8112L55.2954 61.055L54.8225 61.6391L52.3438 60.7048L49.532 64.1776L50.9616 66.4076L50.4972 66.9811L50.2327 66.9604ZM49.0839 63.428L51.526 60.4118L46.3279 58.4712L46.1044 58.7474L49.0839 63.428Z" fill="url(#paint16_linear_220_1070)"/>
<path d="M56.1027 57.6518L51.122 52.1886L51.7986 51.5718L56.8713 57.136C57.35 57.6611 57.8553 57.6812 58.3872 57.1963L60.629 55.1525C61.1541 54.6738 61.1773 54.1719 60.6986 53.6467L55.6259 48.0825L56.3025 47.4657L61.2831 52.9289C62.1976 53.932 62.1533 54.8908 61.1502 55.8053L58.9791 57.7847C57.976 58.6992 57.0172 58.6549 56.1027 57.6518Z" fill="url(#paint17_linear_220_1070)"/>
<path d="M59.2349 46.451L58.8386 45.7177L65.3064 42.2224L65.7027 42.9558L62.8655 44.489L66.952 52.0508L66.1586 52.4796L62.0721 44.9178L59.2349 46.451Z" fill="url(#paint18_linear_220_1070)"/>
<path d="M71.5032 49.4816L68.9614 40.4018L69.8431 40.1549L70.9335 44.0501L75.9208 42.6539L74.8304 38.7588L75.7121 38.512L78.2539 47.5918L77.3722 47.8386L76.1418 43.4435L71.1545 44.8396L72.3849 49.2348L71.5032 49.4816Z" fill="url(#paint19_linear_220_1070)"/>
<path d="M81.9579 46.792L81.4816 37.3751L87.5412 37.0686L87.5833 37.9011L82.4381 38.1614L82.6003 41.3686L87.3361 41.129L87.3775 41.9479L82.6418 42.1874L82.8302 45.9132L87.9754 45.653L88.0175 46.4855L81.9579 46.792Z" fill="url(#paint20_linear_220_1070)"/>
<path d="M91.7483 46.6321L92.5543 37.2378L93.5754 37.3254L98.1814 45.8262L98.8717 37.7797L99.7703 37.8568L98.9643 47.2512L97.9568 47.1648L93.3509 38.6639L92.6606 46.7104L91.7483 46.6321Z" fill="url(#paint21_linear_220_1070)"/>
<path d="M104.592 39.811L104.959 39.0628L111.558 42.3039L111.19 43.0521L108.296 41.6303L104.507 49.3453L103.697 48.9477L107.486 41.2327L104.592 39.811Z" fill="url(#paint22_linear_220_1070)"/>
<path d="M111.105 52.8147L116.291 44.94L117.056 45.4436L111.87 53.3182L111.105 52.8147Z" fill="url(#paint23_linear_220_1070)"/>
<path d="M118.12 55.2051L121.853 51.3639C122.799 50.3905 123.759 50.3768 124.733 51.3229L127.535 54.0469L127.632 54.7123L127.336 55.0161L124.122 51.8921C123.606 51.3905 123.1 51.3944 122.605 51.904L118.681 55.9412C118.186 56.4508 118.196 56.9563 118.712 57.458L121.926 60.5819L121.631 60.8857L120.963 60.8082L118.161 58.0843C117.187 57.1382 117.174 56.1785 118.12 55.2051Z" fill="url(#paint24_linear_220_1070)"/>
<path d="M124.655 64.5689L132.485 59.3158L132.995 60.0761L125.165 65.3292L124.655 64.5689Z" fill="url(#paint25_linear_220_1070)"/>
<path d="M135.434 64.1586L136.187 63.8L139.349 70.4368L138.596 70.7954L137.209 67.8841L129.45 71.5815L129.062 70.7673L136.821 67.0699L135.434 64.1586Z" fill="url(#paint26_linear_220_1070)"/>
<path d="M132.488 77.8633L141.823 76.537L142.677 82.544L141.851 82.6612L141.127 77.5607L137.947 78.0124L138.614 82.7071L137.803 82.8224L137.136 78.1277L133.442 78.6525L134.167 83.753L133.342 83.8702L132.488 77.8633ZM143.202 78.66L145.34 80.1091L144.877 80.7407L142.809 79.1989L143.202 78.66Z" fill="url(#paint27_linear_220_1070)"/>
<path d="M88.0082 75.5885C89.5191 79.6082 89.5242 79.622 90.1566 80.2681C90.4963 80.6138 91.0986 81.0517 91.4823 81.2249C93.6516 82.2342 97.9317 80.7838 101.284 77.9184C101.791 77.4674 102.251 77.0963 102.305 77.0766C102.359 77.057 102.853 78.2857 103.407 79.8056L104.419 82.5827L104.054 83.467C103.56 84.6647 102.811 85.3757 101.448 85.9507C100.498 86.3596 100.313 86.3958 99.5858 86.2852C98.6211 86.1516 97.3883 86.4131 96.7782 86.9173C96.0569 87.4932 95.6059 88.7689 95.4049 90.8143C95.2857 92.0787 95.1638 92.6239 95.0511 92.5242C94.9485 92.452 94.5472 91.393 94.163 90.1713C93.3509 87.6499 93.5427 87.7992 92.1542 88.6809C90.8097 89.5153 90.2699 90.3381 90.1893 91.6666C90.1363 92.359 90.2286 92.654 92.3588 98.4985L94.5897 104.619L96.921 103.77L99.2389 102.925L99.4122 101.516C99.6077 99.8321 100.332 97.9246 101.128 97.0084C101.482 96.5976 101.961 96.2354 102.466 95.9885C103.549 95.4842 104.135 95.5837 105.006 96.4244C105.629 97.0428 105.687 97.1622 106.408 99.138L107.163 101.211L106.42 101.685C104.098 103.189 103.154 103.908 102.251 104.864C101.172 106.008 100.637 106.97 100.521 107.951C100.472 108.486 100.532 109.027 100.653 108.983C100.828 108.919 102.659 107.407 103.35 106.748C104.147 106.004 104.247 105.858 104.259 105.306C104.275 104.22 105.125 103.033 106.539 102.095C107.06 101.765 107.223 101.502 107.824 100.093C108.479 98.5394 109.228 95.7777 109.097 95.4185C108.982 95.1007 108.192 94.6527 107.506 94.5274C106.425 94.3265 105.162 94.5051 103.545 95.0945C101.725 95.7576 100.352 96.5555 98.7512 97.8591C98.0838 98.4154 97.4485 98.8504 97.3795 98.8286C97.1825 98.7908 95.4031 93.9924 95.4036 93.4913C95.4043 92.865 95.9747 91.7493 96.6422 91.0677C97.1648 90.5329 97.4816 90.3548 98.4198 89.9972C99.417 89.6337 99.6612 89.5917 100.375 89.7072C101.304 89.8693 102.48 89.5347 103.119 88.9419C103.739 88.3402 104.278 86.7194 104.405 85.0141C104.461 84.164 104.554 83.4569 104.608 83.4372C104.676 83.4127 105.094 84.4342 105.552 85.6915L106.388 87.9851L107 87.6526C107.335 87.4835 107.834 87.1765 108.113 86.9806C108.58 86.6696 108.622 86.576 108.547 86.1182C108.432 85.4246 107.323 82.886 106.622 81.7171C105.713 80.1858 104.53 78.6138 103.502 77.5953C102.417 76.5037 100.55 74.899 100.415 74.9482C100.361 74.9678 100.213 75.3976 100.094 75.9104C99.6239 77.8035 98.7215 79.1811 97.4696 79.9348C96.6811 80.41 96.0732 80.4594 95.3782 80.1023C94.53 79.6601 94.0426 78.8673 93.2924 76.6834L92.6328 74.7481L93.1265 74.4273C94.707 73.4443 95.772 72.6804 95.7317 72.5699C95.7066 72.5008 95.513 72.4305 95.3076 72.4114C95.0197 72.3755 94.8546 72.467 94.4955 72.864C94.0049 73.4028 92.6417 74.3536 92.4751 74.2734C92.4195 74.2467 92.1475 73.6259 91.8755 72.8798L91.377 71.5119L90.7692 71.436C90.047 71.3393 87.0094 71.3821 86.6994 71.495C86.5108 71.5638 86.6635 72.0247 88.0082 75.5885Z" fill="url(#paint28_linear_220_1070)"/>
<path d="M88.0082 75.5885C89.5191 79.6082 89.5242 79.622 90.1566 80.2681C90.4963 80.6138 91.0986 81.0517 91.4823 81.2249C93.6516 82.2342 97.9317 80.7838 101.284 77.9184C101.791 77.4674 102.251 77.0963 102.305 77.0766C102.359 77.057 102.853 78.2857 103.407 79.8056L104.419 82.5827L104.054 83.467C103.56 84.6647 102.811 85.3757 101.448 85.9507C100.498 86.3596 100.313 86.3958 99.5858 86.2852C98.6211 86.1516 97.3883 86.4131 96.7782 86.9173C96.0569 87.4932 95.6059 88.7689 95.4049 90.8143C95.2857 92.0787 95.1638 92.6239 95.0511 92.5242C94.9485 92.452 94.5472 91.393 94.163 90.1713C93.3509 87.6499 93.5427 87.7992 92.1542 88.6809C90.8097 89.5153 90.2699 90.3381 90.1893 91.6666C90.1363 92.359 90.2286 92.654 92.3588 98.4985L94.5897 104.619L96.921 103.77L99.2389 102.925L99.4122 101.516C99.6077 99.8321 100.332 97.9246 101.128 97.0084C101.482 96.5976 101.961 96.2354 102.466 95.9885C103.549 95.4842 104.135 95.5837 105.006 96.4244C105.629 97.0428 105.687 97.1622 106.408 99.138L107.163 101.211L106.42 101.685C104.098 103.189 103.154 103.908 102.251 104.864C101.172 106.008 100.637 106.97 100.521 107.951C100.472 108.486 100.532 109.027 100.653 108.983C100.828 108.919 102.659 107.407 103.35 106.748C104.147 106.004 104.247 105.858 104.259 105.306C104.275 104.22 105.125 103.033 106.539 102.095C107.06 101.765 107.223 101.502 107.824 100.093C108.479 98.5394 109.228 95.7777 109.097 95.4185C108.982 95.1007 108.192 94.6527 107.506 94.5274C106.425 94.3265 105.162 94.5051 103.545 95.0945C101.725 95.7576 100.352 96.5555 98.7512 97.8591C98.0838 98.4154 97.4485 98.8504 97.3795 98.8286C97.1825 98.7908 95.4031 93.9924 95.4036 93.4913C95.4043 92.865 95.9747 91.7493 96.6422 91.0677C97.1648 90.5329 97.4816 90.3548 98.4198 89.9972C99.417 89.6337 99.6612 89.5917 100.375 89.7072C101.304 89.8693 102.48 89.5347 103.119 88.9419C103.739 88.3402 104.278 86.7194 104.405 85.0141C104.461 84.164 104.554 83.4569 104.608 83.4372C104.676 83.4127 105.094 84.4342 105.552 85.6915L106.388 87.9851L107 87.6526C107.335 87.4835 107.834 87.1765 108.113 86.9806C108.58 86.6696 108.622 86.576 108.547 86.1182C108.432 85.4246 107.323 82.886 106.622 81.7171C105.713 80.1858 104.53 78.6138 103.502 77.5953C102.417 76.5037 100.55 74.899 100.415 74.9482C100.361 74.9678 100.213 75.3976 100.094 75.9104C99.6239 77.8035 98.7215 79.1811 97.4696 79.9348C96.6811 80.41 96.0732 80.4594 95.3782 80.1023C94.53 79.6601 94.0426 78.8673 93.2924 76.6834L92.6328 74.7481L93.1265 74.4273C94.707 73.4443 95.772 72.6804 95.7317 72.5699C95.7066 72.5008 95.513 72.4305 95.3076 72.4114C95.0197 72.3755 94.8546 72.467 94.4955 72.864C94.0049 73.4028 92.6417 74.3536 92.4751 74.2734C92.4195 74.2467 92.1475 73.6259 91.8755 72.8798L91.377 71.5119L90.7692 71.436C90.047 71.3393 87.0094 71.3821 86.6994 71.495C86.5108 71.5638 86.6635 72.0247 88.0082 75.5885Z" fill="url(#paint29_linear_220_1070)"/>
<path d="M77.2557 75.281C76.6406 75.7713 75.6529 76.6634 75.0596 77.2554C74.6415 77.6582 74.4745 77.9538 74.4759 78.2507C74.515 79.3634 73.4627 80.8739 72.1906 81.5724C71.7037 81.8281 71.562 82.0676 70.9576 83.5087C70.0544 85.6379 69.4522 88.174 69.7718 88.4645C70.1805 88.832 71.4597 89.2423 72.1737 89.2325C74.5512 89.1798 78.2002 87.5055 80.4386 85.4375C80.8262 85.0771 81.2021 84.7679 81.2694 84.7433C81.3233 84.7237 81.8254 85.9337 82.3744 87.4398L83.3765 90.1893L83.1922 90.8982C82.893 91.9621 81.799 93.0652 80.49 93.6205C79.5753 94.0008 79.3716 94.0282 78.4624 93.9213C76.7906 93.7323 75.7714 94.2447 75.0609 95.6463C74.6779 96.3963 74.5392 96.9791 74.3876 98.4899L74.1952 100.391L73.2836 98.0158C72.2561 95.3225 72.4664 95.4806 71.1538 96.319C69.9389 97.0905 69.9373 97.0442 70.8273 99.1928C72.3604 102.938 74.4789 105.735 77.6316 108.186L78.4223 108.806L78.6591 107.78C79.1481 105.645 80.3286 104.025 81.784 103.495C82.6329 103.186 83.3214 103.357 84.0144 104.044C84.5139 104.535 84.6601 104.81 85.4055 106.73L86.24 108.852L84.8381 109.738C84.0496 110.214 83.2896 110.725 83.1396 110.858L82.87 111.082L83.3076 111.235L83.7452 111.389L84.4566 110.66C84.8476 110.267 85.4358 109.787 85.7711 109.617L86.3692 109.29L86.898 110.741L87.4267 112.191L88.5666 112.261C90.0162 112.343 91.8281 112.246 92.0135 112.085C92.1989 111.923 90.3862 106.699 89.5379 104.958C88.5618 102.95 87.4413 102.137 85.5741 102.082C84.8955 102.064 84.3448 102.186 82.8827 102.656C80.7873 103.357 79.217 104.243 77.5384 105.669C77.0176 106.124 76.544 106.501 76.4767 106.525C76.4228 106.545 75.9106 105.307 75.3516 103.773L74.3343 100.982L74.8001 99.9987C75.1681 99.2072 75.4295 98.8772 76.0631 98.3958C77.2192 97.5049 78.0243 97.2427 79.2803 97.3797C80.1844 97.4728 80.4285 97.4308 81.1816 97.1093C81.8537 96.8174 82.1554 96.5979 82.4589 96.1742C82.9362 95.515 83.3877 93.7383 83.4433 92.2154C83.4726 91.6256 83.5321 91.1187 83.5995 91.0941C83.6534 91.0745 84.0715 92.096 84.5298 93.3533L85.3708 95.6607L85.9958 95.3233C87.2779 94.6525 87.8679 94.0932 88.2629 93.1666C88.4858 92.6471 88.6363 92.0131 88.6148 91.6609C88.5901 91.216 87.9406 89.3084 86.3744 85.0114L84.1787 78.9873L81.8339 79.8419L79.4757 80.7015L79.4242 81.5654C79.207 84.5716 77.8049 87.1331 76.0092 87.8189C75.1114 88.1617 74.5559 88.0199 73.7502 87.2335C73.2086 86.7109 73.1162 86.5411 72.386 84.5377L71.6054 82.3961L72.6653 81.7437C76.6047 79.2748 78.3599 77.1794 78.2359 75.0802C78.2261 74.8021 78.1791 74.7566 77.9146 74.8687C77.7394 74.9325 77.4546 75.1146 77.2557 75.281Z" fill="url(#paint30_linear_220_1070)"/>
<path d="M77.2557 75.281C76.6406 75.7713 75.6529 76.6634 75.0596 77.2554C74.6415 77.6582 74.4745 77.9538 74.4759 78.2507C74.515 79.3634 73.4627 80.8739 72.1906 81.5724C71.7037 81.8281 71.562 82.0676 70.9576 83.5087C70.0544 85.6379 69.4522 88.174 69.7718 88.4645C70.1805 88.832 71.4597 89.2423 72.1737 89.2325C74.5512 89.1798 78.2002 87.5055 80.4386 85.4375C80.8262 85.0771 81.2021 84.7679 81.2694 84.7433C81.3233 84.7237 81.8254 85.9337 82.3744 87.4398L83.3765 90.1893L83.1922 90.8982C82.893 91.9621 81.799 93.0652 80.49 93.6205C79.5753 94.0008 79.3716 94.0282 78.4624 93.9213C76.7906 93.7323 75.7714 94.2447 75.0609 95.6463C74.6779 96.3963 74.5392 96.9791 74.3876 98.4899L74.1952 100.391L73.2836 98.0158C72.2561 95.3225 72.4664 95.4806 71.1538 96.319C69.9389 97.0905 69.9373 97.0442 70.8273 99.1928C72.3604 102.938 74.4789 105.735 77.6316 108.186L78.4223 108.806L78.6591 107.78C79.1481 105.645 80.3286 104.025 81.784 103.495C82.6329 103.186 83.3214 103.357 84.0144 104.044C84.5139 104.535 84.6601 104.81 85.4055 106.73L86.24 108.852L84.8381 109.738C84.0496 110.214 83.2896 110.725 83.1396 110.858L82.87 111.082L83.3076 111.235L83.7452 111.389L84.4566 110.66C84.8476 110.267 85.4358 109.787 85.7711 109.617L86.3692 109.29L86.898 110.741L87.4267 112.191L88.5666 112.261C90.0162 112.343 91.8281 112.246 92.0135 112.085C92.1989 111.923 90.3862 106.699 89.5379 104.958C88.5618 102.95 87.4413 102.137 85.5741 102.082C84.8955 102.064 84.3448 102.186 82.8827 102.656C80.7873 103.357 79.217 104.243 77.5384 105.669C77.0176 106.124 76.544 106.501 76.4767 106.525C76.4228 106.545 75.9106 105.307 75.3516 103.773L74.3343 100.982L74.8001 99.9987C75.1681 99.2072 75.4295 98.8772 76.0631 98.3958C77.2192 97.5049 78.0243 97.2427 79.2803 97.3797C80.1844 97.4728 80.4285 97.4308 81.1816 97.1093C81.8537 96.8174 82.1554 96.5979 82.4589 96.1742C82.9362 95.515 83.3877 93.7383 83.4433 92.2154C83.4726 91.6256 83.5321 91.1187 83.5995 91.0941C83.6534 91.0745 84.0715 92.096 84.5298 93.3533L85.3708 95.6607L85.9958 95.3233C87.2779 94.6525 87.8679 94.0932 88.2629 93.1666C88.4858 92.6471 88.6363 92.0131 88.6148 91.6609C88.5901 91.216 87.9406 89.3084 86.3744 85.0114L84.1787 78.9873L81.8339 79.8419L79.4757 80.7015L79.4242 81.5654C79.207 84.5716 77.8049 87.1331 76.0092 87.8189C75.1114 88.1617 74.5559 88.0199 73.7502 87.2335C73.2086 86.7109 73.1162 86.5411 72.386 84.5377L71.6054 82.3961L72.6653 81.7437C76.6047 79.2748 78.3599 77.1794 78.2359 75.0802C78.2261 74.8021 78.1791 74.7566 77.9146 74.8687C77.7394 74.9325 77.4546 75.1146 77.2557 75.281Z" fill="url(#paint31_linear_220_1070)"/>
<circle cx="88.3964" cy="90.5668" r="31" transform="rotate(-20.0259 88.3964 90.5668)" stroke="url(#paint32_linear_220_1070)"/>
<defs>
<filter id="filter0_b_220_1070" x="37.0229" y="39.0307" width="103.357" height="103.357" filterUnits="userSpaceOnUse" color-interpolation-filters="sRGB">
<feFlood flood-opacity="0" result="BackgroundImageFix"/>
<feGaussianBlur in="BackgroundImageFix" stdDeviation="10.2488"/>
<feComposite in2="SourceAlpha" operator="in" result="effect1_backgroundBlur_220_1070"/>
<feBlend mode="normal" in="SourceGraphic" in2="effect1_backgroundBlur_220_1070" result="shape"/>
</filter>
<linearGradient id="paint0_linear_220_1070" x1="146.078" y1="106.822" x2="128.864" y2="101.56" gradientUnits="userSpaceOnUse">
<stop stop-color="#8A0002"/>
<stop offset="1" stop-color="#E04047"/>
</linearGradient>
<linearGradient id="paint1_linear_220_1070" x1="137.786" y1="122.436" x2="123.009" y2="112.158" gradientUnits="userSpaceOnUse">
<stop stop-color="#8A0002"/>
<stop offset="1" stop-color="#E04047"/>
</linearGradient>
<linearGradient id="paint2_linear_220_1070" x1="129.856" y1="131.698" x2="116.793" y2="119.314" gradientUnits="userSpaceOnUse">
<stop stop-color="#8A0002"/>
<stop offset="1" stop-color="#E04047"/>
</linearGradient>
<linearGradient id="paint3_linear_220_1070" x1="121.077" y1="138.736" x2="111.388" y2="123.566" gradientUnits="userSpaceOnUse">
<stop stop-color="#8A0002"/>
<stop offset="1" stop-color="#E04047"/>
</linearGradient>
<linearGradient id="paint4_linear_220_1070" x1="110.651" y1="144.148" x2="104.55" y2="127.214" gradientUnits="userSpaceOnUse">
<stop stop-color="#8A0002"/>
<stop offset="1" stop-color="#E04047"/>
</linearGradient>
<linearGradient id="paint5_linear_220_1070" x1="97.9168" y1="147.393" x2="95.7009" y2="129.53" gradientUnits="userSpaceOnUse">
<stop stop-color="#8A0002"/>
<stop offset="1" stop-color="#E04047"/>
</linearGradient>
<linearGradient id="paint6_linear_220_1070" x1="85.8747" y1="147.916" x2="86.1032" y2="129.917" gradientUnits="userSpaceOnUse">
<stop stop-color="#8A0002"/>
<stop offset="1" stop-color="#E04047"/>
</linearGradient>
<linearGradient id="paint7_linear_220_1070" x1="71.9521" y1="145.226" x2="78.6899" y2="128.535" gradientUnits="userSpaceOnUse">
<stop stop-color="#8A0002"/>
<stop offset="1" stop-color="#E04047"/>
</linearGradient>
<linearGradient id="paint8_linear_220_1070" x1="63.3185" y1="141.352" x2="72.0977" y2="125.638" gradientUnits="userSpaceOnUse">
<stop stop-color="#8A0002"/>
<stop offset="1" stop-color="#E04047"/>
</linearGradient>
<linearGradient id="paint9_linear_220_1070" x1="53.2186" y1="134.56" x2="64.7911" y2="120.773" gradientUnits="userSpaceOnUse">
<stop stop-color="#8A0002"/>
<stop offset="1" stop-color="#E04047"/>
</linearGradient>
<linearGradient id="paint10_linear_220_1070" x1="43.9569" y1="125.1" x2="59.1364" y2="115.427" gradientUnits="userSpaceOnUse">
<stop stop-color="#8A0002"/>
<stop offset="1" stop-color="#E04047"/>
</linearGradient>
<linearGradient id="paint11_linear_220_1070" x1="38.1334" y1="114.657" x2="55.1114" y2="108.678" gradientUnits="userSpaceOnUse">
<stop stop-color="#8A0002"/>
<stop offset="1" stop-color="#E04047"/>
</linearGradient>
<linearGradient id="paint12_linear_220_1070" x1="35.051" y1="102.738" x2="52.9523" y2="100.856" gradientUnits="userSpaceOnUse">
<stop stop-color="#8A0002"/>
<stop offset="1" stop-color="#E04047"/>
</linearGradient>
<linearGradient id="paint13_linear_220_1070" x1="33.8421" y1="89.1966" x2="51.8291" y2="89.8809" gradientUnits="userSpaceOnUse">
<stop stop-color="#8A0002"/>
<stop offset="1" stop-color="#E04047"/>
</linearGradient>
<linearGradient id="paint14_linear_220_1070" x1="145.23" y1="91.8909" x2="127.238" y2="91.3417" gradientUnits="userSpaceOnUse">
<stop stop-color="#8A0002"/>
<stop offset="1" stop-color="#E04047"/>
</linearGradient>
<linearGradient id="paint15_linear_220_1070" x1="34.6747" y1="73.3144" x2="51.8975" y2="78.5463" gradientUnits="userSpaceOnUse">
<stop stop-color="#8A0002"/>
<stop offset="1" stop-color="#E04047"/>
</linearGradient>
<linearGradient id="paint16_linear_220_1070" x1="42.9589" y1="55.6325" x2="56.9483" y2="66.9594" gradientUnits="userSpaceOnUse">
<stop stop-color="#8A0002"/>
<stop offset="1" stop-color="#E04047"/>
</linearGradient>
<linearGradient id="paint17_linear_220_1070" x1="51.5426" y1="46.9727" x2="63.6695" y2="60.2746" gradientUnits="userSpaceOnUse">
<stop stop-color="#8A0002"/>
<stop offset="1" stop-color="#E04047"/>
</linearGradient>
<linearGradient id="paint18_linear_220_1070" x1="60.8112" y1="40.5925" x2="69.3689" y2="56.428" gradientUnits="userSpaceOnUse">
<stop stop-color="#8A0002"/>
<stop offset="1" stop-color="#E04047"/>
</linearGradient>
<linearGradient id="paint19_linear_220_1070" x1="71.603" y1="35.9539" x2="76.4553" y2="53.2875" gradientUnits="userSpaceOnUse">
<stop stop-color="#8A0002"/>
<stop offset="1" stop-color="#E04047"/>
</linearGradient>
<linearGradient id="paint20_linear_220_1070" x1="84.5399" y1="33.6448" x2="85.4492" y2="51.6218" gradientUnits="userSpaceOnUse">
<stop stop-color="#8A0002"/>
<stop offset="1" stop-color="#E04047"/>
</linearGradient>
<linearGradient id="paint21_linear_220_1070" x1="96.5886" y1="33.9996" x2="95.0501" y2="51.9338" gradientUnits="userSpaceOnUse">
<stop stop-color="#8A0002"/>
<stop offset="1" stop-color="#E04047"/>
</linearGradient>
<linearGradient id="paint22_linear_220_1070" x1="110.278" y1="37.6967" x2="102.343" y2="53.8532" gradientUnits="userSpaceOnUse">
<stop stop-color="#8A0002"/>
<stop offset="1" stop-color="#E04047"/>
</linearGradient>
<linearGradient id="paint23_linear_220_1070" x1="118.607" y1="42.1892" x2="108.707" y2="57.2221" gradientUnits="userSpaceOnUse">
<stop stop-color="#8A0002"/>
<stop offset="1" stop-color="#E04047"/>
</linearGradient>
<linearGradient id="paint24_linear_220_1070" x1="128.185" y1="49.6984" x2="115.639" y2="62.606" gradientUnits="userSpaceOnUse">
<stop stop-color="#8A0002"/>
<stop offset="1" stop-color="#E04047"/>
</linearGradient>
<linearGradient id="paint25_linear_220_1070" x1="135.865" y1="57.9431" x2="120.917" y2="67.9715" gradientUnits="userSpaceOnUse">
<stop stop-color="#8A0002"/>
<stop offset="1" stop-color="#E04047"/>
</linearGradient>
<linearGradient id="paint26_linear_220_1070" x1="141.205" y1="66.0302" x2="124.955" y2="73.7731" gradientUnits="userSpaceOnUse">
<stop stop-color="#8A0002"/>
<stop offset="1" stop-color="#E04047"/>
</linearGradient>
<linearGradient id="paint27_linear_220_1070" x1="145.815" y1="79.2453" x2="127.994" y2="81.7771" gradientUnits="userSpaceOnUse">
<stop stop-color="#8A0002"/>
<stop offset="1" stop-color="#E04047"/>
</linearGradient>
<linearGradient id="paint28_linear_220_1070" x1="101.686" y1="20.4172" x2="44.6594" y2="111.413" gradientUnits="userSpaceOnUse">
<stop stop-color="#E04047"/>
<stop offset="1" stop-color="#8A0002"/>
</linearGradient>
<linearGradient id="paint29_linear_220_1070" x1="80.2815" y1="65.3628" x2="109.638" y2="65.9563" gradientUnits="userSpaceOnUse">
<stop stop-color="#8A0002"/>
<stop offset="1" stop-color="#E04047"/>
</linearGradient>
<linearGradient id="paint30_linear_220_1070" x1="82.5622" y1="27.7785" x2="25.8592" y2="118.784" gradientUnits="userSpaceOnUse">
<stop stop-color="#E04047"/>
<stop offset="1" stop-color="#8A0002"/>
</linearGradient>
<linearGradient id="paint31_linear_220_1070" x1="61.0821" y1="72.5713" x2="90.4321" y2="73.2179" gradientUnits="userSpaceOnUse">
<stop stop-color="#8A0002"/>
<stop offset="1" stop-color="#E04047"/>
</linearGradient>
<linearGradient id="paint32_linear_220_1070" x1="88.3964" y1="59.0668" x2="88.3964" y2="122.067" gradientUnits="userSpaceOnUse">
<stop stop-color="#8A0002"/>
<stop offset="1" stop-color="#E04047"/>
</linearGradient>
</defs>
</svg>
