<svg width="178" height="178" viewBox="0 0 178 178" fill="none" xmlns="http://www.w3.org/2000/svg">
<g filter="url(#filter0_b_164_309)">
<circle cx="88.7411" cy="88.7411" r="62.7739" transform="rotate(43.4014 88.7411 88.7411)" fill="#E8EDDF" fill-opacity="0.05"/>
<circle cx="88.7411" cy="88.7411" r="62.3468" transform="rotate(43.4014 88.7411 88.7411)" stroke="#FBFFF5" stroke-width="0.854066"/>
</g>
<g filter="url(#filter1_b_164_309)">
<circle cx="88.7409" cy="88.7406" r="31.1734" transform="rotate(43.4014 88.7409 88.7406)" fill="#F5E3E3"/>
</g>
<path d="M98.1116 77.667C98.8227 77.3151 99.5874 78.0384 99.2758 78.768L97.7263 82.3956C97.4948 82.9376 97.8688 83.5456 98.457 83.5834L102.394 83.8361C103.185 83.8869 103.486 84.8957 102.851 85.3717L99.6956 87.7385C99.2241 88.0921 99.244 88.8058 99.7345 89.1325L103.017 91.3197C103.678 91.7596 103.434 92.7835 102.646 92.8784L98.7295 93.3503C98.1444 93.4208 97.8049 94.0487 98.0662 94.577L99.8157 98.1125C100.168 98.8236 99.4443 99.5884 98.7147 99.2767L95.0871 97.7272C94.5451 97.4957 93.937 97.8697 93.8993 98.4579L93.6466 102.395C93.5957 103.186 92.587 103.487 92.111 102.852L89.7442 99.6965C89.3905 99.225 88.6769 99.2449 88.3501 99.7354L86.163 103.018C85.7231 103.678 84.6992 103.435 84.6043 102.647L84.1324 98.7305C84.0619 98.1453 83.4339 97.8058 82.9057 98.0672L79.3701 99.8166C78.6591 100.168 77.8943 99.4452 78.2059 98.7156L79.7555 95.088C79.987 94.546 79.6129 93.938 79.0248 93.9002L75.0882 93.6475C74.2965 93.5967 73.9958 92.588 74.6304 92.1119L77.7862 89.7451C78.2577 89.3915 78.2378 88.6778 77.7473 88.3511L74.4644 86.1639C73.8042 85.724 74.0482 84.7001 74.8358 84.6052L78.7522 84.1333C79.3373 84.0628 79.6769 83.4349 79.4155 82.9066L77.6661 79.3711C77.3142 78.66 78.0375 77.8952 78.767 78.2069L82.3947 79.7564C82.9367 79.9879 83.5447 79.6139 83.5825 79.0257L83.8352 75.0891C83.886 74.2974 84.8947 73.9967 85.3707 74.6314L87.7376 77.7871C88.0912 78.2586 88.8048 78.2387 89.1316 77.7482L91.3188 74.4654C91.7586 73.8051 92.7826 74.0491 92.8775 74.8367L93.3493 78.7531C93.4198 79.3383 94.0478 79.6778 94.5761 79.4164L98.1116 77.667Z" fill="url(#paint0_linear_164_309)"/>
<path d="M119.62 119.357L125.396 126.81L124.391 127.588L117.491 124.084L119.174 131.631L118.169 132.41L112.394 124.957L113.118 124.396L118.148 130.887L116.507 123.55L117.231 122.989L123.927 126.409L118.896 119.918L119.62 119.357Z" fill="#8B0003"/>
<path d="M109.741 127.069L110.232 136.801L108.788 137.384L102.403 130.028L102.448 129.774L103.145 129.493L104.858 131.513L109.002 129.842L108.835 127.198L109.519 126.922L109.741 127.069ZM109.03 130.715L105.431 132.166L109.034 136.386L109.363 136.253L109.03 130.715Z" fill="#8B0003"/>
<path d="M101.453 139.175L101.581 139.998L94.318 141.135L94.1892 140.311L97.3753 139.813L96.0466 131.321L96.9376 131.181L98.2664 139.673L101.453 139.175Z" fill="#8B0003"/>
<path d="M89.8982 132.092L89.3047 141.502L83.2495 141.12L83.3019 140.289L88.4435 140.613L88.6456 137.408L83.9132 137.109L83.9648 136.291L88.6972 136.59L88.932 132.866L83.7905 132.542L83.843 131.71L89.8982 132.092Z" fill="#8B0003"/>
<path d="M80.5686 131.358L77.8689 140.392L73.6268 139.125C72.3262 138.736 71.8703 137.891 72.2589 136.591L72.6854 135.164C73.0271 134.02 73.7225 133.539 74.7715 133.719L74.0473 129.652L74.2317 129.464L74.9518 129.68L75.726 133.961L78.5802 134.814L79.6914 131.096L80.5686 131.358ZM78.3455 135.6L74.9282 134.579C74.2474 134.375 73.8039 134.618 73.5979 135.308L73.097 136.984C72.8936 137.665 73.1323 138.107 73.8131 138.31L77.2304 139.331L78.3455 135.6Z" fill="#8B0003"/>
<path d="M70.7689 127.999L66.4658 136.388L65.6512 135.971L69.9542 127.581L70.7689 127.999Z" fill="#8B0003"/>
<path d="M66.7037 126.412L58.5561 131.758L57.3228 130.806L60.4399 121.578L60.6817 121.488L61.2767 121.947L60.4004 124.447L63.938 127.177L66.1341 125.696L66.7183 126.147L66.7037 126.412ZM63.1991 127.643L60.1267 125.272L58.3081 130.514L58.5894 130.731L63.1991 127.643Z" fill="#8B0003"/>
<path d="M58.0181 119.086L50.7001 125.032L50.1228 124.322L56.7938 118.902L53.8037 115.221L54.4507 114.696L58.0181 119.086Z" fill="#8B0003"/>
<path d="M49.7049 106.852L40.8004 109.953L39.3445 105.772C38.8981 104.49 39.3159 103.626 40.5978 103.179L42.0044 102.689C43.1315 102.297 43.929 102.579 44.3969 103.535L47.2702 100.566L47.53 100.606L47.7771 101.316L44.7592 104.45L45.7388 107.264L49.4039 105.988L49.7049 106.852ZM44.9645 107.533L43.7917 104.165C43.558 103.494 43.1013 103.277 42.4217 103.514L40.7698 104.089C40.0987 104.322 39.8801 104.775 40.1137 105.446L41.2866 108.814L44.9645 107.533Z" fill="#8B0003"/>
<path d="M46.8207 97.9382L37.4542 99.0215L36.7571 92.9944L37.5852 92.8986L38.1771 98.0162L41.3671 97.6473L40.8223 92.9369L41.6368 92.8427L42.1816 97.5531L45.8874 97.1245L45.2955 92.0069L46.1236 91.9111L46.8207 97.9382Z" fill="#8B0003"/>
<path d="M43.9 88.5377L38.5718 87.9867C37.2216 87.847 36.6163 87.1021 36.7559 85.7519L37.1861 81.5926L37.6473 81.1182L38.0687 81.1618L37.5809 85.8784C37.5068 86.5943 37.8232 86.9888 38.53 87.0619L44.1302 87.6411C44.837 87.7142 45.2274 87.3928 45.3014 86.6769L45.7232 82.5992L42.0124 82.2154L41.7594 84.662L40.9438 84.5777L41.291 81.2203L46.6465 81.7742L46.1348 86.7219C45.9952 88.0721 45.2502 88.6774 43.9 88.5377Z" fill="#8B0003"/>
<path d="M47.0968 79.2931L38.1579 76.293L38.4492 75.425L47.3881 78.4251L47.0968 79.2931Z" fill="#8B0003"/>
<path d="M46.1213 74.6726L45.761 74.4499L47.9743 70.87C48.348 70.2656 48.2326 69.7766 47.6283 69.4029L46.6519 68.7993C46.1483 68.4879 45.711 68.5281 45.3402 68.9201L43.2362 71.1537C42.5561 71.89 41.7394 71.9635 40.7864 71.3742L40.182 71.0005C39.0274 70.2867 38.8071 69.3525 39.5209 68.198L41.2887 65.3387L41.9104 65.1126L42.2707 65.3354L40.2083 68.6712C39.8299 69.2833 39.9428 69.7763 40.5472 70.1499L41.3492 70.6458C41.8606 70.962 42.3017 70.9241 42.6726 70.5322L44.7605 68.2725C45.4436 67.5488 46.2578 67.4792 47.2031 68.0636L47.9935 68.5523C49.148 69.2661 49.3684 70.2003 48.6546 71.3548L46.7503 74.4349L46.1213 74.6726Z" fill="#8B0003"/>
<path d="M43.2599 61.1576L42.6814 60.5575L47.9747 55.4555L48.5532 56.0557L46.2312 58.2937L52.1962 64.4824L51.5468 65.1083L45.5819 58.9196L43.2599 61.1576Z" fill="#8B0003"/>
<path d="M56.4192 58.0941L51.8096 49.8688L55.6719 47.7043C56.856 47.0407 57.7799 47.3009 58.4435 48.4851L59.1717 49.7844C59.7551 50.8255 59.6171 51.66 58.7576 52.2879L62.1826 54.5979L62.1888 54.8607L61.5332 55.2281L57.9193 52.8046L55.3206 54.261L57.2179 57.6465L56.4192 58.0941ZM54.9198 53.5458L58.0311 51.8021C58.651 51.4547 58.785 50.9671 58.4331 50.3393L57.578 48.8135C57.2306 48.1936 56.747 48.0573 56.1271 48.4047L53.0158 50.1484L54.9198 53.5458Z" fill="#8B0003"/>
<path d="M65.3047 50.3847L62.6859 45.7118C62.0223 44.5277 62.2825 43.6038 63.4666 42.9402L66.268 41.3703C67.4521 40.7066 68.376 40.9669 69.0396 42.151L71.6584 46.824C72.322 48.0081 72.0617 48.9319 70.8776 49.5955L68.0763 51.1655C66.8921 51.8291 65.9683 51.5688 65.3047 50.3847ZM66.1702 50.0563C66.5175 50.6762 67.0052 50.8102 67.633 50.4584L70.5178 48.8417C71.1377 48.4943 71.2739 48.0106 70.9265 47.3908L68.1741 42.4794C67.8267 41.8595 67.3431 41.7233 66.7232 42.0707L63.8384 43.6874C63.2106 44.0392 63.0704 44.5251 63.4177 45.145L66.1702 50.0563Z" fill="#8B0003"/>
<path d="M78.1208 44.0688L77.6916 41.6191L80.0471 41.2063L80.4763 43.6561L78.1208 44.0688Z" fill="#8B0003"/>
<path d="M90.0975 46.0535L94.6582 37.4416L96.1976 37.6808L97.9157 47.2687L97.7471 47.4637L97.0045 47.3483L96.5669 44.7358L92.1515 44.0495L90.9416 46.406L90.2125 46.2927L90.0975 46.0535ZM92.5745 43.2855L96.4093 43.8815L95.4754 38.4121L95.1244 38.3576L92.5745 43.2855Z" fill="#8B0003"/>
<path d="M101.229 48.2053L104.855 39.5016L108.942 41.2044C110.195 41.7265 110.56 42.614 110.038 43.867L109.36 45.4942C108.842 46.7388 107.956 47.1001 106.703 46.578L103.461 45.2273L102.074 48.5574L101.229 48.2053ZM103.777 44.4705L107.069 45.8422C107.725 46.1155 108.191 45.92 108.468 45.2556L109.246 43.3888C109.519 42.7328 109.328 42.2682 108.672 41.9949L105.379 40.6232L103.777 44.4705Z" fill="#8B0003"/>
<path d="M110.275 52.1139L115.833 44.4969L119.409 47.1066C120.506 47.9067 120.654 48.855 119.854 49.9515L118.976 51.1548C118.273 52.1188 117.457 52.3409 116.528 51.8211L115.854 55.897L115.618 56.0122L115.011 55.5692L115.709 51.2743L113.302 49.5184L111.015 52.6535L110.275 52.1139ZM113.786 48.8561L116.667 50.9583C117.241 51.3771 117.74 51.2959 118.164 50.7145L119.195 49.3015C119.614 48.7274 119.536 48.231 118.962 47.8122L116.081 45.71L113.786 48.8561Z" fill="#8B0003"/>
<path d="M120.163 57.0403L124.294 53.6306C125.341 52.7666 126.297 52.858 127.161 53.9049L129.205 56.3817C130.069 57.4286 129.977 58.384 128.93 59.248L124.799 62.6577C123.752 63.5217 122.797 63.4303 121.933 62.3834L119.889 59.9067C119.024 58.8598 119.116 57.9043 120.163 57.0403ZM120.64 57.8334C120.092 58.2857 120.047 58.7894 120.505 59.3444L122.61 61.895C123.063 62.443 123.563 62.4909 124.111 62.0386L128.453 58.4549C129.001 58.0026 129.049 57.5024 128.597 56.9544L126.492 54.4039C126.034 53.8488 125.53 53.7975 124.982 54.2498L120.64 57.8334Z" fill="#8B0003"/>
<path d="M133.34 62.1158L133.602 62.1579L133.924 62.8369L127.366 69.0651L127.518 69.3861L136.49 68.2442L136.812 68.9232L136.674 69.1404L127.04 70.3237L126.337 68.8422L133.34 62.1158Z" fill="#8B0003"/>
<path d="M129.719 75.3835L139.381 76.6483L139.695 78.1742L131.311 83.1336L131.07 83.0438L130.918 82.3076L133.213 80.9849L132.314 76.6079L129.683 76.2976L129.535 75.5748L129.719 75.3835ZM133.178 76.7374L133.959 80.5388L138.757 77.7531L138.686 77.4051L133.178 76.7374Z" fill="#8B0003"/>
<path d="M131.613 86.2398L141.034 86.6278L140.88 90.3552C140.79 92.5397 139.649 93.5868 137.455 93.4965L134.615 93.3796C132.421 93.2892 131.369 92.1518 131.459 89.9672L131.613 86.2398ZM132.408 87.1889L132.29 90.0561C132.227 91.5944 132.964 92.3953 134.502 92.4586L137.643 92.5879C139.181 92.6512 139.982 91.9138 140.045 90.3755L140.163 87.5082L132.408 87.1889Z" fill="#8B0003"/>
<path d="M132.954 97.7428L138.075 99.3146C139.373 99.7129 139.822 100.561 139.424 101.859L138.482 104.928C138.084 106.226 137.236 106.676 135.938 106.277L130.817 104.706C129.519 104.307 129.07 103.459 129.468 102.162L130.41 99.0919C130.809 97.7942 131.657 97.3445 132.954 97.7428ZM132.555 98.578C131.876 98.3695 131.43 98.6093 131.219 99.2973L130.249 102.459C130.04 103.138 130.276 103.582 130.955 103.79L136.337 105.442C137.017 105.651 137.46 105.415 137.669 104.736L138.639 101.575C138.85 100.887 138.616 100.438 137.937 100.23L132.555 98.578Z" fill="#8B0003"/>
<path d="M127.594 114.74L129.592 116.221L128.167 118.142L126.169 116.66L127.594 114.74Z" fill="#8B0003"/>
<defs>
<filter id="filter0_b_164_309" x="5.46945" y="5.46921" width="166.543" height="166.544" filterUnits="userSpaceOnUse" color-interpolation-filters="sRGB">
<feFlood flood-opacity="0" result="BackgroundImageFix"/>
<feGaussianBlur in="BackgroundImageFix" stdDeviation="10.2488"/>
<feComposite in2="SourceAlpha" operator="in" result="effect1_backgroundBlur_164_309"/>
<feBlend mode="normal" in="SourceGraphic" in2="effect1_backgroundBlur_164_309" result="shape"/>
</filter>
<filter id="filter1_b_164_309" x="37.0698" y="37.0698" width="103.342" height="103.342" filterUnits="userSpaceOnUse" color-interpolation-filters="sRGB">
<feFlood flood-opacity="0" result="BackgroundImageFix"/>
<feGaussianBlur in="BackgroundImageFix" stdDeviation="10.2488"/>
<feComposite in2="SourceAlpha" operator="in" result="effect1_backgroundBlur_164_309"/>
<feBlend mode="normal" in="SourceGraphic" in2="effect1_backgroundBlur_164_309" result="shape"/>
</filter>
<linearGradient id="paint0_linear_164_309" x1="110.668" y1="84.4273" x2="66.1086" y2="91.8979" gradientUnits="userSpaceOnUse">
<stop stop-color="#E04047"/>
<stop offset="1" stop-color="#8B0003"/>
</linearGradient>
</defs>
</svg>
